<?xml version="1.0" encoding="UTF-8" standalone="no"?>
<!-- Created with Inkscape (http://www.inkscape.org/) -->

<svg
   xmlns:dc="http://purl.org/dc/elements/1.1/"
   xmlns:cc="http://creativecommons.org/ns#"
   xmlns:rdf="http://www.w3.org/1999/02/22-rdf-syntax-ns#"
   xmlns:svg="http://www.w3.org/2000/svg"
   xmlns="http://www.w3.org/2000/svg"
   xmlns:sodipodi="http://sodipodi.sourceforge.net/DTD/sodipodi-0.dtd"
   xmlns:inkscape="http://www.inkscape.org/namespaces/inkscape"
   version="1.1"
   id="svg5693"
   width="300"
   height="640"
   viewBox="0 0 300 640"
   sodipodi:docname="port.svg"
   inkscape:version="0.92.4 (5da689c313, 2019-01-14)">
  <metadata
     id="metadata5699">
    <rdf:RDF>
      <cc:Work
         rdf:about="">
        <dc:format>image/svg+xml</dc:format>
        <dc:type
           rdf:resource="http://purl.org/dc/dcmitype/StillImage" />
        <dc:title></dc:title>
      </cc:Work>
    </rdf:RDF>
  </metadata>
  <defs
     id="defs5697" />
  <sodipodi:namedview
     pagecolor="#ffffff"
     bordercolor="#666666"
     borderopacity="1"
     objecttolerance="10"
     gridtolerance="10"
     guidetolerance="10"
     inkscape:pageopacity="0"
     inkscape:pageshadow="2"
     inkscape:window-width="1920"
     inkscape:window-height="1027"
     id="namedview5695"
     showgrid="false"
     inkscape:zoom="0.853125"
     inkscape:cx="314.72527"
     inkscape:cy="366.88645"
     inkscape:window-x="-8"
     inkscape:window-y="-8"
     inkscape:window-maximized="1"
     inkscape:current-layer="svg5693" />
  <path
     style="fill:#000000"
     d="M -162.9304,320 V -2.9304036e-7 h 48.475 48.474997 L -66.450963,2.7499997 C -66.926413,5.5285417 -68.856713,21.77018 -77.890193,99 c -2.73414,23.375 -5.45224,46.325 -6.04022,51 -0.58798,4.675 -3.32716,27.175 -6.08706,50 -2.75991,22.825 -7.48831,61.075 -10.507547,85 -3.01925,23.925 -6.36886,50.475 -7.44358,59 -1.07472,8.525 -2.6538,20.45 -3.50905,26.5 -0.85525,6.05 -2.19278,15.95 -2.97229,22 -1.93866,15.04658 -4.09982,30.87591 -6.00727,44 -0.87931,6.05 -1.80695,12.8 -2.06142,15 -0.9952,8.60369 -4.47586,35.33919 -5.40284,41.5 -0.5379,3.575 -1.90698,13.7 -3.04239,22.5 -1.13541,8.8 -2.91586,22.3 -3.95656,30 -1.0407,7.7 -2.59717,19.4 -3.45882,26 -3.03072,23.21426 -4.60928,35.06845 -5.59292,42 -1.19717,8.4363 -2.95824,23.45225 -2.95824,25.22377 0,0.92862 -2.17897,1.27623 -8,1.27623 h -8 z m 319,313.84639 c -3.575,-0.49871 -8.75,-1.98938 -11.5,-3.31259 -4.45041,-2.14139 -6.04422,-2.36237 -14.5,-2.01045 -10.21663,0.42521 -17.26873,-0.71735 -31.925753,-5.17251 -12.47741,-3.79265 -31.77387,-13.33843 -37.41204,-18.50738 l -4.73773,-4.34346 -0.29006,-9 c -0.15954,-4.95 0.0576,-13.725 0.48252,-19.5 1.45,-19.70653 1.42819,-25.04506 -0.10619,-25.99336 -0.77839,-0.48107 -1.68743,-0.70646 -2.02009,-0.50087 -0.33266,0.2056 -0.0839,-2.18659 0.55289,-5.31598 0.93544,-4.59733 0.8984,-6.06852 -0.19291,-7.6623 -1.62358,-2.37111 -1.76893,-12.74404 -0.33844,-24.1524 0.82762,-6.60043 0.73971,-8.7246 -0.48209,-11.64879 -1.82417,-4.36585 -1.40166,-5.75737 7.57051,-24.9326 7.16499,-15.31297 9.65215,-23.84272 10.43696,-35.7937 0.30701,-4.675 0.72804,-9.62571 0.93562,-11.00158 0.31252,-2.07132 -0.28813,-2.82531 -3.49225,-4.38382 -2.12832,-1.03523 -4.11491,-2.5213 -4.41463,-3.30238 -0.41515,-1.08185 -1.6461,-0.57936 -5.16761,2.10951 -8.01848,6.12257 -13.80767,6.00779 -20.77214,-0.41183 -8.35611,-7.70239 -12.40837,-20.69008 -12.98076,-41.60396 -0.29119,-10.63919 -0.48228,-11.6031 -2.59349,-13.08185 -1.87665,-1.31446 -2.19097,-2.25368 -1.77989,-5.31852 0.27458,-2.04718 1.16238,-5.24842 1.97287,-7.11386 0.8105,-1.86544 1.9592,-4.58965 2.55268,-6.0538 C 27.597057,341.5711 34.129697,333 35.652237,333 c 1.73995,0 8.01595,-12.38223 14.93275,-29.46159 13.15429,-32.4813 17.05645,-41.14837 25.59195,-56.84229 2.7829,-5.11682 3.94003,-6.19791 9.77462,-9.1323 3.63992,-1.83063 10.02603,-4.53651 14.191363,-6.01306 6.7719,-2.40056 7.7047,-3.04798 8.81485,-6.11806 2.82068,-7.80044 9.03479,-12.58423 22.53781,-17.3502 6.82667,-2.40952 20.55058,-5.00567 26.82402,-5.0743 0.4125,-0.005 0.74693,-1.0207 0.74317,-2.2582 -0.004,-1.44961 -1.2618,-3.1047 -3.53473,-4.6527 -4.00541,-2.72791 -10.97348,-10.7221 -13.57233,-15.57097 -0.95952,-1.79027 -2.02736,-5.00357 -2.37296,-7.14068 -1.37425,-8.49783 -1.22223,-8.26431 -5.34279,-8.20744 -9.62616,0.13285 -14.15107,-5.43042 -21.49549,-26.42821 -0.33666,-0.9625 -1.02597,-1.75 -1.5318,-1.75 -0.50584,0 -2.65353,-3.46213 -4.77266,-7.69361 -3.84156,-7.67087 -3.85403,-7.73537 -4.21824,-21.8204 l -0.36529,-14.126791 4.01261,-11.9296 c 6.0367,-17.94728 9.81664,-24.045605 23.20051,-37.430334 10.45746,-10.458126 12.45189,-11.97288 22,-16.708841 15.29676,-7.587348 27.40757,-10.233802 47,-10.270444 16.47663,-0.03082 36.27528,4.554146 50.10908,11.604231 6.90778,3.520392 17.86778,11.452829 25.72348,18.617674 l 4.3326,3.951564 2.4135,-2.267334 c 1.3274,-1.247034 2.6592,-2.021554 2.9596,-1.721157 0.3004,0.300398 -0.7704,1.654012 -2.3795,3.008032 l -2.9258,2.461853 3.4867,5.412578 c 5.1851,8.049121 10.0154,18.582793 11.8825,25.912579 1.2794,5.022357 1.5277,9.114291 1.0925,18 -1.0433,21.29928 -6.7168,35.96147 -16.927,43.74502 -3.231,2.46308 -6.0077,5.50471 -6.6147,7.24591 -1.2372,3.54913 -8.9868,14.62137 -12.31651,17.59723 -4.6031,4.11394 -9.77815,5.17263 -14.83645,3.03519 -1.09025,-0.4607 -2.00883,0.60585 -3.3627,3.90439 -2.01043,4.89816 -8.54875,11.02271 -22.03382,20.63944 -9.69669,6.91508 -10.11695,8.37683 -2.84257,9.88698 6.7062,1.39221 16.25276,4.91436 24.21727,8.93483 10.40044,5.25012 16.95417,13.99718 16.99986,22.68916 0.0219,4.16557 0.0393,4.18462 5.77192,6.32495 7.6536,2.8575 15.1139,7.19621 18.5552,10.79114 2.3661,2.4717 3.0942,4.63486 4.6508,13.8181 4.9629,29.27846 9.3334,61.77498 10.6769,79.38743 0.3901,5.1148 1.2858,9.47264 2.249,10.94266 1.2264,1.87172 1.6873,5.79429 1.9713,16.77663 l 0.3706,14.33374 -3.6119,3.40645 c -2.4732,2.33256 -3.6165,4.29456 -3.6266,6.2236 -0.034,6.57079 -6.412,27.92819 -10.182,34.09824 -2.7662,4.52716 -8.6183,7.41914 -12.6648,6.25863 -3.0304,-0.86913 -11.544,-5.00061 -17.81186,-8.6438 -3.10342,-1.80387 -3.22183,-1.801 -5.3696,0.12977 -2.14841,1.93135 -2.18347,2.35509 -1.61159,19.47431 0.67203,20.11716 0.75045,20.74997 4.25599,34.34582 1.43998,5.5848 3.05376,13.48379 3.58618,17.55331 0.887,6.77974 0.7941,7.63438 -1.10977,10.2095 -1.39453,1.8862 -2.07781,4.32141 -2.07781,7.40531 0,4.8068 -5.19037,28.10474 -7.02491,31.53261 -0.73485,1.37308 -0.74678,3.1208 -0.0388,5.68492 0.91651,3.31933 0.76578,3.97005 -1.45702,6.29015 -1.3636,1.4233 -2.47928,3.43617 -2.47928,4.47305 0,3.77244 -11.15377,48.12238 -13.1462,52.27228 -2.32546,4.84355 -3.32266,5.51633 -12.27464,8.28132 -11.64091,3.59551 -42.34852,5.0623 -58.57916,2.79812 z M 147.76759,603.5 c 3.30598,-14.76488 3.702,-17.5 2.53386,-17.5 -1.92059,0 -3.04722,2.57105 -3.7247,8.5 -0.37707,3.3 -1.10306,7.65137 -1.61329,9.6697 -2.36578,9.3583 -3.61594,19.33977 -2.51218,20.05766 0.74451,0.48424 1.40829,-1.01991 1.98582,-4.5 0.47712,-2.87505 1.97584,-10.17736 3.33049,-16.22736 z m 24.48627,4.3629 c 0.92634,-0.4746 2.42591,-0.8629 3.33239,-0.8629 4.70331,0 31.65672,-14.8892 35.6384,-19.68683 0.72358,-0.87185 3.0879,-2.70399 5.25405,-4.07142 6.85406,-4.32678 24.59154,-19.64673 24.57559,-21.22605 -0.0368,-3.64533 -1.50242,-4.10856 -5.62889,-1.77913 -4.17713,2.35802 -21.42368,15.03298 -27.16644,19.96535 -4.66151,4.00371 -24.98995,13.88906 -35.68936,17.3551 -4.95,1.60353 -9.07041,2.92169 -9.15646,2.92925 -0.0861,0.008 -0.47672,2.16505 -0.86815,4.79444 l -0.71169,4.78071 4.36815,-0.66781 c 2.40248,-0.3673 5.12607,-1.05612 6.05241,-1.53071 z M 123.52634,596.75 c 0.21668,-0.6875 0.67081,-3.32535 1.00917,-5.86188 0.59909,-4.49102 0.52898,-4.64706 -2.67535,-5.95448 -10.28948,-4.19829 -33.468993,-21.33068 -47.540563,-35.13808 -4.5375,-4.45232 -8.25,-8.46617 -8.25,-8.91966 0,-0.4535 -1.30929,-1.5016 -2.90953,-2.32912 -2.86707,-1.48262 -2.92565,-1.45835 -4.01363,1.66265 -1.015,2.91162 -0.84506,3.43449 2.10569,6.4789 1.76539,1.82142 3.79088,3.31167 4.50109,3.31167 0.71021,0 2.37608,1.71841 3.70192,3.81869 2.87449,4.55348 23.23508,24.09476 29.61446,28.42278 2.475003,1.67913 5.741243,4.19949 7.258313,5.6008 2.70906,2.50234 14.48993,9.90902 16.02307,10.07377 0.42977,0.0462 0.95867,-0.47854 1.17536,-1.16604 z m 66.27749,-10.22277 c 5.92117,-3.02791 12.41161,-6.52273 14.4232,-7.76626 6.8978,-4.26411 20.82632,-14.11055 20.46771,-14.46916 -0.19722,-0.19722 -2.33105,0.28843 -4.74186,1.07922 -5.7359,1.88148 -48.23419,6.14254 -56.77254,5.69226 -3.82022,-0.20147 -4.30199,-0.004 -3.71612,1.52269 1.30225,3.39362 2.49599,9.99209 3.17457,17.54768 l 0.68559,7.63365 7.85683,-2.86739 c 4.32126,-1.57706 12.70144,-5.34477 18.62262,-8.37269 z M 165.0696,594 c 0,-0.55 0.6382,-1 1.41821,-1 0.78002,0 2.24252,-0.26174 3.25,-0.58164 1.67622,-0.53223 1.66694,-0.44731 -0.10934,1 -2.18968,1.78416 -4.55887,2.08643 -4.55887,0.58164 z m 8,-4 c 0,-0.55 0.9,-1 2,-1 1.1,0 2,0.45 2,1 0,0.55 -0.9,1 -2,1 -1.1,0 -2,-0.45 -2,-1 z m 6.21167,-1.13501 c 0.45905,-1.37715 4.78833,-3.17934 4.78833,-1.99328 0,0.44399 -1.16542,1.33826 -2.58983,1.98727 -1.97706,0.9008 -2.49724,0.90223 -2.1985,0.006 z M 188.0696,583.5 c 3.27489,-1.87209 4.5537,-1.87209 3,0 -0.68469,0.825 -2.20229,1.48405 -3.37244,1.46456 -2.00407,-0.0334 -1.98245,-0.11838 0.37244,-1.46456 z m 7,-3.21603 c 0.825,-0.30698 2.30503,-1.39645 3.28896,-2.42105 1.81191,-1.88683 5.31578,-2.65043 4.25018,-0.92624 -0.7403,1.19783 -6.50204,4.08812 -7.94278,3.98437 -0.603,-0.0434 -0.42136,-0.33011 0.40364,-0.63708 z m 9.55,-6.12393 c 2.17179,-1.92025 8.44942,-5.26016 8.4423,-4.4916 -0.004,0.45736 -1.78089,1.84406 -3.94812,3.08156 -3.94904,2.25493 -6.27517,2.98474 -4.49418,1.41004 z m -77.22862,6.08621 c 1.00176,-2.61044 2.47172,-6.23966 3.26657,-8.06493 1.4379,-3.30194 1.18739,-5.18132 -0.69064,-5.18132 -3.18643,0 -26.51837,-9.75046 -51.650173,-21.58472 -8.66798,-4.08164 -9.30914,-4.17463 -6.23709,-0.90458 1.36389,1.4518 2.62251,2.08383 2.98422,1.49857 0.37378,-0.60479 1.53358,-0.16616 2.88175,1.08985 2.45121,2.28365 2.139,3.98816 -0.35185,1.92094 -0.8383,-0.69572 -1.52417,-1.00275 -1.52417,-0.68229 0,0.9362 14.76667,12.41967 28.498563,22.16223 6.9769,4.95 14.33141,10.20668 16.34336,11.68152 2.01194,1.47483 3.88308,2.71065 4.15808,2.74625 0.275,0.0356 1.31962,-2.07108 2.32138,-4.68152 z M 123.0696,582 c -0.79314,-0.49019 -1.11011,-1.22322 -0.70437,-1.62896 0.40574,-0.40574 1.2627,-0.21271 1.90437,0.42896 1.51091,1.51091 0.66759,2.35423 -1.2,1.2 z m -6,-4.5 c -0.69443,-0.83674 -0.80272,-1.5 -0.24489,-1.5 0.55,0 1.5602,0.675 2.24489,1.5 0.69443,0.83674 0.80272,1.5 0.24489,1.5 -0.55,0 -1.5602,-0.675 -2.24489,-1.5 z m -6.5573,-3.91824 c -1.06675,-0.78003 -1.675,-1.68279 -1.35166,-2.00613 0.32334,-0.32334 1.40487,0.31487 2.40341,1.41824 2.12444,2.34747 1.68814,2.59135 -1.05175,0.58789 z m -5.93715,-4.57563 C 103.57661,567.90276 103.22427,567 103.79217,567 c 1.25825,0 3.7524,2.85836 3.08047,3.5303 -0.26508,0.26508 -1.29895,-0.4208 -2.29749,-1.52417 z M 97.069597,563.5 c -0.69443,-0.83674 -0.80272,-1.5 -0.24489,-1.5 0.55,0 1.5602,0.675 2.24489,1.5 0.69443,0.83674 0.80272,1.5 0.24489,1.5 -0.55,0 -1.5602,-0.675 -2.24489,-1.5 z m -5.42857,-4.07143 c -1.05899,-0.77435 -1.73257,-1.60076 -1.49686,-1.83648 0.23572,-0.23571 1.29502,0.20499 2.354,0.97934 1.05899,0.77435 1.73257,1.60076 1.49686,1.83648 -0.23572,0.23571 -1.29502,-0.20499 -2.354,-0.97934 z m -6.64712,-5.03666 c -2.11377,-2.274 -2.18343,-2.56222 -0.54379,-2.25 1.96007,0.37324 5.57499,4.85809 3.91577,4.85809 -0.52122,0 -2.0386,-1.17364 -3.37198,-2.60809 z M 157.99065,563.75 c -0.0434,-1.7875 -0.32923,-2.575 -0.63512,-1.75 -0.3059,0.825 -0.96121,2.2875 -1.45624,3.25 -0.66737,1.29757 -0.50317,1.75 0.63513,1.75 1.08153,0 1.51185,-0.96039 1.45623,-3.25 z m -8.42398,-4.5 c 1.08163,-11.12526 1.06006,-14.5142 -0.095,-14.9249 -0.7139,-0.25384 -1.32565,2.68164 -1.74893,8.39225 -0.35804,4.83046 -0.92895,9.79515 -1.26869,11.03265 -0.44621,1.62535 -0.19099,2.25 0.91933,2.25 1.1661,0 1.69542,-1.62902 2.1933,-6.75 z m 3.9187,5.1089 c 1.25942,-3.28198 2.51886,-19.82427 1.58075,-20.76238 -1.34556,-1.34556 -1.79741,0.70271 -2.295,10.40348 -0.23979,4.675 -0.76888,9.2875 -1.17574,10.25 -0.41983,0.99317 -0.30728,1.75 0.26024,1.75 0.55,0 1.28339,-0.7385 1.62975,-1.6411 z m 9.99903,-6.1089 c 0.35738,-4.2625 0.89981,-9.4375 1.20539,-11.5 0.44333,-2.99219 0.23472,-3.75 -1.03229,-3.75 -1.15559,0 -1.60727,1.02095 -1.65905,3.75 -0.0391,2.0625 -0.38864,7.2375 -0.77668,11.5 -0.51119,5.61529 -0.38623,7.75 0.45366,7.75 0.72331,0 1.40353,-2.91417 1.80897,-7.75 z m 3.9958,6 c 0.84242,-2.70319 2.54745,-15.35913 2.56959,-19.07332 0.0157,-2.62893 -0.34488,-3.2531 -1.72555,-2.9872 -1.32792,0.25573 -1.6819,1.17017 -1.48003,3.82332 0.14593,1.91796 -0.3415,7.1997 -1.08318,11.7372 -1.07761,6.59272 -1.09516,8.25 -0.0874,8.25 0.69363,0 1.50656,-0.7875 1.80652,-1.75 z m 4.95082,0.25055 C 173.51363,561.67929 174.39057,542 173.43367,542 c -0.51177,0 -1.49148,4.72321 -2.17713,10.49602 -0.68566,5.77281 -1.50636,11.17281 -1.82379,12 -0.35561,0.92671 -0.001,1.50398 0.92287,1.50398 0.825,0 1.75893,-0.67475 2.0754,-1.49945 z m 5.10959,0.24945 c 0.47832,-1.4646 1.10617,-6.43707 2.08337,-16.5 0.61387,-6.32142 0.49537,-7.25 -0.92517,-7.25 -1.65205,0 -2.02185,0.97948 -1.65768,4.39067 0.11102,1.03986 -0.30649,4.86486 -0.92779,8.5 C 174.01174,566.18675 174.01926,566 175.62598,566 c 0.82852,0 1.6901,-0.5625 1.91463,-1.25 z m -33.44013,-0.5 c 0.094,-2.28382 1.99353,-15.49909 2.54173,-17.68328 0.49162,-1.95877 0.26324,-2.56672 -0.9642,-2.56672 -0.88463,0 -1.6223,0.3375 -1.63929,0.75 -0.094,2.28382 -1.99353,15.49909 -2.54173,17.68328 -0.49162,1.95877 -0.26324,2.56672 0.9642,2.56672 0.88463,0 1.6223,-0.3375 1.63929,-0.75 z m 41.75054,-12.07937 c 0.25984,-11.38405 0.14483,-12.29957 -1.5,-11.94061 -0.97978,0.21382 -1.69006,0.86112 -1.5784,1.43844 0.30048,1.5535 -1.42086,17.38342 -2.24658,20.66033 -0.67004,2.65907 -0.54012,2.80907 2.16538,2.5 L 185.5696,564.5 Z m 6.24539,9.47238 c 0.0147,-1.17865 0.30029,-6.95421 0.63453,-12.83457 0.60018,-10.55871 0.5812,-10.68463 -1.52681,-10.13337 -1.48036,0.38712 -2.14818,1.36524 -2.17907,3.19156 -0.0245,1.44835 -0.2919,6.58583 -0.59423,11.41662 -0.30233,4.83079 -0.29932,9.43571 0.007,10.23314 0.80761,2.1046 3.62718,0.66096 3.65889,-1.87338 z m 5.37182,1.52101 c 0.28416,-0.45978 0.80285,-6.53478 1.15265,-13.5 C 199.18757,538.37984 199.07981,537 197.63185,537 c -2.24939,0 -2.4115,0.86723 -2.75721,14.75003 -0.22362,8.98037 0.0128,12.25002 0.88594,12.25 0.65504,-2e-5 1.42348,-0.37622 1.70765,-0.83601 z m 5.44863,-6.41402 c 0.57892,-3.4375 1.35825,-9.5125 1.73187,-13.5 0.63721,-6.8009 0.5559,-7.25 -1.31265,-7.25 -1.84643,0 -2.03032,0.85832 -2.51726,11.75 -0.28892,6.4625 -0.84883,12.5375 -1.24425,13.5 -0.497,1.20974 -0.25453,1.75 0.78539,1.75 1.06637,0 1.81077,-1.81957 2.5569,-6.25 z m 4.56494,-3.82793 c 2.02799,-10.95601 2.12834,-19.06672 0.22687,-18.33706 -0.97128,0.37271 -1.54416,3.5847 -2.00092,11.21861 -0.35201,5.88301 -0.91693,12.27138 -1.2554,14.19638 -0.42006,2.38908 -0.28893,3.18259 0.41313,2.5 0.56569,-0.55 1.74303,-4.86007 2.61632,-9.57793 z M 133.42921,555.25 c 0.35732,-3.7125 0.92505,-7.9875 1.26161,-9.5 0.45335,-2.03733 0.22822,-2.75 -0.86872,-2.75 -1.6295,0 -2.7525,5.76883 -2.7525,14.13957 0,7.18729 1.61007,5.89795 2.35961,-1.88957 z m 5.14185,-9.25461 c 0.75835,-2.38933 -1.01313,-2.71034 -1.9197,-0.34787 -0.34771,0.90614 -0.83515,5.06864 -1.0832,9.25 l -0.45099,7.60248 1.41029,-7.25461 c 0.77566,-3.99004 1.69528,-8.15254 2.0436,-9.25 z m 2.56609,6.43302 C 142.01222,547.79278 142.34088,544 141.86751,544 c -1.22571,0 -1.60368,1.5068 -2.56516,10.22627 -1.09046,9.8892 -0.20818,9.02468 1.8348,-1.79786 z m 69.31619,8.7597 c 0.85108,-1.37707 3.61626,-19.92808 3.61626,-24.26068 0,-2.85305 -0.37891,-3.95516 -1.25,-3.63576 -0.6875,0.25208 -1.11633,1.02809 -0.95296,1.72446 0.40551,1.72846 -1.63857,15.30143 -3.27311,21.73387 -1.11652,4.39387 -1.11456,5.25 0.012,5.25 0.74032,0 1.57185,-0.36535 1.84782,-0.81189 z m 7.13357,-2.5576 c 0.71732,-3.0847 2.46274,-15.18558 3.16883,-21.96932 0.59204,-5.68798 0.54751,-5.83005 -1.72406,-5.5 -2.13368,0.31002 -2.3563,0.89297 -2.62021,6.86113 -0.15862,3.58728 -0.97536,10.11228 -1.81497,14.5 -1.89376,9.89666 -1.92154,9.39364 0.48404,8.76457 1.10601,-0.28923 2.23388,-1.4846 2.50637,-2.65638 z m -88.16619,-6.79631 c 0.35784,-5.04119 0.41772,-9.39869 0.13308,-9.68334 -1.39164,-1.39163 -2.81037,2.46172 -3.50682,9.52468 -0.81361,8.25122 -0.6488,9.32446 1.43189,9.32446 0.91375,0 1.48145,-2.67961 1.94185,-9.1658 z m 92.87741,6.9158 c 1.13135,-0.87795 2.24756,-5.52342 3.75018,-15.60761 1.17667,-7.89669 2.00033,-14.48173 1.83035,-14.63344 -0.16998,-0.15171 -1.2513,0.0812 -2.40293,0.51763 -1.83125,0.69394 -2.17581,1.90221 -2.74713,9.63344 -0.35929,4.86199 -1.32421,11.31498 -2.14426,14.33998 -2.07986,7.67219 -1.83253,8.50201 1.71379,5.75 z M 123.95461,553 c 0.075,-1.33333 -0.0233,-1.33333 -0.88501,0 -0.53316,0.825 -0.93141,2.625 -0.88501,4 l 0.0844,2.5 0.80061,-2.5 c 0.44035,-1.375 0.83861,-3.175 0.88501,-4 z m -3.17889,-2.25 c 0.63635,-3.9875 1.44534,-7.99685 1.79776,-8.90966 0.44351,-1.14874 -0.0204,-1.8695 -1.50692,-2.3413 -1.18122,-0.37491 -2.4108,-0.41853 -2.73239,-0.0969 -0.84065,0.84065 -1.61227,15.24943 -0.91407,17.0689 1.19275,3.10825 2.22836,1.34263 3.35562,-5.721 z m 39.23625,-4.05902 c 0.0348,-2.29711 -0.3393,-3.5637 -0.94237,-3.19098 -0.55,0.33992 -0.94825,3.85398 -0.885,7.80902 0.10389,6.49648 0.1949,6.80466 0.94237,3.19098 0.45505,-2.2 0.8533,-5.71406 0.885,-7.80902 z m 68.94159,4.94929 c 2.24568,-7.27067 5.57738,-24.51226 4.8728,-25.21684 -0.25878,-0.25878 -1.20991,-0.18677 -2.11363,0.16002 -1.06755,0.40966 -1.64313,1.79334 -1.64313,3.95003 0,3.04256 -3.31411,21.6062 -4.59109,25.71652 -0.29903,0.9625 -0.0814,1.75 0.48352,1.75 0.56497,0 1.91115,-2.86188 2.99153,-6.35973 z m 5.57781,3.10973 c 0.27493,-1.2375 1.61676,-7.65 2.98185,-14.25 1.36509,-6.6 2.7762,-13.0125 3.13581,-14.25 0.4711,-1.62116 0.23623,-2.25 -0.84035,-2.25 -2.12601,0 -3.57725,2.08952 -3.47267,5 0.0494,1.375 -1.11532,8.06751 -2.58829,14.87224 C 230.5905,558.45778 230.72344,557 232.55055,557 c 0.81452,0 1.70589,-1.0125 1.98082,-2.25 z m -120.43791,-2 c 0.023,-3.1362 0.94339,-7.99507 2.33612,-12.33294 0.51045,-1.5899 0.0975,-2.34324 -1.74479,-3.18262 l -2.41353,-1.09968 -0.70164,8.865 c -0.3859,4.87575 -0.40472,9.34543 -0.0418,9.93262 1.28926,2.08607 2.54214,1.02035 2.56565,-2.18238 z m 125.43546,-4.75 0.57302,-5.5 -1.39128,4.18435 c -0.76521,2.30139 -1.7021,5.45139 -2.08198,7 -0.61507,2.50739 -0.52549,2.65143 0.81826,1.31565 0.82993,-0.825 1.76682,-3.975 2.08198,-7 z m -130.10053,-3.01381 c 1.37881,-7.81186 1.36557,-8.58813 -0.1666,-9.76908 -1.43681,-1.10746 -1.75863,-0.93065 -2.35331,1.29296 -0.37889,1.41672 -1.00544,5.53174 -1.39234,9.14449 -0.53854,5.02883 -0.38709,6.76415 0.64605,7.40266 0.74222,0.45872 1.44374,0.73979 1.55893,0.6246 0.11519,-0.11519 0.88346,-4.02823 1.70727,-8.69563 z m -5.69812,-12.21707 c -2.08312,-1.32542 -2.6582,-0.81954 -2.82018,2.48088 -0.63913,13.02205 -0.56793,15.30078 0.49886,15.96421 0.82198,0.51117 1.49933,-1.96689 2.32132,-8.4924 0.88089,-6.99313 0.88089,-9.39221 0,-9.95269 z M 125.49165,543.5 c 0.47666,-1.98751 0.38436,-2.6625 -0.27347,-2 -0.54612,0.55 -1.26117,2.8 -1.58901,5 -0.64733,4.34409 0.57236,2.37947 1.86248,-3 z m -27.630683,0.22209 c 0.12147,-2.90285 0.67098,-6.84035 1.22114,-8.75 0.8297,-2.87997 0.70848,-3.68695 -0.71081,-4.73201 -2.40173,-1.76846 -3.03346,-0.27979 -3.88935,9.16519 -0.5586,6.1644 -0.41413,7.98002 0.69064,8.67955 2.27934,1.44323 2.45752,1.15407 2.68838,-4.36273 z m -5.58921,-16.49327 c -1.39053,-1.07627 -1.76457,-0.94077 -2.43949,0.88371 -1.39832,3.78002 -1.10868,17.05559 0.39235,17.98328 1.06041,0.65537 1.59093,-1.11178 2.51658,-8.38269 1.0486,-8.23662 0.99884,-9.34785 -0.46944,-10.4843 z m -5.65139,11.52122 c 0.0279,-2.88752 0.24378,-7.27064 0.47969,-9.74026 0.33625,-3.5202 0.0883,-4.55582 -1.14792,-4.79388 -1.30739,-0.25178 -1.68881,1.27404 -2.23222,8.92963 -0.48974,6.8994 -0.3388,9.43432 0.59714,10.02857 2.09017,1.32711 2.25068,1.01881 2.30331,-4.42406 z M 81.113147,536.75 c 0.0239,-2.8875 0.4347,-7.275 0.91278,-9.75 0.8845,-4.57909 -0.31555,-8.04078 -2.15114,-6.20519 -1.0865,1.0865 -2.31829,17.42569 -1.47865,19.61375 1.26792,3.30415 2.67497,1.40951 2.71701,-3.65856 z m 159.639563,3.0625 c -0.31922,-0.79773 -0.55618,-0.56078 -0.60416,0.60417 -0.0434,1.05416 0.19293,1.64479 0.52522,1.3125 0.33229,-0.33229 0.36781,-1.1948 0.0789,-1.91667 z M 76.405737,528.23923 c 1.13153,-7.80362 1.12826,-9.43885 -0.0208,-10.3925 -0.75001,-0.62245 -1.52291,-0.95511 -1.71755,-0.73923 -0.19464,0.21587 -0.84402,4.61215 -1.44305,9.7695 -0.82052,7.06425 -0.79972,9.90062 0.0843,11.5 1.35726,2.45552 1.19317,2.99265 3.0971,-10.13777 z M 242.89963,532.5 c -0.0236,-1.60779 -0.1864,-1.50973 -0.83003,0.5 -1.09501,3.41917 -1.09501,6.04822 0,3.5 0.47269,-1.1 0.8462,-2.9 0.83003,-4 z M 70.903187,529.25 c 0.64879,-4.2625 1.17665,-9.1225 1.17302,-10.8 -0.006,-2.81969 -1.48917,-5.45 -3.07291,-5.45 -0.80541,0 -1.84389,19.62744 -1.17401,22.18906 0.93466,3.57412 1.91387,1.68219 3.0739,-5.93906 z m 107.484503,5.28298 c 13.87606,-1.83981 17.94394,-2.84595 43.18191,-10.68055 14.00105,-4.34633 22.45087,-7.51619 26.29315,-9.86359 3.04022,-1.8574 3.24271,-2.29905 2.63643,-5.75038 -0.36119,-2.05615 -2.15558,-8.28288 -3.98753,-13.83717 -4.82121,-14.61743 -5.60493,-20.68388 -5.25375,-40.6668 l 0.3117,-17.73592 -2.73244,7.2e-4 c -3.88209,0.001 -11.2602,-7.3074 -12.61848,-12.49929 -0.57556,-2.2 -1.35447,-8.05 -1.7309,-13 -0.59193,-7.78354 -1.27468,-10.23828 -5.05131,-18.16137 -2.40178,-5.03876 -4.38139,-9.53876 -4.39913,-10 -0.07,-1.82059 -8.15312,-11.914 -16.21079,-20.24251 -8.86961,-9.16774 -10.82066,-12.85945 -12.20622,-23.09612 -0.97314,-7.18967 -1.36529,-7.45702 -11.51363,-7.8495 l -9.0371,-0.3495 v 2.5428 c 0,4.00295 -3.37992,5.6562 -11.56358,5.6562 -9.42215,0 -14.67553,1.714 -25.72932,8.3946 -5.0639,3.06048 -10.7821,5.87097 -12.7071,6.24553 -8.04752,1.56587 -10.22723,5.09525 -14.96309,24.22827 -4.473553,18.07332 -12.674893,35.06685 -19.967463,41.37344 -3.61895,3.12966 -3.79308,3.57367 -4.41518,11.25816 -1.35106,16.68901 -3.16225,24.41336 -8.32393,35.5 -7.88849,16.94349 -9.51392,22.02071 -8.78624,27.44481 0.56831,4.23623 1.36943,5.70436 4.94506,9.06231 4.50709,4.2327 26.8877,17.98306 35.13436,21.5861 15.664503,6.84396 23.097253,9.47135 34.876483,12.32844 3.37641,0.81896 33.03993,-0.45962 43.81809,-1.88868 z m 29.93191,-10.67029 c -0.6875,-0.69448 -1.25,-1.84769 -1.25,-2.56269 0,-0.715 -0.70156,-1.3 -1.55902,-1.3 -0.85746,0 -1.28408,-0.44485 -0.94806,-0.98855 0.35034,-0.56686 -0.0511,-0.7345 -0.94098,-0.39301 -0.85357,0.32755 -1.55194,0.0974 -1.55194,-0.51145 0,-0.60885 0.47656,-1.10699 1.05902,-1.10699 0.58246,0 0.76194,-0.48068 0.39885,-1.06817 -0.3631,-0.5875 -1.33976,-0.8074 -2.17036,-0.48866 -1.05038,0.40306 -1.33361,0.11935 -0.93024,-0.93183 0.70369,-1.83379 -0.4761,-1.96963 -2.26966,-0.26134 -1.07325,1.02222 -1.17452,0.79588 -0.55576,-1.24216 0.70419,-2.31941 0.62969,-2.38872 -1.07484,-1 -1.6466,1.34154 -1.76848,1.32387 -1.20738,-0.17508 0.98769,-2.63861 -2.24444,-3.18626 -4.77486,-0.80905 l -2.21432,2.08024 -0.54705,-2.0919 c -0.45103,-1.72474 -1.04432,-1.97448 -3.38022,-1.42287 -2.33115,0.55049 -2.61168,0.43352 -1.58318,-0.66007 1.80125,-1.91525 1.54165,-2.92911 -0.75,-2.92911 -1.12981,0 -2,-0.66667 -2,-1.53222 0,-0.84273 -1.0125,-1.9392 -2.25,-2.43662 -1.2375,-0.49741 -1.8574,-0.93291 -1.37756,-0.96777 0.47985,-0.0349 0.3508,-0.69193 -0.28676,-1.46016 -0.68081,-0.82032 -2.07261,-1.16145 -3.37245,-0.82658 -1.94658,0.50148 -2.05226,0.37385 -0.87714,-1.05943 1.49859,-1.8278 0.78947,-3.71722 -1.39511,-3.71722 -0.79254,0 -1.32848,-0.54603 -1.19098,-1.2134 0.1375,-0.66737 -0.76868,-1.67674 -2.01373,-2.24304 -1.24505,-0.5663 -2.0522,-1.58086 -1.79367,-2.25457 0.60717,-1.58228 -1.40151,-2.82837 -3.89578,-2.41675 -1.69592,0.27986 -1.77593,0.10875 -0.6075,-1.29913 1.49813,-1.80513 1.53666,-1.7394 -1.93932,-3.30892 l -2.5,-1.12883 2.75,-0.0677 c 2.96652,-0.073 3.45006,-0.96762 1.55,-2.86768 -0.93333,-0.93333 -0.74815,-1.2 0.83333,-1.2 2.81058,0 3.5774,-1.035 2.10799,-2.84522 -1.03526,-1.27539 -0.96296,-1.42503 0.43557,-0.90145 1.89915,0.711 4.33247,-1.62015 3.35018,-3.20953 -0.35481,-0.57409 0.0868,-1.0438 0.9813,-1.0438 1.14789,0 1.44738,-0.56404 1.01793,-1.91712 -0.50291,-1.58454 -0.22881,-1.81785 1.57997,-1.34484 1.96187,0.51304 2.11737,0.28915 1.502,-2.16267 -0.60849,-2.42441 -0.4549,-2.66147 1.35265,-2.08777 1.6862,0.53518 2.03908,0.2083 2.03908,-1.88883 0,-1.95247 0.38213,-2.38936 1.66074,-1.89871 1.33262,0.51137 1.54358,0.18926 1.06775,-1.6303 -0.49916,-1.90881 -0.26953,-2.183 1.4514,-1.73297 1.81574,0.47483 1.976,0.19265 1.43286,-2.52302 -0.53454,-2.6727 -0.41742,-2.89655 0.93024,-1.77809 1.07188,0.88958 1.86019,0.96114 2.58652,0.23481 0.72634,-0.72634 0.71342,-1.24953 -0.0424,-1.71664 -0.5979,-0.36952 -1.08711,-1.15041 -1.08711,-1.73529 0,-0.62813 0.68499,-0.50164 1.67341,0.30902 1.49347,1.22485 1.60946,1.12434 1.07868,-0.93471 -0.50146,-1.94529 -0.36388,-2.11555 0.8772,-1.08555 1.2082,1.00272 1.57336,0.83378 2.03796,-0.94285 0.31131,-1.19045 1.21509,-2.16445 2.0084,-2.16445 0.79331,0 1.18937,0.40939 0.88012,0.90976 -1.09871,1.77776 0.66904,4.26471 2.66113,3.74377 1.34687,-0.35221 1.78203,-0.0931 1.42153,0.84632 -0.69751,1.8177 1.9341,3.87816 3.96018,3.10069 1.1396,-0.43731 1.45944,-0.19419 1.07217,0.81501 -0.78225,2.0385 1.6395,3.87417 3.13635,2.37732 1.65145,-1.65145 2.73383,-0.14961 1.21293,1.68296 -1.87596,2.2604 0.45181,4.87718 3.08495,3.46797 1.9842,-1.06191 2.7944,0.3823 0.87868,1.56628 -1.63246,1.00892 0.009,2.62714 2.01759,1.98951 1.4614,-0.46383 1.72477,-0.16801 1.29921,1.45933 -0.38051,1.45508 -0.0527,2.04108 1.1419,2.04108 0.9216,0 1.42904,0.39901 1.12764,0.88669 -0.75268,1.21787 2.09501,3.43836 3.38617,2.64038 0.57409,-0.35481 1.0438,-0.1951 1.0438,0.3549 0,0.55 -0.45734,1.28265 -1.01631,1.62811 -0.55897,0.34546 -0.77931,1.0116 -0.48964,1.4803 0.28967,0.46869 0.6838,2.20165 0.87584,3.851 0.26869,2.30773 -0.10257,3.11696 -1.61098,3.51142 -1.07808,0.28192 -1.69245,0.94572 -1.36527,1.47511 0.32718,0.52938 -0.0775,1.22055 -0.89938,1.53592 -2.0024,0.76839 -1.91349,3.63617 0.11273,3.63617 1.03517,0 1.397,0.54722 1.01686,1.53785 -0.77526,2.0203 1.96926,3.04473 3.88888,1.45158 0.94352,-0.78305 1.48727,-0.84553 1.48727,-0.17089 0,0.58488 -0.45734,1.34608 -1.01631,1.69154 -1.49994,0.92701 -0.16551,2.49692 1.55968,1.83491 1.08844,-0.41768 1.29963,-0.0994 0.7993,1.20441 -0.54837,1.42904 -0.27468,1.66608 1.41384,1.22452 1.56308,-0.40875 1.94948,-0.17133 1.52433,0.93661 -0.34437,0.89741 0.5563,2.38185 2.27822,3.75487 2.816,2.24539 2.82318,2.27851 0.64434,2.97004 -1.21187,0.38464 -2.2034,1.15115 -2.2034,1.70338 0,0.55222 -0.5625,1.63128 -1.25,2.3979 -2.92151,3.25776 -3.75,4.43181 -3.75,5.31408 0,0.51437 -0.675,1.19424 -1.5,1.51083 -0.825,0.31658 -1.5,1.26472 -1.5,2.10699 0,0.84226 -0.45,1.53138 -1,1.53138 -0.55,0 -1,0.675 -1,1.5 0,0.825 -0.675,1.5 -1.5,1.5 -0.825,0 -1.5,0.765 -1.5,1.7 0,1.32222 -0.26667,1.43333 -1.2,0.5 -1.73672,-1.73672 -2.61723,-1.48186 -2.98045,0.86269 -0.25678,1.6575 -0.5651,1.81465 -1.56955,0.8 z m 4.75,-7.42171 c 0,-0.85746 0.48029,-1.26218 1.06731,-0.89938 0.5871,0.36285 1.31313,-0.28042 1.61369,-1.42974 0.30051,-1.14915 0.91282,-1.86289 1.36069,-1.58609 0.44788,0.2768 1.10204,-0.40326 1.4537,-1.51125 0.35166,-1.10799 1.14906,-2.01452 1.772,-2.01452 0.80604,0 0.78661,-0.346 -0.0674,-1.2 -1.83669,-1.83669 -1.42942,-3.00759 0.8,-2.3 1.41932,0.45047 2,0.1797 2,-0.93261 0,-0.86207 0.7875,-1.60292 1.75,-1.64634 1.04544,-0.0472 1.24674,-0.28201 0.5,-0.58333 -0.6875,-0.27741 -1.25,-1.19003 -1.25,-2.02804 0,-0.99388 -0.56345,-1.30744 -1.62052,-0.90181 -1.25349,0.48101 -1.49875,0.15621 -1.08287,-1.43409 0.4534,-1.7338 0.1993,-1.94856 -1.62164,-1.37062 -1.9865,0.63049 -2.03989,0.53989 -0.66713,-1.13233 1.37568,-1.67577 1.31332,-1.77156 -0.79892,-1.22712 -1.91512,0.49363 -2.19124,0.27594 -1.68262,-1.32659 0.63446,-1.999 0.518,-2.05199 -4.7763,-2.17357 -2.71445,-0.0623 -3.23683,0.28301 -3.17009,2.09569 0.0532,1.44391 -0.44888,2.08504 -1.5,1.91554 -1.01245,-0.16327 -1.47569,0.36803 -1.28974,1.47925 0.20167,1.20514 -0.17959,1.55376 -1.25,1.14301 -1.09476,-0.4201 -1.54017,0.0354 -1.54017,1.57499 0,1.38587 -0.41691,1.90834 -1.15752,1.45062 -0.79885,-0.49372 -0.97639,-0.0227 -0.57297,1.51997 0.43068,1.64691 0.21733,2.09444 -0.81045,1.70004 -0.76725,-0.29442 -1.63722,-0.1434 -1.93327,0.3356 -0.29604,0.47901 0.0271,1.09883 0.71798,1.37738 0.69093,0.27856 0.24373,0.54199 -0.99377,0.58541 -3.21024,0.11264 -2.78045,2.05245 0.75,3.38505 1.65,0.62281 3,1.4696 3,1.88175 0,0.41216 0.63016,0.50757 1.40035,0.21202 0.90884,-0.34876 1.34757,0.10099 1.25,1.28138 -0.0827,1.00031 0.41215,1.70625 1.09965,1.56875 0.6875,-0.1375 1.25,0.2 1.25,0.75 0,0.55 0.9,1 2,1 1.1,0 2,0.45 2,1 0,0.55 0.45,1 1,1 0.55,0 1,-0.70156 1,-1.55902 z m -19,-13.43528 c 0,-1.35733 0.47471,-1.76077 1.57502,-1.33854 1.14173,0.43813 1.4856,0.0856 1.25,-1.28138 -0.21047,-1.22114 0.20366,-1.80584 1.17498,-1.65897 1.40524,0.21249 6,-5.61198 6,-7.6058 0,-0.49887 0.675,-1.16605 1.5,-1.48264 0.825,-0.31658 1.5,-1.26472 1.5,-2.10699 0,-0.84226 0.45806,-1.41888 1.0179,-1.28138 0.55985,0.1375 2.02235,-1.55 3.25,-3.75 1.22766,-2.2 2.58838,-4.15626 3.02384,-4.34725 0.43545,-0.19098 0.21045,-1.06274 -0.5,-1.93723 -1.10273,-1.35734 -1.03568,-1.49402 0.45826,-0.93414 0.9625,0.36072 1.75,0.21997 1.75,-0.31276 0,-0.53274 -0.49814,-0.96862 -1.10699,-0.96862 -0.60884,0 -0.83199,-0.71664 -0.49587,-1.59254 0.40767,-1.06239 -0.0561,-1.76701 -1.39301,-2.11663 -1.11058,-0.29042 -2.00413,-1.3638 -2.00413,-2.40746 0,-1.03913 -0.69885,-1.88337 -1.55902,-1.88337 -0.85746,0 -1.29799,-0.42234 -0.97896,-0.93854 0.31902,-0.5162 -0.0387,-1.3037 -0.795,-1.75 -0.75628,-0.4463 -1.90658,-1.82396 -2.55622,-3.06146 -0.64964,-1.2375 -1.86689,-2.25 -2.705,-2.25 -0.83811,0 -1.26475,-0.41921 -0.94809,-0.93158 0.31666,-0.51237 -0.26036,-1.52487 -1.28228,-2.25 -1.02192,-0.72513 -2.38631,-2.31416 -3.03199,-3.53118 -0.78403,-1.47782 -1.72475,-2.0014 -2.8323,-1.57639 -1.25196,0.48042 -1.50097,0.22623 -1.01613,-1.03724 0.42081,-1.09662 0.13591,-1.67361 -0.82639,-1.67361 -0.80774,0 -1.46862,0.64844 -1.46862,1.44098 0,0.79254 -0.52647,1.76636 -1.16994,2.16405 -0.78665,0.48618 -0.96074,0.1779 -0.53138,-0.94099 1.05367,-2.74581 -0.8516,-1.87576 -2.37807,1.08596 -0.77954,1.5125 -2.00031,3.1209 -2.71281,3.57422 -0.7125,0.45332 -1.03548,1.64336 -0.71771,2.64454 0.41947,1.32166 0.089,1.78073 -1.20617,1.67578 -1.13909,-0.0923 -1.68667,0.44901 -1.51487,1.49752 0.17102,1.0438 -0.37549,1.59031 -1.5,1.5 -1.24251,-0.0998 -1.70429,0.49295 -1.55148,1.99142 0.15044,1.47528 -0.31233,2.09231 -1.5,2 -1.18768,-0.0923 -1.65045,0.52472 -1.5,2 0.15044,1.47528 -0.31233,2.09231 -1.5,2 -1.15171,-0.0895 -1.61317,0.47612 -1.40069,1.71687 0.20762,1.21235 -0.0895,1.59918 -0.8618,1.12189 -1.72416,-1.06559 -3.06866,1.68597 -1.65572,3.38847 0.98585,1.18788 0.80822,1.30821 -1.0572,0.71615 -2.05437,-0.65203 -2.46932,-0.25044 -2.15256,2.08325 0.0493,0.36305 -0.62572,1.06041 -1.5,1.54969 -1.95663,1.09498 -2.08193,2.7902 -0.20623,2.7902 0.76085,0 1.63401,0.95845 1.94034,2.12988 0.38085,1.45636 1.06661,1.93432 2.16857,1.51146 0.97422,-0.37385 1.35926,-0.21014 0.97357,0.41392 -0.9158,1.48179 1.41429,3.92796 3.1186,3.27396 1.02118,-0.39186 1.25229,-0.0674 0.79701,1.11909 -0.44416,1.15747 -0.0151,1.83474 1.39621,2.2038 1.12058,0.29304 2.27245,1.43154 2.5597,2.53 0.4111,1.57202 1.01456,1.84097 2.83461,1.2633 1.98408,-0.62972 2.13425,-0.51932 1.05785,0.77767 -1.01234,1.21979 -0.98704,1.73353 0.13109,2.66149 0.76207,0.63247 2.08479,0.88163 2.93937,0.55369 1.20726,-0.46327 1.42332,-0.0974 0.96882,1.64068 -0.50118,1.91652 -0.27,2.15455 1.61404,1.66187 1.84234,-0.48178 2.0966,-0.25236 1.56756,1.41448 -0.60846,1.91709 -0.51892,1.93134 2.45892,0.39144 1.8451,-0.95414 3.09037,-2.381 3.09037,-3.54103 z m 19,-14.5057 c 0,-0.825 -0.45,-1.5 -1,-1.5 -0.55,0 -1,0.675 -1,1.5 0,0.825 0.45,1.5 1,1.5 0.55,0 1,-0.675 1,-1.5 z M 61.578827,519.872 c -0.009,-12.54925 -0.1097,-13.19471 -2.28815,-14.64118 -2.22813,-1.47945 -2.25647,-1.45411 -1.27142,1.13678 0.5551,1.46003 0.79204,6.79959 0.52765,11.89118 -0.52702,10.14947 0.0528,14.74122 1.86137,14.74122 0.84692,0 1.17717,-3.70385 1.17055,-13.128 z m 4.43192,2.36509 c 1.01201,-8.83264 0.96864,-10.47016 -0.31121,-11.75 C 64.881647,509.66919 64.000107,509 63.740567,509 c -0.73161,0 -0.79374,20.51648 -0.0679,22.40809 0.35419,0.92299 0.76057,1.54626 0.90307,1.38504 0.14251,-0.16122 0.78825,-4.91144 1.43498,-10.55604 z m 180.741963,6.57541 c -0.31922,-0.79773 -0.55618,-0.56078 -0.60416,0.60417 -0.0434,1.05416 0.19293,1.64479 0.52522,1.3125 0.33229,-0.33229 0.36781,-1.1948 0.0789,-1.91667 z m -1.78279,-6.0625 c 0.0548,-0.9625 -0.35032,-1.75 -0.90032,-1.75 -0.55,0 -0.95514,1.9125 -0.90032,4.25 0.0847,3.61042 0.22017,3.87378 0.90032,1.75 0.44035,-1.375 0.8455,-3.2875 0.90032,-4.25 z m 4.02939,-1.5 c 0.0387,-1.2375 -0.37971,-2.25 -0.92971,-2.25 -0.55,0 -0.96837,1.9125 -0.92971,4.25 0.0544,3.29154 0.2641,3.79896 0.92971,2.25 0.47269,-1.1 0.89106,-3.0125 0.92971,-4.25 z m 28.74355,-86.63895 c 1.5547,-1.31393 4.0488,-4.81599 5.5425,-7.78236 2.9702,-5.89856 7.2858,-21.42457 8.1523,-29.32869 0.5296,-4.83092 0.4331,-5.07325 -2.8529,-7.16608 l -3.4011,-2.16607 0.5823,4.91607 c 0.612,5.16775 -0.9562,7.00145 -2.0978,2.45293 C 282.09536,389.27035 273.69996,378 270.60476,378 c -1.339,0 -0.3491,4.00901 1.2148,4.9199 1.6342,0.95179 1.6254,1.0213 -0.1316,1.04969 -1.6149,0.0261 -1.8056,0.5975 -1.3452,4.03041 0.2951,2.2 0.1293,4 -0.3683,4 -0.4977,0 -0.9049,1.35 -0.9049,3 0,1.65425 0.5344,3 1.1912,3 0.6551,0 0.3642,0.60466 -0.6465,1.34368 -1.3059,0.95492 -1.6842,2.14589 -1.3075,4.11642 0.3703,1.93752 -0.061,3.36341 -1.4309,4.73364 -1.0785,1.07849 -1.7062,2.62468 -1.3949,3.43598 0.3114,0.81129 -0.1412,2.55446 -1.0056,3.87371 -0.9187,1.40212 -1.3014,3.24989 -0.9213,4.44761 0.4704,1.48206 0.208,2.04896 -0.9485,2.04896 -2.22094,0 -3.03431,2.6946 -1.40568,4.65698 1.19968,1.44553 1.09848,1.55039 -0.88812,0.91988 -5.26564,-1.67125 -0.67527,5.45654 5.1458,7.99029 4.778,2.07973 9.0903,1.74413 12.2853,-0.9561 z m -29.67326,-4.07098 c 0,-0.25296 -2.25888,-2.57284 -5.01973,-5.1553 -2.76086,-2.58245 -7.35451,-7.75684 -10.20811,-11.49863 -2.85361,-3.74179 -5.34207,-6.64956 -5.52992,-6.46172 -0.18784,0.18785 0.18251,3.4317 0.82302,7.20856 1.97922,11.67085 6.24918,16.10434 15.68474,16.28545 2.3375,0.0449 4.25,-0.1254 4.25,-0.37836 z m 8.02006,-5.0159 C 255.02751,424.24436 255.14783,424 256.84017,424 c 2.44131,0 3.69603,-2.73286 2.12424,-4.62675 C 258.07619,418.30302 258.18982,418 259.47938,418 c 1.94696,0 3.79788,-4.05807 2.48578,-5.45 -1.31376,-1.39364 -1.09253,-2.55 0.4878,-2.55 1.6446,0 3.022,-4.34409 1.5381,-4.851 -0.5651,-0.19305 -0.319,-0.86904 0.5469,-1.50219 1.1185,-0.81791 1.7072,-3.41263 2.0332,-8.96251 0.2524,-4.29622 0.7213,-8.23591 1.042,-8.75487 0.3208,-0.51895 -0.1696,-1.23242 -1.0896,-1.58548 -1.4555,-0.55851 -1.4772,-0.75146 -0.1669,-1.48473 2.4995,-1.39878 0.08,-9.85922 -2.8193,-9.85922 -0.7779,0 -3.45152,-0.98978 -5.9415,-2.19951 -3.428,-1.66544 -4.80821,-1.91854 -5.68437,-1.04238 -0.87617,0.87617 -0.87093,1.50197 0.0216,2.57737 0.94386,1.13728 0.77522,1.52575 -0.84651,1.94984 -1.35494,0.35432 -1.82295,1.05667 -1.41409,2.12214 0.37227,0.97012 0.0808,1.60305 -0.74587,1.61944 -0.74635,0.0148 -2.41837,1.74898 -3.71561,3.85375 -1.29724,2.10477 -3.88474,5.49271 -5.75,7.52876 -1.86526,2.03604 -3.39138,4.33773 -3.39138,5.11486 0,0.86914 -0.60028,1.18261 -1.55966,0.81446 -1.02604,-0.39373 -1.73982,0.0905 -2.08625,1.41521 -0.36502,1.39584 -1.11379,1.86015 -2.44034,1.51325 -1.05256,-0.27525 -1.91375,-0.0861 -1.91375,0.4204 0,4.23534 20.31625,26.79722 25.35838,28.16134 3.75102,1.01482 4.3542,0.7146 2.66168,-1.32476 z M 53.587467,416.33425 c 2.19017,-1.46616 6.58943,-4.90284 9.77613,-7.63706 l 5.79399,-4.97131 -2.79399,-1.7293 c -1.91557,-1.18562 -3.187,-1.41843 -4.044,-0.7405 -0.90942,0.7194 -1.25,0.46502 -1.25,-0.93364 0,-2.43569 -1.85906,-4.32244 -4.25902,-4.32244 -1.05816,0 -1.57599,-0.45794 -1.20204,-1.06301 0.85514,-1.38365 -2.49134,-5.08444 -3.84253,-4.24936 -0.62059,0.38355 -0.79703,0.017 -0.43983,-0.91389 0.32951,-0.85869 -0.26576,-2.47985 -1.33006,-3.62223 -1.05958,-1.13734 -1.92652,-2.51553 -1.92652,-3.06264 0,-2.37321 -2.45174,-6.1295 -3.69049,-5.65415 -0.95646,0.36703 -1.17457,-0.12419 -0.77031,-1.73487 0.31016,-1.23577 0.1767,-3.29362 -0.29657,-4.57299 -0.85437,-2.30959 -0.88362,-2.29978 -4.11321,1.37852 -1.789,2.03756 -3.48316,3.47421 -3.76481,3.19256 -1.03108,-1.03108 2.68394,-6.56666 7.70992,-11.48818 l 5.15782,-5.05061 -4.36618,0.46526 c -2.40139,0.2559 -6.2212,0.68905 -8.48847,0.96255 l -4.12229,0.49728 -1.27518,6.00891 c -2.01968,9.51717 -0.72331,22.44588 3.42114,34.11905 3.88196,10.93382 5.77403,13.95852 10.09863,16.14389 4.22012,2.13257 5.50092,2.00193 10.01787,-1.02184 z m 22.71612,1.76689 c 2.67328,-1.01638 10.62637,-12.35448 14.24857,-20.31308 2.01904,-4.43619 3.95304,-10.44958 8.13304,-25.28806 0.30987,-1.1 -2.58789,2.725 -6.43947,8.5 -5.63982,8.45626 -19.20744,25.67555 -22.06208,28 -4.5174,3.67838 -3.08886,7.65358 3.57085,9.93661 0.1017,0.0349 1.24879,-0.3411 2.54909,-0.83547 z M 75.673487,396.75 c 2.21116,-2.3375 5.2733,-5.96443 6.80474,-8.05984 2.50484,-3.42728 2.66268,-4.1038 1.57185,-6.73729 -0.66693,-1.6101 -1.58371,-2.69809 -2.0373,-2.41775 -0.45359,0.28033 -0.5802,-0.99707 -0.28134,-2.83868 0.37618,-2.31818 0.0479,-3.84382 -1.06691,-4.95865 -0.98757,-0.98757 -1.2206,-1.8511 -0.6026,-2.23305 1.39835,-0.86423 1.27061,-6.50474 -0.14732,-6.50474 -0.69104,0 -0.4902,-0.73458 0.5,-1.82874 1.94641,-2.15076 2.1978,-6.79632 0.40499,-7.48421 -0.84943,-0.32593 -0.56891,-0.98375 0.87537,-2.05275 2.42106,-1.79198 3.79237,-5.61766 2.03101,-5.6661 -0.63601,-0.0175 -0.36888,-0.6296 0.59362,-1.36025 2.73121,-2.07328 2.25953,-4.21102 -0.5,-2.26607 -1.2375,0.8722 -5.625,3.46191 -9.75,5.7549 -10.21138,5.67629 -23.9235,14.56774 -27.17456,17.62101 -2.60398,2.44555 -2.68558,3.20552 -0.83568,7.78221 0.44462,1.1 1.34587,3.43224 2.00278,5.18275 0.8756,2.33326 1.63652,3.01727 2.85092,2.56277 1.33862,-0.50099 1.43251,-0.3436 0.48922,0.82008 -1.44801,1.78636 0.86306,5.54949 2.70792,4.40931 0.81137,-0.50146 0.97928,-0.11292 0.54396,1.25868 -0.75311,2.37282 1.67752,4.76355 3.95464,3.88974 0.95105,-0.36495 1.3098,-0.18803 0.91478,0.45114 -1.02291,1.6551 2.61734,5.03767 4.70751,4.37428 1.28808,-0.40883 1.66834,-0.16887 1.29094,0.81463 -0.49732,1.29599 2.567,3.50507 5.08936,3.66894 0.57299,0.0372 2.85093,-1.84482 5.0621,-4.18232 z m 152.427913,-2 c 0.0291,-2.06091 0.14131,-2.10585 1.3348,-0.5348 0.99182,1.30559 1.58126,1.43694 2.4682,0.55 0.64086,-0.64086 1.1652,-1.7002 1.1652,-2.35409 0,-0.65389 0.7875,-1.12639 1.75,-1.05 1.21951,0.0968 1.72452,-0.5563 1.66595,-2.15442 -0.0549,-1.49861 0.36906,-2.11943 1.22355,-1.79153 1.7332,0.66509 3.23704,-2.1629 2.55632,-4.80719 -0.4694,-1.82343 -0.32878,-1.93269 1.04174,-0.80941 0.97904,0.80242 1.81567,0.92433 2.18972,0.3191 0.33294,-0.53871 0.148,-1.26212 -0.41097,-1.60758 -1.72917,-1.06868 -1.11932,-2.34978 0.87083,-1.82934 2.45024,0.64075 3.64454,-1.33518 2.00273,-3.31344 -1.0883,-1.31132 -0.98785,-1.49382 0.66391,-1.2062 1.35171,0.23538 1.90379,-0.19567 1.80733,-1.4111 -0.0764,-0.9625 0.21297,-1.75 0.64301,-1.75 0.43005,0 1.0403,-0.67338 1.35612,-1.49639 0.39517,-1.0298 -0.7244,-2.15891 -3.59049,-3.62108 l -4.16472,-2.12467 -2.1568,2.50743 c -1.18625,1.37909 -3.09942,2.80661 -4.25149,3.17227 -1.37826,0.43744 -1.88939,1.19982 -1.49444,2.22903 0.47134,1.2283 0.13686,1.41714 -1.55756,0.87935 -1.66751,-0.52925 -2.34612,-0.17579 -2.98659,1.55557 -0.52077,1.40777 -1.08772,1.82147 -1.52549,1.11313 -0.90351,-1.46191 -3.63266,-0.41587 -3.63266,1.39235 0,1.73188 -1.68333,1.83868 -2.25405,0.14301 -0.33281,-0.98884 -0.73127,-0.99381 -1.90712,-0.0238 -1.07169,0.88407 -1.79018,0.92244 -2.57512,0.1375 -0.59879,-0.59879 -1.53325,-0.92559 -2.07658,-0.72621 -1.14486,0.42011 9.53807,20.8625 10.90248,20.8625 0.50071,0 0.9247,-1.0125 0.94219,-2.25 z m 67.76486,-16.02569 c 0.1898,-5.62337 -0.091,-12.02431 -0.6253,-14.22431 -0.8024,-3.30718 -0.9879,-1.86685 -1.0709,8.31574 -0.055,6.77366 -0.5713,13.19546 -1.1467,14.27067 -1.2867,2.40416 -0.2568,4.61664 1.3848,2.97503 0.6203,-0.6203 1.2656,-5.63791 1.4581,-11.33713 z m -4.4037,7.6939 c 1.0292,-2.68205 0.6851,-26.25192 -0.393,-26.91821 -0.647,-0.39992 -1,3.96994 -1,12.38197 0,7.72707 -0.4122,13.25477 -1.0163,13.62811 -1.0986,0.67897 -0.3943,2.48992 0.9684,2.48992 0.4587,0 1.1071,-0.7118 1.4409,-1.58179 z m -3.4633,-16.33488 c 0.039,-6.82916 -0.1002,-12.22916 -0.3086,-12 -0.2085,0.22917 -0.6543,5.91675 -0.9908,12.63908 -0.3365,6.72232 -0.6693,12.57232 -0.7395,13 -0.3404,2.07395 0.3455,2.55479 1.1092,0.77759 0.4727,-1.1 0.8911,-7.5875 0.9297,-14.41667 z m -3.56,11.66667 c 0.9936,-3.70737 0.6474,-4.40388 -0.8697,-1.75 -1.6725,2.92581 -1.8381,4 -0.6166,4 0.4859,0 1.1547,-1.0125 1.4863,-2.25 z m -189.463153,-11 c 9.605033,-14.62834 11.059103,-16.17718 17.291193,-18.41821 4.0815,-1.46768 4.8023,-2.12166 4.8023,-4.35713 0,-3.17422 4.08086,-15.16224 5.91282,-17.36962 0.72101,-0.86876 1.06673,-2.21596 0.76825,-2.99377 -0.33357,-0.86928 0.26466,-1.62532 1.55258,-1.96212 1.81739,-0.47526 1.91481,-0.76535 0.73458,-2.18743 -1.15546,-1.39225 -1.14256,-1.60002 0.0856,-1.37761 2.14338,0.38815 6.94622,-2.201 6.94622,-3.74463 0,-1.81917 -1.95866,-1.68687 -4.13096,0.27904 -3.61204,3.26885 -11.79554,-1.47611 -11.97113,-6.9411 l -0.10209,-3.17742 -1.05644,3.29837 c -0.80943,2.52714 -0.63848,5.57635 0.73112,13.04087 1.77222,9.65887 1.76969,9.78078 -0.29563,14.20163 l -2.0832,4.45913 0.0397,-5.5 c 0.0218,-3.025 -0.27615,-7.36112 -0.66219,-9.63582 l -0.70188,-4.13582 -5.47568,-0.45408 c -3.01163,-0.24975 -5.83396,-1.03379 -6.27185,-1.7423 -0.85922,-1.39016 -3.019823,-0.58037 -3.019823,1.13181 0,1.84115 -5.06358,11.24955 -7.44662,13.83621 -1.26675,1.375 -2.60463,3.85 -2.97304,5.5 -1.21059,5.42174 -2.37829,9.94901 -3.41754,13.25 -0.87519,2.7799 -0.78016,3.2544 0.65701,3.28041 1.53011,0.0277 1.52387,0.12145 -0.0698,1.04969 -2.02657,1.18037 -2.43976,6.91145 -0.5,6.93521 0.91968,0.0113 0.89144,0.24251 -0.10689,0.87508 -0.94363,0.59791 -1.14466,1.82607 -0.66005,4.03248 0.56819,2.58694 0.95718,2.95665 2.10689,2.00248 1.88934,-1.56801 1.80211,-0.0161 -0.11837,2.10606 -1.1748,1.29813 -1.29621,2.29965 -0.52475,4.32874 0.55202,1.45192 1.20901,2.63985 1.45997,2.63985 0.25097,0 4.07584,-5.5125 8.49971,-12.25 z m 187.586353,-1.64982 c 0.4654,-6.50345 0.3412,-10.54979 -0.3612,-11.75801 -0.8188,-1.40851 -1.078,0.30594 -1.1013,7.28283 -0.017,5.01875 -0.3256,10.60122 -0.6865,12.40549 -0.4355,2.17788 -0.3039,3.06286 0.3916,2.63301 0.5762,-0.35612 1.367,-5.10962 1.7574,-10.56332 z m -3.6276,-2.85018 -0.1347,-11.75 -0.8621,9 c -0.4742,4.95 -1.2813,9.72975 -1.7936,10.62167 -0.9169,1.59619 0.3336,3.87833 2.1251,3.87833 0.44,0 0.7394,-5.2875 0.6653,-11.75 z m -57.86526,7.51595 c 0,-0.4954 0.85258,-0.63013 1.89463,-0.29939 1.07373,0.34079 2.53861,-0.0427 3.38095,-0.885 0.81748,-0.81748 1.75402,-1.21863 2.08121,-0.89144 1.0967,1.0967 3.53142,-1.81611 2.93659,-3.51323 -0.46802,-1.33533 -0.323,-1.43195 0.71201,-0.47432 1.02257,0.94611 1.85087,0.76905 3.88408,-0.83027 3.36739,-2.64878 3.3044,-4.65885 -0.26873,-8.57545 -2.16103,-2.36875 -3.40725,-5.36439 -4.78411,-11.5 -3.24349,-14.45369 -3.83649,-17.95458 -3.84221,-22.68334 -0.008,-6.83351 -1.59875,-11.37058 -5.14275,-14.67036 -1.73855,-1.61873 -2.85906,-2.41174 -2.49002,-1.76225 0.36904,0.6495 0.18296,1.48252 -0.41351,1.85115 -0.59647,0.36864 -0.82371,1.34984 -0.50497,2.18044 0.40306,1.05038 0.11935,1.33361 -0.93183,0.93024 -0.83124,-0.31898 -1.51134,-0.11753 -1.51134,0.44767 0,0.5652 -0.45,0.74952 -1,0.4096 -1.38877,-0.85831 -1.25645,0.84355 0.17705,2.27705 0.90273,0.90273 0.32758,1.53198 -2.46788,2.7 -2.00471,0.83762 -4.16187,1.52295 -4.79368,1.52295 -0.7316,0 -0.89509,0.81705 -0.45023,2.25 0.38419,1.2375 0.82135,3.15 0.97146,4.25 0.23077,1.69097 0.95206,1.96966 4.66811,1.80362 4.10654,-0.18349 4.26383,-0.0984 2.39517,1.2963 -1.1,0.82097 -3.93328,1.9805 -6.29617,2.57672 -3.52934,0.89055 -4.65546,1.78831 -6.30909,5.02969 -1.10711,2.1701 -1.87383,5.14895 -1.70383,6.61966 0.27577,2.38578 0.70846,2.66214 4.01419,2.56393 4.46694,-0.13272 9.7949,-2.19303 9.7949,-3.78767 0,-0.7517 -1.48423,-1.0228 -4.25,-0.77625 -5.97626,0.53273 -3.52858,-1.8712 2.60973,-2.56308 l 4.53365,-0.51101 -0.73325,2.87405 c -1.21112,4.74703 -12.27907,9.21663 -17.28675,6.98096 -1.20799,-0.53931 -1.79196,-0.0675 -2.26905,1.83344 -0.35334,1.4078 -1.08386,2.55964 -1.62338,2.55964 -2.17466,0 -0.5486,2.11247 8.98503,11.67279 8.24962,8.27272 10.4885,9.99388 13,9.99388 1.66871,0 3.03402,-0.40533 3.03402,-0.90072 z m 53.52546,-1.88064 c 0.2546,-1.31192 0.7551,-5.87281 1.1124,-10.13531 0.569,-6.78697 0.4454,-7.75 -0.9941,-7.75 -1.1805,0 -1.6538,0.91588 -1.6794,3.25 -0.02,1.7875 -0.6724,5.91662 -1.4507,9.17583 -1.2923,5.41175 -1.2676,6.0336 0.2841,7.16824 2.0074,1.46782 2.1258,1.3936 2.7277,-1.70876 z m -3.3681,-14.37553 c 0.2214,-2.92534 -0.099,-4.06751 -1.202,-4.27987 -2.0321,-0.39133 -4.5952,16.75663 -2.6815,17.93938 1.3041,0.80592 3.3272,-6.31031 3.8835,-13.65951 z m -6.7842,9.74022 c 0.4906,-1.69003 1.9937,-13.25848 1.8483,-14.225 -0.039,-0.26125 -0.5196,-0.62439 -1.0674,-0.80698 -0.5477,-0.18258 -1.2845,2.28117 -1.6373,5.475 -0.3528,3.19384 -0.8741,7.04448 -1.1585,8.55698 -0.5631,2.99445 1.1843,3.86167 2.0149,1 z m -4.03493,-2.5 c 1.30543,-7.56528 1.85293,-12.75 1.34623,-12.75 -0.29847,0 -1.0622,2.5875 -1.69718,5.75 -0.63499,3.1625 -1.39067,6.7625 -1.67931,8 -0.28863,1.2375 -0.0761,2.25 0.47233,2.25 0.54842,0 1.24949,-1.4625 1.55793,-3.25 z m -2.69204,-4.81285 C 259.2399,353.40731 259.33251,352 258.23808,352 c -0.72964,0 -1.55783,2.54674 -3.86349,11.88051 -0.42257,1.71065 -0.21376,2.25575 0.74204,1.93715 0.73155,-0.24385 1.90117,-2.89008 2.59916,-5.88051 z m -230.646193,3.12187 c 0,-1.17986 -1.95035,-2.442 -2.66667,-1.72569 -0.71631,0.71632 0.54583,2.66667 1.72569,2.66667 0.51754,0 0.94098,-0.42344 0.94098,-0.94098 z M 250.53216,361.25 c 0.37209,-0.9625 1.61211,-6.025 2.75559,-11.25 1.78201,-8.14266 2.14411,-13.95428 2.53428,-40.67538 0.45836,-31.39001 0.0383,-38.47889 -3.4221,-57.75037 -1.436,-7.99731 -1.97861,-9.28162 -5.21652,-12.34704 -4.03991,-3.82468 -13.25769,-8.5467 -15.71534,-8.05053 -1.31657,0.2658 -1.15247,0.80683 0.92241,3.04109 2.90996,3.13351 3.01574,3.44077 5.08887,14.78223 4.70304,25.72894 5.59087,32.30588 5.59737,41.46456 0.008,11.00921 -3.30735,46.12425 -5.3558,56.72988 -0.77707,4.02325 -0.94297,7.31992 -0.41577,8.26198 0.80307,1.43501 10.40798,7.51231 11.90746,7.5342 0.35366,0.005 0.94745,-0.77812 1.31955,-1.74062 z m 34.2268,-3 c -0.2516,-0.9625 -0.4574,-0.175 -0.4574,1.75 0,1.925 0.2058,2.7125 0.4574,1.75 0.2515,-0.9625 0.2515,-2.5375 0,-3.5 z M 28.512617,356.62901 c -0.41626,-1.65852 0.70216,-4.88882 3.72194,-10.75 2.37435,-4.60845 4.48563,-8.76021 4.69173,-9.22612 0.20609,-0.4659 -0.50546,-0.37605 -1.58122,0.19968 C 31.367867,338.98111 24.808847,359 28.088647,359 c 0.57286,0 0.7585,-1.03814 0.42397,-2.37099 z m 3.55777,-0.87901 c 8.4e-4,-2.41072 4.4782,-12.16774 8.0305,-17.5 1.19081,-1.7875 1.70156,-3.25 1.13501,-3.25 -1.51658,0 -4.57528,4.6595 -8.07569,12.30216 C 30.016627,354.16575 29.267317,358 31.069597,358 c 0.55,0 1.00036,-1.0125 1.00079,-2.25 z m 4.99921,-1.36947 c 0,-0.82579 1.97824,-5.54823 4.3961,-10.4943 3.00448,-6.14611 3.92983,-8.89684 2.92316,-8.68954 -2.74909,0.5661 -11.15112,18.64831 -9.73201,20.94449 0.77066,1.24694 2.41275,0.0487 2.41275,-1.76065 z M 49.452017,353.25 c 0.35093,-2.0625 2.39321,-7.26353 4.53841,-11.55784 3.61923,-7.24505 3.74825,-7.78564 1.79001,-7.5 -1.59343,0.23244 -3.19674,2.67826 -6.54551,9.98507 C 44.952687,353.5208 44.457637,357 47.410407,357 c 0.84181,0 1.65894,-1.50089 2.04161,-3.75 z m 5.09125,1.43053 c 1.2045,-1.8383 8.52633,-19.37674 8.52633,-20.42365 0,-0.14129 -0.86588,-0.25688 -1.92417,-0.25688 -1.51518,0 -2.79049,2.21576 -6,10.42464 -2.24171,5.73355 -4.07583,10.90855 -4.07583,11.5 0,1.85196 1.88813,1.17572 3.47367,-1.24411 z M 43.480877,354.25 c -0.22081,-0.9625 1.57999,-5.8 4.00178,-10.75 2.42179,-4.95 4.23899,-9.16809 4.03823,-9.37354 -1.33734,-1.36851 -4.06319,1.97966 -7.41409,9.10675 C 38.586237,354.97496 38.369597,356 41.408587,356 c 1.84225,0 2.37128,-0.44675 2.07229,-1.75 z m 250.570283,0.5 c -0.01,-0.6875 -0.666,-4.91066 -1.4575,-9.38479 -0.7916,-4.47414 -1.9111,-12.12414 -2.488,-17 -0.5768,-4.87587 -1.7228,-12.91521 -2.5466,-17.86521 -0.8239,-4.95 -2.8366,-17.82597 -4.4726,-28.61326 C 279.74926,259.88349 279.52146,259 277.18576,259 c -1.8112,0 -14.1955,12.13292 -15.99796,15.67328 -0.74331,1.46001 -0.96222,8.5163 -0.66699,21.5 0.40093,17.63212 -0.79333,47.82034 -2.05968,52.06442 -0.43306,1.45137 -0.0412,1.64223 2.37852,1.15829 3.53321,-0.70663 17.72561,1.85502 25.22991,4.55385 6.4897,2.33394 8.0065,2.48599 7.9816,0.80016 z m -232.688793,-5.5 c 1.27482,-2.0625 2.88471,-5.55 3.57752,-7.75 0.69281,-2.2 1.49292,-4.5625 1.77802,-5.25 0.2851,-0.6875 -0.0894,-1.25 -0.83213,-1.25 -0.78206,0 -2.60599,3.45514 -4.33334,8.20879 -1.64056,4.51483 -3.13284,8.56483 -3.31617,9 -0.9501,2.25519 1.10651,0.30865 3.1261,-2.95879 z m 133.325673,1.19806 c -0.32754,-0.85356 -0.2175,-1.3183 0.24454,-1.03274 0.99276,0.61355 3.13702,-6.03199 3.13702,-9.72232 0,-1.41623 -0.45,-2.85308 -1,-3.193 -0.55,-0.33992 -1,-1.49148 -1,-2.55902 0,-1.59781 -0.70721,-1.94098 -4,-1.94098 -4.55295,0 -4.5536,0.002 -2.46024,8.35566 2.00767,8.01153 3.47041,11.64434 4.68855,11.64434 0.54212,0 0.71768,-0.69837 0.39013,-1.55194 z M 69.928397,341.95211 c 1.8776,-5.55988 1.90743,-6.05376 0.34755,-5.75355 -1.05178,0.20242 -2.54666,2.62487 -3.89691,6.31492 -2.72703,7.45264 -2.74813,7.79167 -0.40699,6.53873 1.05729,-0.56585 2.81488,-3.72004 3.95635,-7.1001 z m 53.435863,4.89019 c 1.18975,-0.63673 4.33818,-2.87693 6.9965,-4.97821 6.21823,-4.91524 10.79741,-6.08236 22.52462,-5.74103 7.76603,0.22605 9.71162,-0.0121 10.51579,-1.28693 0.5427,-0.86035 0.72481,-2.24682 0.4047,-3.08102 -0.46795,-1.21947 -2.66166,-1.52597 -11.19253,-1.5638 -15.67891,-0.0695 -19.54374,-1.21922 -19.54374,-5.81375 0,-1.30766 -0.45,-2.37756 -1,-2.37756 -0.55,0 -1,0.675 -1,1.5 0,0.825 -0.46518,1.5 -1.03373,1.5 -1.05374,0 -5.37814,6.59382 -4.78954,7.30308 0.1778,0.21424 -0.20391,1.02474 -0.84824,1.80111 -1.76759,2.12982 -4.23186,9.89581 -3.1401,9.89581 0.52496,0 0.24732,0.70714 -0.61696,1.57143 -0.86429,0.86428 -1.57143,1.76428 -1.57143,2 0,0.79546 2.11776,0.43591 4.29466,-0.72913 z M 76.661217,340.82283 C 78.019037,338.19709 77.986357,338 76.193107,338 c -1.74503,0 -4.12351,4.19438 -4.12351,7.27167 0,1.54525 2.99012,-1.35189 4.59162,-4.44884 z m 4.32505,-0.53986 C 81.215427,340.12734 80.701077,340 79.843257,340 c -0.85783,0 -1.84313,0.73865 -2.18956,1.64144 -0.54838,1.42904 -0.40047,1.46566 1.14301,0.28297 0.97509,-0.74716 1.96039,-1.48581 2.18956,-1.64144 z M 237.51462,310 c 1.45589,-13.30516 1.45264,-15.77724 -0.0394,-30 -1.96131,-18.69583 -3.23811,-30.43974 -3.33445,-30.67019 -0.0621,-0.14858 -12.126,5.65915 -12.8439,6.18324 -0.15001,0.10951 1.08749,3.23082 2.75,6.93625 3.4321,7.64949 3.75466,12.03609 1.37359,18.67991 -1.62139,4.5241 -1.60766,4.70137 0.60445,7.808 2.68798,3.77492 2.82134,5.56987 1.02312,13.77087 -1.02849,4.69051 -1.08703,6.76833 -0.23947,8.5 1.19936,2.45045 2.53962,8.32274 4.28896,18.79192 0.59736,3.575 1.37364,7.4 1.72507,8.5 0.76146,2.38344 2.40517,-7.60064 4.69205,-28.5 z M 86.648247,301.63708 c 1.93696,-9.2746 4.22245,-18.92677 5.07886,-21.44926 2.53682,-7.47202 1.43801,-13.70762 -4.53173,-25.71714 C 84.332727,248.71181 81.625347,244 81.178977,244 c -1.21737,0 -12.02288,24.31826 -17.10699,38.5 -5.46374,15.24068 -14.95515,38.72142 -17.473,43.22634 -1.39116,2.48906 -2.52939,4.68121 -2.52939,4.87144 0,0.19023 3.9375,0.31605 8.75,0.27959 11.89579,-0.0901 24.33036,3.30828 26.92393,7.35834 0.47556,0.74264 1.3405,-3.06805 2.09629,-9.23571 0.70767,-5.775 2.87146,-18.08831 4.80843,-27.36292 z m 2.11961,34.11292 c 1.88708,-2.07433 7.72012,-15.49549 12.495193,-28.75 3.15338,-8.75308 4.5625,-11.48323 7.38226,-14.30298 1.97004,-1.97005 3.23474,-5.13397 4.96465,-12.42023 5.46579,-23.02146 15.59623,-50.59993 20.50716,-55.82737 2.60317,-2.77095 2.4636,-3.44942 -0.70963,-3.44942 -4.7204,0 -13.34115,3.31093 -17.18298,6.5994 -7.23449,6.19245 -13.48753,23.05647 -20.542113,55.4006 -4.40761,20.2082 -4.98546,23.19217 -8.13338,42 -0.87452,5.225 -1.82048,10.2875 -2.10212,11.25 -0.70994,2.4262 0.87616,2.1874 3.32096,-0.5 z m 112.593953,-2.78411 c 0.66428,-0.56875 2.10182,-1.65311 3.19451,-2.40968 1.96796,-1.36258 1.96838,-1.39585 0.0444,-3.52183 -1.60624,-1.77488 -1.73372,-2.48031 -0.73672,-4.07675 1.58873,-2.54397 1.5209,-3.01585 -0.33138,-2.30506 -2.24948,0.8632 -4.46301,5.72263 -4.46301,9.79777 0,3.76999 0.36247,4.16778 2.29221,2.51555 z m 1.38559,-18.07434 c 0.87357,-1.98088 2.12555,-2.76439 5.20373,-3.25662 5.50814,-0.88078 9.29672,-2.72803 8.71328,-4.24844 -0.26535,-0.6915 -0.032,-1.40743 0.5186,-1.59096 1.52844,-0.50948 -0.0534,-3.64171 -2.18004,-4.31668 -1.03503,-0.3285 -4.43847,0.20861 -7.56321,1.1936 -6.25166,1.97066 -8.13633,4.1398 -10.96039,12.61474 -2.22787,6.68578 -1.2674,8.74383 2.35261,5.04108 1.5208,-1.55555 3.28273,-4.00207 3.91542,-5.43672 z m -90.06251,1.26814 c 0.48188,-6.26108 1.62684,-8.78438 4.3829,-9.65911 1.59789,-0.50716 1.79928,-1.01049 1.00106,-2.50199 -0.54959,-1.02691 -0.99925,-2.04649 -0.99925,-2.26573 0,-0.64985 3.43389,-0.20077 4.76758,0.6235 0.75561,0.46699 1.23242,0.21215 1.23242,-0.65867 0,-0.99909 0.79003,-1.26932 2.66373,-0.91114 2.30345,0.44033 2.55862,0.25251 1.88655,-1.38867 -1.86632,-4.55753 -1.61459,-5.73801 0.53883,-2.52679 1.87161,2.79098 2.44565,3.12005 3.33576,1.91223 0.59132,-0.80237 1.60222,-1.28117 2.24644,-1.06399 0.76719,0.25864 0.97878,-0.40112 0.61327,-1.91223 -0.45575,-1.88422 0.10841,-1.57392 3.07791,1.6929 1.99977,2.2 3.6463,4.9 3.65896,6 0.0211,1.83395 0.18538,1.79244 1.97855,-0.5 2.52985,-3.23423 2.48663,-4.19421 -0.307,-6.81869 -1.76855,-1.66146 -2.58156,-1.89275 -3.48333,-0.99098 -0.64699,0.64699 -1.5083,0.84437 -1.91404,0.43863 -0.40574,-0.40574 -0.1622,-1.09339 0.54119,-1.52811 0.99672,-0.61601 0.82398,-1.56144 -0.78295,-4.28497 -1.74432,-2.9564 -1.89103,-3.98456 -0.95267,-6.67633 1.50155,-4.30736 3.48508,-5.13955 12.25015,-5.13955 5.21578,0 8.87131,-0.59517 12.06574,-1.96446 4.0549,-1.73813 4.58291,-2.32653 4.58291,-5.10699 0,-2.56664 -0.31663,-3.02103 -1.72777,-2.47952 -0.95028,0.36466 -4.68951,1.0349 -8.3094,1.48943 -7.93342,0.99615 -14.41505,4.05169 -18.46283,8.70365 -1.65,1.89628 -4.575,3.9971 -6.5,4.66847 -1.925,0.67138 -7.13885,3.57224 -11.58634,6.44636 -8.83449,5.70916 -11.05874,8.7485 -15.99003,21.84972 -2.4602,6.53615 -2.4908,6.87125 -0.74464,8.15272 1.00155,0.73501 2.60913,1.13181 3.57239,0.88176 0.97877,-0.25407 1.4848,-0.0233 1.14708,0.52315 -0.35933,0.58142 0.69494,0.84764 2.60076,0.65674 3.10625,-0.31113 3.21773,-0.48566 3.61607,-5.66134 z m 80.38471,3.74422 c 0,-3.29652 3.08369,-13.23347 4.66666,-15.03796 0.7884,-0.89873 3.54843,-2.20258 6.1334,-2.89743 2.58497,-0.69485 5.02202,-1.54161 5.41568,-1.88168 0.39365,-0.34007 0.99885,-2.9428 1.34488,-5.78385 l 0.62915,-5.16553 -3.94553,-2.01286 -3.94554,-2.01286 0.4439,2.32211 c 0.5858,3.06441 -3.18788,5.93339 -5.89721,4.48341 -3.89458,-2.08432 -1.05832,-8.52377 3.15461,-7.16223 1.13853,0.36795 1.06973,0.0342 -0.2855,-1.38513 -1.63808,-1.7155 -4.19771,-1.91716 -31,-2.44232 -20.2747,-0.39725 -29.43932,-0.24425 -29.94919,0.5 -1.97481,2.88262 -0.70655,7.2239 3.23469,11.07242 2.2,2.14824 4,4.7576 4,5.79858 0,2.09766 -2.85873,6.61892 -7.08249,11.20142 -1.52083,1.65 -3.07451,4.6875 -3.45262,6.75 -0.66014,3.60092 -0.57372,3.75523 2.17382,3.88156 1.57371,0.0724 8.03629,0.44456 14.36129,0.8271 6.325,0.38255 17.9125,0.77335 25.75,0.86844 13.85608,0.16812 14.25,0.11496 14.25,-1.92319 z m -28.83068,-2.85925 c -4.81674,-1.19318 -8.88396,-5.58549 -10.60682,-11.45461 -1.40332,-4.78054 -1.37051,-5.34581 0.5396,-9.2961 1.11857,-2.31333 3.59385,-5.57583 5.50063,-7.25 C 162.81037,286.28871 163.7858,286 169.95651,286 c 7.75846,0 11.89506,2.06883 15.83929,7.92168 2.98025,4.42239 2.88376,9.18697 -0.3047,15.04521 -3.72786,6.84932 -12.59922,10.22124 -21.25218,8.07777 z m 4.64252,-3.30614 C 169.10999,312.55174 168.57698,312 167.20194,312 c -2.29335,0 -3.56338,1.49355 -2.59812,3.05537 0.97327,1.57479 3.89389,0.67569 4.27762,-1.31685 z M 174.43123,313.5 c -0.31659,-0.825 -1.20246,-1.5 -1.96862,-1.5 -0.76615,0 -1.39301,0.675 -1.39301,1.5 0,0.82536 0.8854,1.5 1.96862,1.5 1.33903,0 1.78453,-0.47971 1.39301,-1.5 z m -10.96537,-1.09024 c 1.01489,-2.64478 -0.43794,-3.68201 -2.51917,-1.79853 -1.47771,1.33731 -1.62874,1.92914 -0.65072,2.54983 1.85664,1.17832 2.48673,1.02898 3.16989,-0.7513 z m 16.35403,-0.15923 c 0.54676,-1.64213 -2.58648,-2.81434 -3.93038,-1.47044 -0.5751,0.5751 -0.7279,1.55977 -0.33954,2.18815 0.88355,1.42961 3.71332,0.95397 4.26992,-0.71771 z M 159.8821,309.1875 c 1.67808,-1.67808 1.8955,-4.22923 0.35417,-4.1557 -1.84094,0.0878 -4.13899,2.87676 -3.57705,4.34114 0.78494,2.04553 1.00455,2.03289 3.22288,-0.18544 z m 23.24386,-3.57555 c -3.02645,-1.35044 -4.63197,0.48712 -2.88846,3.30591 l 1.3321,2.15366 1.83899,-2.25644 c 1.79737,-2.20537 1.79097,-2.27787 -0.28263,-3.20313 z m -7.12894,1.75319 c 1.13992,-1.44917 2.0113,-3.58667 1.9364,-4.75 l -0.13618,-2.11514 -0.41969,2.14557 c -0.23082,1.18006 -1.37594,2.98006 -2.54469,4 l -2.12502,1.85443 1.68088,-2.47251 c 2.62396,-3.85973 2.15953,-5.82578 -0.73404,-3.10741 -1.66634,1.56543 -3.06127,2.06356 -4.5,1.60692 -2.53901,-0.80585 -2.73395,0.72123 -0.33204,2.60103 1.58988,1.24428 1.56661,1.26778 -0.25,0.25249 -1.10167,-0.61571 -2.16008,-1.91318 -2.35203,-2.88325 -0.27714,-1.40069 0.13457,-1.64534 2,-1.18846 1.71715,0.42057 3.24813,-0.23455 5.69174,-2.43552 3.21376,-2.89466 3.27531,-3.08536 1.59501,-4.94206 -2.26202,-2.4995 -8.53516,-2.60611 -10.66449,-0.18123 -3.5954,4.09443 -2.99988,8.75676 1.59377,12.47776 3.18666,2.5813 7.13136,2.22538 9.56038,-0.86262 z m -16.17652,-4.61245 c -0.1655,-0.49648 -0.62715,-0.86894 -1.0259,-0.82769 -0.39875,0.0412 -1.4,0.075 -2.225,0.075 -0.82792,0 -1.5,0.88651 -1.5,1.97856 0,1.75296 0.28801,1.84734 2.5259,0.82769 1.38924,-0.63298 2.39049,-1.55709 2.225,-2.05356 z m 26.2491,-1.69367 c 0,-3.81019 -1.24412,-4.49168 -4.05084,-2.21893 l -2.25917,1.82936 2.37751,1.66528 c 3.30036,2.31166 3.9325,2.10659 3.9325,-1.27571 z m -26,-2.05902 c 0,-0.55 -0.87344,-1 -1.94098,-1 -1.06754,0 -2.2191,0.45 -2.55902,1 -0.35052,0.56716 0.48962,1 1.94098,1 1.40746,0 2.55902,-0.45 2.55902,-1 z m 0.009,-3.48899 c -0.67967,-0.81894 -1.64211,-1.23785 -2.13876,-0.9309 -1.27647,0.7889 -0.0558,2.41989 1.81108,2.41989 1.27119,0 1.33244,-0.27832 0.32768,-1.48899 z m 23.44459,0.58415 c 1.8136,-0.70944 1.71189,-1.00067 -1.41799,-4.06022 -3.17709,-3.10571 -3.4486,-3.19081 -4.70373,-1.47432 -2.26828,3.10206 -1.14336,4.85073 1.45132,2.25605 0.65084,-0.65084 1.49834,-0.86834 1.88334,-0.48334 0.385,0.385 0.1675,1.2325 -0.48334,1.88334 -2.51677,2.51677 -0.83325,3.48377 3.2704,1.87849 z M 164.05429,292.75 c -0.008,-0.6875 -0.38565,-1.8338 -0.83827,-2.54733 -0.6599,-1.04029 -1.0702,-0.99943 -2.07078,0.20619 -0.6863,0.82694 -0.95752,1.97324 -0.60271,2.54734 0.90274,1.46067 3.53029,1.30639 3.51176,-0.2062 z m 4.40832,-2.33179 C 169.31679,288.19225 169.25049,288 167.62862,288 c -1.76659,0 -2.89606,1.64564 -2.05902,3 0.91226,1.47607 2.20294,1.21651 2.89301,-0.58179 z M 174.8696,290.8 c 1.86412,-1.86412 1.42961,-2.8 -1.3,-2.8 -1.83333,0 -2.5,0.53333 -2.5,2 0,2.2276 1.95981,2.64019 3.8,0.8 z m 11.86667,-0.46667 c -1.27305,-1.27304 -0.65783,-5.12275 0.91512,-5.72634 4.26159,-1.63533 6.85093,0.12467 5.48172,3.72598 -0.97627,2.56776 -4.67333,3.72388 -6.39684,2.00036 z M 191.0696,287.5 c 0,-0.825 -0.62686,-1.5 -1.39301,-1.5 -0.76616,0 -1.65203,0.675 -1.96862,1.5 -0.39152,1.02029 0.054,1.5 1.39301,1.5 1.08322,0 1.96862,-0.67464 1.96862,-1.5 z m -48.2407,1.31286 c -1.3581,-1.0243 -1.55966,-1.97225 -0.91705,-4.31286 0.80332,-2.92599 0.95727,-2.99121 6.2407,-2.64378 6.55262,0.43089 6.91705,0.62286 6.91705,3.64378 0,2.90836 -0.34387,3.13563 -6,3.96548 -3.06962,0.45037 -5.0533,0.24293 -6.2407,-0.65262 z m 2.77799,-4.6089 c -0.87994,-0.87994 -2.54925,1.96767 -1.83292,3.12671 0.31482,0.50939 1.00137,0.15962 1.52568,-0.77726 0.5243,-0.93688 0.66256,-1.99413 0.30724,-2.34945 z m 3.85572,2.21425 C 150.32029,284.18315 150.25265,284 148.5696,284 c -0.83333,0 -1.5,0.88889 -1.5,2 0,2.38425 1.53559,2.65261 2.39301,0.41821 z m 3.60699,-1.03624 c 0,-0.825 -0.45,-1.22189 -1,-0.88197 -0.55,0.33992 -1,1.29303 -1,2.11803 0,0.825 0.45,1.22189 1,0.88197 0.55,-0.33992 1,-1.29303 1,-2.11803 z M 208.88915,315.25 c 0.42785,-3.01252 -1.19682,-2.84935 -3.27961,0.32939 -1.65597,2.52733 -1.64315,2.57274 0.63499,2.25 1.52046,-0.2154 2.43565,-1.10802 2.64462,-2.57939 z m -79.39279,-1.40364 c 2.77913,-5.57091 1.55795,-10.34636 -2.64579,-10.34636 -2.92835,0 -4.94599,1.9064 -4.16676,3.93704 0.4244,1.10595 0.16948,1.41718 -0.84266,1.02879 -0.79812,-0.30627 -2.07248,0.19184 -2.83192,1.10691 -1.21052,1.45859 -1.01887,1.95235 1.55422,4.00406 1.61426,1.28716 3.85103,2.52267 4.97059,2.74557 1.11956,0.2229 2.1151,0.46655 2.21232,0.54145 0.0972,0.0749 0.88472,-1.28296 1.75,-3.01746 z M 213.0696,316 c 0,-0.55 -0.45,-1 -1,-1 -0.55,0 -1,0.45 -1,1 0,0.55 0.45,1 1,1 0.55,0 1,-0.45 1,-1 z m -77.77558,-3.75 c 1.51353,-1.72619 4.77558,-7.65338 4.77558,-8.67729 0,-1.39937 -5.10802,-3.6732 -6.94316,-3.09075 -1.94036,0.61585 -1.96321,0.79843 -0.46288,3.69974 1.51355,2.92688 1.4996,4.21314 -0.0875,8.0683 -0.39624,0.9625 -0.29204,1.75 0.23156,1.75 0.5236,0 1.64248,-0.7875 2.4864,-1.75 z m 88.28706,-22.0059 c -4.26604,-9.31824 -5.72446,-10.73422 -13.11702,-12.7353 -6.49319,-1.75762 -6.74003,-1.7567 -8.04657,0.0301 -0.74134,1.01384 -1.34789,2.1376 -1.34789,2.49723 0,1.34235 3.75968,3.98535 7.5221,5.28794 4.93299,1.70784 7.55963,5.22138 8.20876,10.98052 0.34534,3.06382 1.50421,5.73807 3.57548,8.25087 l 3.06452,3.7178 1.29372,-6.3423 c 1.23129,-6.0363 1.17566,-6.60018 -1.1531,-11.68687 z m -9.32169,5.2559 c -0.22473,-1.925 -0.53514,-3.5 -0.68979,-3.5 -0.15465,0 -0.46506,1.575 -0.68979,3.5 -0.24793,2.1237 0.0233,3.5 0.68979,3.5 0.66648,0 0.93772,-1.3763 0.68979,-3.5 z m -12.18979,-7 c 0,-1.808 -0.53727,-2.5 -1.94098,-2.5 -1.06754,0 -2.23242,0.47155 -2.58862,1.04789 -1.07122,1.73328 0.33135,3.95211 2.49822,3.95211 1.50014,0 2.03138,-0.65379 2.03138,-2.5 z m -80,-4.5 c 1.375,-1.07554 3.175,-1.97243 4,-1.99308 3.79449,-0.095 4.11157,-1.5554 1.39353,-6.41849 -2.35986,-4.22226 -2.58859,-5.44813 -2.02413,-10.84854 0.41687,-3.98845 1.65587,-7.89485 3.59224,-11.32592 2.58622,-4.58253 2.76815,-5.39334 1.45474,-6.48337 -2.13216,-1.76954 -2.98289,-0.50166 -5.41451,8.0694 -1.17027,4.125 -2.83259,9.975 -3.69404,13 -0.86146,3.025 -2.12833,8.3125 -2.81527,11.75 -1.38201,6.91569 -0.8008,7.61995 3.50744,4.25 z m 102.48283,-9.8 c -0.0147,-5.72702 -0.52296,-7.63969 -3.5,-13.17077 l -3.48283,-6.47077 0.16173,-12.52923 c 0.089,-6.89108 0.66995,-13.84467 1.2911,-15.45242 0.91271,-2.36241 0.84077,-3.21178 -0.37499,-4.42754 -1.77997,-1.77998 -1.59249,-2.2138 -4.11187,9.51434 -2.30891,10.74839 -1.61632,18.75815 2.37077,27.41772 3.21409,6.98069 4.49184,14.28029 3.00348,17.15848 -0.61638,1.19197 -0.37118,2.5464 0.7787,4.30135 2.49931,3.81442 3.88411,1.54177 3.86391,-6.34116 z m -41.1212,3.3 c 0.31658,-0.825 1.47389,-1.5 2.5718,-1.5 1.09791,0 2.47787,-0.9 3.06657,-2 1.66704,-3.1149 6.77817,-2.71365 8.05018,0.63198 0.97309,2.55942 1.05569,2.58218 2.99659,0.82569 1.78104,-1.61182 2.72031,-1.69069 8.72457,-0.73259 3.70076,0.59053 7.58041,1.41677 8.62143,1.83608 1.74179,0.70158 1.85402,0.35905 1.40693,-4.29391 -0.26721,-2.78097 -1.56896,-7.16032 -2.89277,-9.73189 l -2.40693,-4.67559 -29.5,-0.31132 c -26.54726,-0.28017 -30.22441,-0.52338 -36.73734,-2.42989 C 143.35172,253.95335 139.91308,253 139.69084,253 c -0.61193,0 -3.77067,8.04236 -4.68425,11.92638 -0.56414,2.39843 -0.36964,4.27007 0.64831,6.23858 l 1.45425,2.8122 6.69106,-3.48873 c 5.49711,-2.8662 7.69086,-3.46613 12.29397,-3.36208 3.0816,0.0697 6.4884,-0.15439 7.57066,-0.49789 1.55713,-0.49421 2.22331,0.0525 3.19232,2.61967 1.0732,2.84324 0.97647,3.57976 -0.78265,5.95909 l -2.00719,2.71488 8.75114,0.33332 c 4.81313,0.18332 9.0405,0.42585 9.39415,0.53894 0.35366,0.1131 0.90203,-0.46936 1.21862,-1.29436 z m 14.36754,0.89583 c -0.33229,-0.33229 -1.1948,-0.36781 -1.91667,-0.0789 -0.79773,0.31922 -0.56078,0.55618 0.60417,0.60416 1.05416,0.0434 1.64479,-0.19293 1.3125,-0.52522 z m -61.72917,-2.93101 c 0,-0.25565 -0.88855,-1.35337 -1.97456,-2.43938 -5.24159,-5.24159 -3.11172,-13.52189 6.83759,-26.58253 9.41379,-12.35766 12.44525,-18.65722 13.6156,-28.29412 0.29064,-2.39317 0.77841,-4.75567 1.08392,-5.25 0.30552,-0.49433 0.19143,-0.8919 -0.25353,-0.88348 -1.98213,0.0375 -3.10697,1.86194 -4.30639,6.98469 -2.0196,8.62572 -5.08966,14.69751 -14.20026,28.08442 -10.15315,14.91881 -10.99445,17.91074 -7.21599,25.66227 2.24697,4.60969 2.79156,5.12141 4.48555,4.21481 1.06044,-0.56752 1.92807,-1.24103 1.92807,-1.49668 z m 59.54112,0.46865 c 0.36253,-0.58659 0.44219,-1.28349 0.17701,-1.54867 -0.76112,-0.76112 -5.71813,0.73307 -5.71813,1.72361 0,1.26168 4.74584,1.11184 5.54112,-0.17494 z m 67.23044,-9.07386 c 1.4534,-1.72721 4.8149,-4.85759 7.4701,-6.9564 l 4.8276,-3.81602 -2.7846,-1.43684 c -6.7418,-3.47865 -15.28384,-6.46144 -15.26485,-5.33029 0.0109,0.64897 0.48468,4.32994 1.05287,8.17994 0.56818,3.85 1.07774,8.2375 1.13237,9.75 0.0546,1.5125 0.28488,2.75 0.51169,2.75 0.22681,0 1.60149,-1.41317 3.05482,-3.14039 z M 100.12009,250.84549 c 1.67658,-5.13052 4.15109,-11.30128 5.49891,-13.7128 1.34783,-2.41153 2.4506,-4.50782 2.4506,-4.65843 0,-0.46453 -14.163913,4.62345 -19.758873,7.09781 l -5.29406,2.34128 3.27646,4.33018 c 1.80206,2.3816 4.60218,7.13753 6.22249,10.56875 3.40485,7.21019 3.26174,7.32247 7.604473,-5.96679 z M 175.0696,252.5 c 0,-4.26365 -2.51067,-4.84009 -3.29145,-0.7557 -0.61077,3.19502 -0.14956,4.2557 1.85047,4.2557 0.98017,0 1.44098,-1.11926 1.44098,-3.5 z m 6.82468,-0.0335 c -0.3051,-4.53026 -2.96313,-4.33334 -3.90862,0.28957 -0.60197,2.94331 -0.44056,3.24396 1.74156,3.24396 2.13118,0 2.37793,-0.40234 2.16706,-3.53353 z m 6.17532,0.0335 c 0,-2.83333 -0.38095,-3.5 -2,-3.5 -1.61905,0 -2,0.66667 -2,3.5 0,2.83333 0.38095,3.5 2,3.5 1.61905,0 2,-0.66667 2,-3.5 z m -23,-4.61481 c 0,-0.48685 -0.85598,-0.88519 -1.90217,-0.88519 -1.23449,0 -2.28753,1.10541 -3,3.14922 -1.37115,3.93329 -1.41832,3.64008 0.65217,4.05387 1.59384,0.31853 4.25,-3.63003 4.25,-6.3179 z m 3.30272,6.36481 c 0.23142,-0.4125 0.71655,-1.9875 1.07807,-3.5 0.54245,-2.26943 0.3236,-2.75 -1.25233,-2.75 -1.43796,0 -2.01057,0.86451 -2.31825,3.5 -0.27298,2.3382 0.003,3.5 0.83157,3.5 0.6821,0 1.42953,-0.3375 1.66094,-0.75 z m 27.69728,-2.57681 c 0,-3.11545 -0.1875,-3.29929 -2.9514,-2.89363 -2.54882,0.37409 -2.92392,0.8276 -2.75,3.32482 0.16984,2.43848 0.63237,2.89196 2.9514,2.89363 2.44932,0.002 2.75,-0.36176 2.75,-3.32482 z m 7.54872,-0.68059 c -0.0354,-2.91138 -0.41296,-3.86863 -1.38051,-3.5 -0.73248,0.27907 -1.74498,0.5074 -2.25,0.5074 -0.50501,0 -0.91821,1.575 -0.91821,3.5 0,2.98494 0.33828,3.5 2.29872,3.5 2.02399,0 2.2929,-0.47895 2.25,-4.0074 z m 6.04632,3.24209 c 0.62164,-0.41707 0.89584,-2.37938 0.63425,-4.53907 -0.38776,-3.20137 -0.79909,-3.75598 -2.59504,-3.49899 -1.68494,0.24111 -2.08933,0.92273 -1.92088,3.23773 0.37994,5.22164 1.39068,6.47158 3.88167,4.80033 z m -51.04401,-3.70257 c 1.765,-4.22426 1.77864,-4.5343 0.19897,-4.52387 -0.6875,0.005 -2.22511,1.80454 -3.41692,4 -2.11857,3.90267 -2.12301,3.99175 -0.19897,3.99175 1.30039,0 2.45945,-1.17635 3.41692,-3.46788 z m -6.55103,1.09032 c 0,-0.75765 0.675,-1.93775 1.5,-2.62244 1.64148,-1.36231 2.03632,-4 0.59878,-4 -0.7902,0 -5.09878,6.38598 -5.09878,7.55716 0,0.24356 0.675,0.44284 1.5,0.44284 0.825,0 1.5,-0.6199 1.5,-1.37756 z m -3.52428,-2.87876 C 151.37444,244.09893 151.39796,244 149.67326,244 c -0.85966,0 -2.4813,1.8 -3.60366,4 -2.53945,4.97773 -0.48004,5.59635 2.47572,0.74368 z m 76.59928,0.98132 c -0.0413,-0.39875 -0.075,-2.525 -0.075,-4.725 0,-4.08331 -0.48175,-4.61486 -2.83215,-3.1249 -1.09122,0.69175 -1.1063,1.5983 -0.0834,5.01248 0.68682,2.29241 1.65753,4.03175 2.15715,3.86521 0.49961,-0.16653 0.87463,-0.62904 0.83338,-1.02779 z m 5.28086,-6.08008 c -0.75775,-4.95256 -0.82999,-5.06069 -2.86049,-4.28152 -1.24548,0.47794 -1.44345,1.42752 -0.91179,4.37354 0.87044,4.82331 1.17099,5.29447 2.94346,4.61431 1.10976,-0.42585 1.30987,-1.56218 0.82882,-4.70633 z M 184.35689,243.75 c -1.65912,-2.84275 -2.57445,-3.33354 -7.3047,-3.91667 -4.53899,-0.55956 -5.8737,-0.33499 -8.30703,1.39769 -2.5154,1.79113 -2.68128,2.18627 -1.25326,2.98543 0.90522,0.50659 5.34303,1.27881 9.86178,1.71605 4.51876,0.43724 8.36984,0.85629 8.55797,0.93124 0.18813,0.0749 -0.51151,-1.32624 -1.55476,-3.11374 z m 18.15402,1.59501 c 4.73796,-1.46734 7.48074,-5.62737 9.23637,-14.00896 1.43824,-6.86632 1.49637,-8.42141 0.36572,-9.78375 -1.20641,-1.45364 -1.80135,-1.16277 -5.79959,2.83547 -2.58739,2.58739 -8.36379,6.44773 -13.7779,9.2077 l -9.32263,4.75243 3.01937,4.38851 3.01937,4.3885 5.65899,-0.58934 c 3.11245,-0.32414 6.53258,-0.85989 7.6003,-1.19056 z M 138.02896,238.75 c 0.0941,-1.73736 -2.81504,-0.54093 -5.20391,2.14016 -1.86913,2.09778 -2.27427,3.19102 -1.47773,3.98756 0.79653,0.79653 1.85732,0.20978 3.8692,-2.14016 1.52449,-1.78066 2.79009,-3.57506 2.81244,-3.98756 z m 28.54064,1.49572 4,-2.74572 -7.24412,-7.03282 -7.24413,-7.03283 -1.14239,3.53283 c -0.62832,1.94305 -2.23622,5.71507 -3.57311,8.38225 -1.33689,2.66719 -2.2781,5.00206 -2.09156,5.18859 0.37557,0.37557 9.42945,2.17621 11.79531,2.34586 0.825,0.0592 3.3,-1.12802 5.5,-2.63816 z m -33.08984,-3.39108 c -0.9797,-1.58519 -1.96566,-0.87061 -3.15828,2.28901 l -1.18659,3.14364 2.43653,-2.289 c 1.3401,-1.25896 2.19885,-2.6736 1.90834,-3.14365 z M 232.6696,238.4 c -0.35589,-0.92744 -0.87208,-1.46126 -1.14708,-1.18626 -0.275,0.275 -0.20881,1.25882 0.14708,2.18626 0.35589,0.92744 0.87208,1.46126 1.14708,1.18626 0.275,-0.275 0.20881,-1.25882 -0.14708,-2.18626 z m -7.0891,-1.51013 c 2.469,-1.16057 4.4891,-2.26973 4.4891,-2.46481 0,-0.19508 -0.94578,-0.86086 -2.10173,-1.4795 -1.77763,-0.95136 -2.54866,-0.69663 -5,1.6519 C 220.31194,237.14201 219.3044,239 220.5805,239 c 0.28099,0 2.53099,-0.94956 5,-2.11013 z m -38.0109,-3.71882 c 3.85,-1.9619 9.5875,-5.29475 12.75,-7.40633 5.62895,-3.75842 5.75,-3.9374 5.75,-8.50198 0,-4.50643 -1.39128,-5.05288 -2.15294,-0.84561 -0.19088,1.05443 -0.98127,2.12833 -1.75641,2.38645 -0.99037,0.3298 -1.21313,-0.042 -0.74932,-1.25069 0.98222,-2.55964 -1.62833,-1.39504 -2.82846,1.2618 -1.11433,2.46691 -2.51287,2.90041 -2.51287,0.77891 0,-2.34799 -6.83132,0.24267 -7.20044,2.73064 -0.16476,1.11051 -0.80307,2.18469 -1.41846,2.38707 -0.70599,0.23217 -0.93987,-0.56863 -0.63376,-2.16992 0.45955,-2.40399 0.30755,-2.5033 -2.8811,-1.88239 -1.85143,0.36052 -3.70374,1.14723 -4.11624,1.74825 -0.54166,0.78919 -0.95834,0.78691 -1.5,-0.008 -0.97468,-1.43079 -6.13946,-2.38691 -6.83288,-1.26492 -0.29434,0.47624 -0.98515,0.86589 -1.53515,0.86589 -0.55,0 -0.77755,-0.35993 -0.50567,-0.79985 0.27188,-0.43992 -0.33818,-1.31976 -1.35571,-1.95522 -1.45361,-0.90779 -2.10882,-0.84354 -3.05776,0.29985 -1.71114,2.06181 -3.24162,1.84726 -2.10282,-0.29478 0.71036,-1.33615 0.36391,-2.17492 -1.46494,-3.54678 -2.34981,-1.76264 -2.41665,-1.74997 -3.51775,0.66669 -1.00245,2.20013 -0.62878,3.105 3.49569,8.46506 2.53997,3.30088 6.47512,7.59112 8.74479,9.53387 4.96658,4.2512 6.95858,4.11393 17.3822,-1.19779 z M 139.30228,232.75 c -0.39452,-1.7875 -0.72077,-5.275 -0.725,-7.75 -0.008,-4.43894 0.0652,-4.5369 5.35969,-7.21939 2.95206,-1.49566 5.87706,-3.38789 6.5,-4.20497 0.62295,-0.81707 2.30862,-1.92132 3.74594,-2.45389 3.06055,-1.13403 4.66129,-5.13245 2.04307,-5.10332 -7.00636,0.0779 -24.96809,4.76436 -31.79886,8.29669 -2.35521,1.21792 -5.35752,5.19708 -5.35752,7.10065 0,0.17692 2.5875,-0.28071 5.75,-1.01696 3.1625,-0.73624 7.36838,-1.0807 9.3464,-0.76547 l 3.59641,0.57315 -2.32267,5.64676 c -2.94955,7.17079 -2.93378,7.53794 0.37986,8.84733 4.12828,1.63128 4.2573,1.55902 3.48268,-1.95058 z m 107.68054,-5.2093 c -1.82438,-3.65298 -3.42239,-5.08601 -8.85487,-7.9407 -5.58253,-2.93353 -23.33283,-8.6 -26.93965,-8.6 -0.59433,0 -1.37852,1.18702 -1.74265,2.63783 -0.51891,2.0675 -0.14846,3.02524 1.71333,4.42959 1.75059,1.32047 2.71831,1.50715 3.67916,0.70971 0.98039,-0.81365 2.03891,-0.37772 4.26762,1.75751 1.63011,1.56175 2.96384,3.3786 2.96384,4.03744 0,2.42065 5.3469,4.8949 10,4.62745 3.56782,-0.20507 5.74291,0.44403 10.5,3.13345 5.4405,3.07579 6.02981,3.21833 6.31968,1.5286 0.17582,-1.02492 -0.68209,-3.86932 -1.90646,-6.32088 z m -98.3015,-7.1298 0.64863,-2.58437 -4.25461,2.17054 c -4.24529,2.16579 -4.25326,2.1804 -3.63794,6.66967 0.33917,2.47451 0.93232,5.00985 1.31811,5.63408 0.69826,1.12979 4.64623,-6.79168 5.92581,-11.88992 z m 74.38828,9.53008 c 0,-0.51754 -0.45,-0.94098 -1,-0.94098 -0.55,0 -1,0.70156 -1,1.55902 0,0.85746 0.45,1.2809 1,0.94098 0.55,-0.33992 1,-1.04148 1,-1.55902 z m -44,-12.44098 c 1.37964,-1.66236 3.47772,-2.08198 2.5,-0.5 -0.35973,0.58205 0.63972,1 2.39129,1 1.81106,0 3.41519,-0.69682 4.02861,-1.75 0.95899,-1.64649 1.02108,-1.64179 1.04969,0.0795 0.0256,1.53685 0.55021,1.7183 3.28041,1.13452 1.7875,-0.38221 3.7414,-1.08906 4.34201,-1.57078 0.6006,-0.48171 1.31757,-0.65028 1.59326,-0.37459 0.27569,0.27569 1.7075,-0.61666 3.1818,-1.98299 1.4743,-1.36634 2.89483,-2.49581 3.15674,-2.50993 0.2619,-0.0141 0.87373,-0.0257 1.35961,-0.0257 0.48589,0 1.10576,-1.16307 1.3775,-2.5846 0.56036,-2.93133 1.24658,-3.00633 -10.21969,1.11684 -5.43194,1.95327 -8.72233,2.56069 -12.10872,2.2353 -4.70666,-0.45225 -16.9773,-5.59312 -20.10392,-8.42266 -2.39133,-2.16412 -3.60688,-1.00613 -4.38406,4.17644 -0.58984,3.93335 -0.38512,4.7064 1.69223,6.38998 1.68905,1.36889 2.71984,1.6198 3.61324,0.87954 0.90574,-0.75048 1.25,-0.61836 1.25,0.47973 0,2.24669 3.23226,3.13228 4.6009,1.26056 1.02166,-1.39721 1.21419,-1.34623 1.68276,0.44557 0.62495,2.38982 3.91715,2.6912 5.71634,0.5233 z m 11.77483,-10.02577 c 8.95111,-2.6582 14.19724,-5.47876 31.22517,-16.78809 10.72083,-7.12039 16.43149,-14.97425 17.42946,-23.97072 0.13516,-1.21848 0.74884,-4.46542 1.36373,-7.21542 1.94501,-8.69879 3.2585,-25.60085 2.89464,-37.24845 -0.19326,-6.18664 -0.55889,-11.45594 -0.8125,-11.70956 -0.25361,-0.25361 -3.94646,0.64569 -8.20632,1.99845 -9.03529,2.86924 -13.29552,3.05869 -20.16901,0.89689 -2.75,-0.8649 -6.90045,-2.15703 -9.22323,-2.87139 -5.85493,-1.80065 -11.99729,-0.36535 -8.27677,1.93406 1.54302,0.95364 1.18237,2.78396 -0.42689,2.16643 -1.78144,-0.6836 -4.15575,1.85544 -2.62167,2.80356 0.57671,0.35642 1.04856,1.12659 1.04856,1.71147 0,0.68394 -0.52058,0.63138 -1.4588,-0.14727 -2.63342,-2.18554 -2.95585,3.24201 -0.64463,10.85121 1.15689,3.80879 2.10343,8.84478 2.10343,11.1911 0,6.99345 -4.80409,10.17811 -9.31282,6.1735 -1.93376,-1.71755 -1.96045,-1.66656 -1.43921,2.75 0.29209,2.475 0.86838,5.4 1.28063,6.5 0.68741,1.83419 0.55149,1.81116 -1.63952,-0.27778 -1.82872,-1.74352 -2.38908,-3.33529 -2.38908,-6.78647 0,-6.1562 2.51201,-7.5794 8.75,-4.95736 1.4319,0.60188 1.74649,0.21627 1.73071,-2.1214 -0.0106,-1.57135 -0.6005,-5.10699 -1.31086,-7.85699 -1.0027,-3.88168 -1.78121,-5.07147 -3.48071,-5.31955 -1.7452,-0.25475 -2.18914,0.179 -2.18914,2.13889 0,1.72761 -0.52023,2.41715 -1.75,2.31955 -1.10523,-0.0877 -1.69766,0.5129 -1.60794,1.63016 0.0903,1.12451 -0.4562,1.67102 -1.5,1.5 -1.1874,-0.19455 -1.63268,0.47265 -1.60817,2.4097 0.0267,2.10977 -0.28954,2.49775 -1.48883,1.82659 -0.9629,-0.53886 -2.0783,-0.34591 -3.03389,0.52483 -0.83114,0.75735 -2.52367,2.29788 -3.76117,3.42341 -1.2375,1.12553 -2.25,1.80559 -2.25,1.51124 0,-0.29435 -0.9,-0.0535 -2,0.53518 -1.1,0.5887 -2.00689,1.84203 -2.01531,2.78518 -0.012,1.34375 -0.20138,1.42118 -0.87516,0.35781 -0.54195,-0.85532 -1.65077,-1.10598 -2.9992,-0.67801 -1.17666,0.37346 -1.9005,1.06552 -1.60854,1.53792 0.29196,0.4724 0.12065,1.11241 -0.38069,1.42226 -0.50134,0.30984 -1.16956,-0.10906 -1.48493,-0.9309 -0.77843,-2.02855 -3.30831,-1.88654 -4.55607,0.25574 -0.56061,0.9625 -1.03297,1.23564 -1.04969,0.60699 -0.0459,-1.72502 -3.09835,-2.54549 -4.65716,-1.2518 -1.06837,0.88667 -1.37325,0.77949 -1.37325,-0.48275 0,-0.89234 -0.59952,-1.62244 -1.33227,-1.62244 -0.97987,0 -1.25031,1.3887 -1.0224,5.25 0.17043,2.8875 0.47652,8.625 0.68021,12.75 0.5189,10.50885 3.35044,16.53213 11.24216,23.91445 9.9228,9.28229 19.33206,15.05987 27.9323,17.15128 1.65,0.40125 3.03082,0.77561 3.0685,0.83191 0.0377,0.0563 2.38052,-0.58424 5.20633,-1.42341 z m -9.0857,-18.90259 c -2.64597,-0.71135 -5.34597,-1.87221 -6,-2.57968 -0.94277,-1.01982 -0.82657,-1.15874 0.56087,-0.67052 0.9625,0.33868 1.75,0.42647 1.75,0.19509 0,-1.0879 -9.26623,-13.51653 -10.07732,-13.51653 -0.50747,0 -0.92268,-0.72314 -0.92268,-1.60699 0,-0.93652 0.56203,-1.39132 1.3471,-1.09006 0.74091,0.28432 4.40265,-0.12356 8.13722,-0.90639 4.60226,-0.96472 11.8662,-1.34281 22.54394,-1.17343 18.19755,0.28866 17.52635,-0.91659 6.39094,11.47608 -6.61615,7.36315 -12.57282,11.31028 -16.9192,11.21133 -1.1,-0.025 -4.16489,-0.62754 -6.81087,-1.3389 z m 12.90974,-3.18558 c 4.20895,-1.99728 4.2576,-2.8918 0.26942,-4.95417 -3.43129,-1.77439 -9.51848,-1.34864 -13.7259,0.96001 l -2.35761,1.29365 2.74247,2.15722 c 3.28559,2.58445 8.32851,2.79404 13.07162,0.54329 z m 4.40113,-13.65802 4.5,-2.22804 -8,-0.28636 c -4.4,-0.1575 -9.8,0.11902 -12,0.61449 l -4,0.90086 3.5,1.59636 c 4.89648,2.23331 10.72222,2.01582 16,-0.59731 z m 17.85291,-33.15151 c -2.23593,-4.90733 1.8098,-14.68741 5.49133,-13.27467 3.61226,1.38615 0.9762,15.69814 -2.89136,15.69814 -0.82267,0 -1.99265,-1.09056 -2.59997,-2.42347 z M 251.82764,170.25 c 3.60827,-1.95686 10.20952,-10.27907 13.84652,-17.45629 2.7573,-5.44125 2.9542,-6.79371 0.9891,-6.79371 -0.9176,0 -1.2233,-0.70039 -0.8795,-2.01486 0.428,-1.63668 0.1758,-1.88309 -1.3436,-1.31277 -1.6027,0.60154 -1.6873,0.47647 -0.591,-0.87322 1.0117,-1.24559 1.0278,-2.12788 0.077,-4.21538 l -1.2029,-2.64008 -3.32665,3.22432 c -3.71241,3.5982 -3.95899,4.47253 -1.90457,6.75325 1.85934,2.06416 3.1169,7.07874 1.77521,7.07874 -0.56073,0 -2.20959,-1.41433 -3.66413,-3.14295 l -2.64462,-3.14295 -1.66444,2.39295 c -0.91545,1.31612 -2.69037,3.4259 -3.94428,4.6884 -1.40405,1.41368 -2.28899,3.52646 -2.30369,5.5 -0.0131,1.7625 -0.43763,4.98915 -0.94335,7.17034 -1.48481,6.40392 1.42074,8.20331 7.72525,4.78421 z M 133.8196,161.60795 c -0.9625,-0.73064 -1.75,-1.84133 -1.75,-2.46819 0,-0.62687 -0.675,-1.13976 -1.5,-1.13976 -0.825,0 -1.5,-0.45 -1.5,-1 0,-0.55 -0.66088,-1 -1.46862,-1 -0.89459,0 -1.24363,-0.58629 -0.89301,-1.5 0.36156,-0.9422 -0.0103,-1.5 -1,-1.5 -0.98969,0 -1.36155,-0.5578 -1,-1.5 0.32197,-0.83904 0.0262,-1.5 -0.67114,-1.5 -0.68571,0 -1.88215,-0.7875 -2.65877,-1.75 -1.28712,-1.59521 -1.35313,-1.52887 -0.74622,0.75 1.69567,6.36704 8.6962,14.02773 12.76449,13.9682 2.01958,-0.0296 2.04951,-0.12575 0.42327,-1.36025 z m 4.52877,-19.24882 0.54163,-19.14087 -3.18768,-3.08963 c -4.42639,-4.29022 -8.23787,-4.87258 -12.63272,-1.93018 -8.70535,5.82834 -10.20375,16.69869 -3.39781,24.6499 1.93548,2.26118 4.03382,4.00783 4.66298,3.88144 0.62916,-0.12638 1.18483,0.44521 1.23483,1.27021 0.05,0.825 0.58001,1.40515 1.17781,1.28922 0.59779,-0.11594 1.02734,0.33406 0.95454,1 -0.0728,0.66593 0.2661,1.21078 0.7531,1.21078 0.48699,0 1.27069,1.04141 1.74154,2.31424 0.47085,1.27284 1.3099,2.03378 1.86455,1.69099 0.55465,-0.3428 1.00846,0.12644 1.00846,1.04274 0,1.12122 0.52692,1.46381 1.61134,1.04768 1.10795,-0.42516 1.44477,-0.18425 1.07815,0.77115 -0.43635,1.13711 1.23454,4.15745 1.86241,3.36653 0.10187,-0.12833 0.42896,-8.84672 0.72687,-19.3742 z M 134.0696,141 c -1.1,-1.1 -2,-2.87344 -2,-3.94098 0,-3.45713 -2.20866,-3.50911 -5.23398,-0.12318 -1.59963,1.7903 -3.13456,3.02895 -3.41096,2.75256 -0.64355,-0.64356 2.28614,-6.34861 3.71303,-7.23048 0.69802,-0.4314 0.28489,-1.51774 -1.16349,-3.05947 -2.93667,-3.12594 -2.10269,-3.80527 1.77588,-1.44657 4.02899,2.45018 7.89559,7.71769 8.66038,11.79812 0.70975,3.78682 0.37481,3.96567 -2.34086,1.25 z m 114.8368,4.75 c 3.39435,-4.91869 8.57384,-10.47088 12.1632,-13.03842 1.37496,-0.98356 2.01706,-2.00702 1.42676,-2.27435 -0.5903,-0.26732 -0.8767,-1.82506 -0.6365,-3.46164 0.4124,-2.80974 0.2446,-2.97559 -3.01015,-2.97559 -2.47917,0 -4.46375,0.91244 -7.06883,3.25 -3.42829,3.07624 -3.69358,3.77128 -4.96203,13 -0.73706,5.3625 -1.22878,9.75 -1.09272,9.75 0.13606,0 1.56719,-1.9125 3.18027,-4.25 z m -92.68043,1.05601 c 0.68474,-1.06004 0.99994,-1.06421 1.67358,-0.0221 0.89039,1.37736 4.17005,0.6303 4.17005,-0.94988 0,-0.52361 0.37483,-0.72037 0.83295,-0.43723 1.03205,0.6378 8.16705,-4.10848 8.16705,-5.43285 0,-0.53017 0.675,-0.96395 1.5,-0.96395 0.825,0 1.5,-0.62252 1.5,-1.38337 0,-0.76085 0.95845,-1.63401 2.12988,-1.94034 1.44893,-0.37891 1.93361,-1.06847 1.51597,-2.1568 -0.42415,-1.10533 -0.11893,-1.51014 0.98748,-1.30966 0.88076,0.15959 2.11108,-0.60983 2.73403,-1.70983 0.62295,-1.1 1.69514,-2.35986 2.38264,-2.79969 0.6875,-0.43983 1.25,-1.25947 1.25,-1.82143 0,-0.56195 0.63586,-1.6576 1.41303,-2.43477 1.21738,-1.21737 1.15253,-2.27343 -0.46837,-7.62687 -1.03476,-3.41761 -1.67592,-6.41931 -1.42479,-6.67044 0.25113,-0.25113 1.5429,1.9756 2.8706,4.9483 l 2.414,5.4049 1.29316,-3 c 0.71123,-1.65 1.32289,-3.5469 1.35923,-4.21534 0.0363,-0.66844 0.87291,-1.80531 1.85904,-2.52638 2.51223,-1.83699 1.37485,-3.97087 -4.12948,-7.74743 -4.051,-2.779419 -10.95404,-11.576563 -9.90624,-12.624368 0.19837,-0.198362 2.41425,2.017998 4.92418,4.925244 2.73333,3.166007 7.01635,6.593244 10.67958,8.545734 6.92374,3.69031 8.06499,3.0516 2.09471,-1.17231 -2.18826,-1.54817 -3.97865,-3.273174 -3.97865,-3.833338 0,-1.183284 -0.56901,-1.406363 8.85248,3.470598 4.04387,2.09327 7.64387,3.49047 8,3.10487 0.35614,-0.3856 -0.0178,-0.93626 -0.83099,-1.22369 -2.08889,-0.73834 -12.02149,-10.277101 -12.02149,-11.544814 0,-0.57811 1.4625,0.336449 3.25,2.032354 1.7875,1.695906 7.00781,5.24624 11.60068,7.88963 6.36639,3.66413 9.38909,4.81961 12.72073,4.86271 5.76379,0.0746 6.15768,-1.80432 0.51225,-2.44347 -4.03444,-0.45676 -4.26355,-0.6259 -2.64939,-1.95594 1.55352,-1.28009 2.32852,-1.24869 6.41634,0.2599 l 4.64939,1.71584 5.12877,-5.426276 c 4.56457,-4.829356 11.37123,-15.065246 11.37123,-17.100109 0,-0.419723 -0.97548,0.535054 -2.16774,2.121726 C 242.61579,91.980727 234.24884,98 228.9065,98 c -1.51626,0 -0.48805,-0.867844 3.21379,-2.712548 8.93875,-4.45437 22.94931,-19.946774 22.94931,-25.37658 0,-0.642842 -2.75305,2.280107 -6.11789,6.495443 -6.53993,8.19297 -9.15593,10.065934 -15.41667,11.037765 -3.86526,0.599992 -3.8336,0.562792 1.25337,-1.472521 3.71948,-1.488174 6.80936,-3.845672 10.75509,-8.205846 C 251.35615,71.342529 255.61691,65 254.11921,65 c -0.48562,0 -1.03294,0.3375 -1.21628,0.75 -0.18333,0.4125 -2.58333,2.609757 -5.33333,4.882794 -6.18762,5.114429 -16.04101,9.365838 -21.71987,9.371391 -2.5192,0.0025 -6.20867,0.982698 -8.96765,2.382568 -4.03308,2.046328 -5.34723,2.255135 -9.41277,1.495609 -5.84214,-1.091429 -13.30615,-5.761099 -15.70819,-9.82743 C 190.72026,72.292889 190.41695,71 191.04445,71 c 0.59836,0 1.3436,0.666285 1.65609,1.480633 0.76741,1.999835 13.98432,8.521013 17.25342,8.512778 1.4386,-0.0036 3.88308,-0.842261 5.43218,-1.863637 l 2.81653,-1.857047 h -3.84921 c -5.21251,0 -8.08347,-1.029782 -9.3218,-3.343625 -0.99979,-1.868117 -0.89812,-1.863672 2.92254,0.127767 4.48569,2.338072 9.07785,1.988664 13.02849,-0.991311 l 2.38744,-1.80085 -4.90027,0.459722 c -5.19209,0.487099 -16.40026,-2.863863 -16.40026,-4.903268 0,-0.606286 0.72502,-0.722905 1.75,-0.281489 3.25756,1.402895 13.75665,1.670261 18.23499,0.464368 l 4.45325,-1.199135 -2.46912,-1.39075 c -1.35802,-0.764912 -5.55066,-2.353225 -9.317,-3.529583 -5.99254,-1.871682 -8.49064,-2.077478 -20,-1.647619 -18.49806,0.690877 -29.13003,3.374778 -38.97704,9.83924 -4.1602,2.731129 -8.90387,6.591183 -10.54148,8.577899 -1.63762,1.986715 -5.60012,4.892209 -8.80555,6.456652 -5.82077,2.840891 -5.75473,2.989379 1.42195,3.197067 1.7875,0.05173 3.25,0.212975 3.25,0.358324 0,0.145349 -1.4625,1.96743 -3.25,4.049068 -3.25379,3.789206 -1.6556,3.059954 3.48957,-1.592291 3.59032,-3.246351 4.35824,-2.297297 1.51799,1.876035 -3.60616,5.298731 -7.00331,7.279636 -12.68502,7.396749 -5.34731,0.110221 -6.57454,0.968523 -2.82254,1.974013 5.50278,1.47469 10.39438,0.6387 15.32856,-2.61971 2.70679,-1.7875 5.92828,-4.375 7.15887,-5.75 l 2.23742,-2.5 -1.08562,3.251064 c -1.52848,4.577261 -9.59825,13.216446 -14.32,15.330436 -3.9445,1.76601 -3.9541,1.7838 -1.31941,2.44506 4.8742,1.22335 12.24595,-2.12745 17.23997,-7.83636 5.33667,-6.100614 6.03807,-4.845 0.98874,1.76999 l -3.52148,4.61338 3.07304,-1.58913 c 3.66875,-1.89719 9.54028,-7.87232 11.62049,-11.825553 0.82226,-1.562612 2.1601,-6.030892 2.97299,-9.929511 1.94763,-9.340921 2.90992,-11.086474 4.21681,-7.64916 0.53956,1.419119 3.48436,6.256619 6.54401,10.75 3.05965,4.493381 5.1599,8.169784 4.66723,8.169784 -1.15996,0 -7.94588,-7.830046 -9.3165,-10.75 -1.57619,-3.357879 -2.73434,-2.724148 -2.74128,1.5 -0.003,2.0625 -0.67839,5.038938 -1.5,6.614307 C 167.72661,98.886267 167.72496,99 169.51054,99 c 0.79254,0 1.73025,0.468037 2.08379,1.04008 0.41142,0.66569 -0.22477,0.82233 -1.76739,0.43516 -1.97774,-0.496379 -3.04884,0.17446 -5.96956,3.73882 -3.91507,4.77783 -12.33199,9.86474 -17.78671,10.7497 l -3.50111,0.56802 -0.27578,15.18513 c -0.26105,14.37393 -0.16757,15.24304 1.75,16.26929 1.11418,0.59629 2.02578,0.75333 2.02578,0.34898 0,-0.40435 0.53388,-0.2013 1.1864,0.45122 1.47873,1.47873 7.82987,0.78457 8.96997,-0.98039 z M 162.53822,135.5 c -0.25774,-0.825 -0.66662,-2.14143 -0.90861,-2.9254 -0.65927,-2.13579 1.25336,-8.17482 3.06532,-9.67862 1.34421,-1.11559 1.80705,-1.02515 2.98288,0.5829 2.76284,3.77841 0.79038,13.52112 -2.73742,13.52112 -1.06346,0 -2.14444,-0.675 -2.40217,-1.5 z M 189.3196,84.968838 c -3.13313,-1.259365 -2.81554,-2.135881 0.5,-1.379967 l 2.75,0.626976 -2.25,-1.664628 c -3.86348,-2.858336 -2.4642,-3.38764 2.41948,-0.91521 2.56821,1.300195 5.60571,2.370882 6.75,2.379304 1.70971,0.01258 1.81318,0.188084 0.58052,0.984687 -1.85484,1.198687 -7.73269,1.181648 -10.75,-0.03116 z m -38.25,-1.34034 c 0,-0.294065 1.63569,-1.31085 3.63487,-2.259523 2.11637,-1.004283 4.72737,-3.487147 6.25,-5.943284 5.04675,-8.140835 5.25804,-8.341126 4.66869,-4.425691 -0.36811,2.445619 -1.7746,4.629694 -4.6688,7.25 -2.61284,2.365576 -3.55357,3.75 -2.54816,3.75 0.87659,0 3.18447,-1.396616 5.1286,-3.103592 1.94414,-1.706976 3.5348,-2.646978 3.5348,-2.088894 0,1.282646 -5.759,6.179788 -7.32673,6.230254 -0.6453,0.02077 -2.86077,0.282484 -4.92327,0.581581 -2.0625,0.299097 -3.75,0.303214 -3.75,0.0091 z m 118.99626,53.062482 c 0,-3.4094 -0.6838,-6.3064 -1.9853,-8.44098 -2.2943,-3.76285 -4.5475,-4.38166 -3.6413,-1 0.3317,1.2375 0.6092,3.4875 0.6167,5 0.01,1.86441 0.5361,2.75 1.6361,2.75 1.2833,0 1.3776,0.29495 0.4514,1.41097 -0.8005,0.96456 -0.8392,1.61601 -0.1224,2.05902 0.5767,0.35642 1.0485,1.54804 1.0485,2.64804 0,1.1 0.45,1.72189 1,1.38197 0.55,-0.33992 0.9984,-2.95398 0.9963,-5.80902 z M 189.0696,127 c 0,-0.55 -0.47656,-1 -1.05902,-1 -0.58246,0 -0.7809,0.45 -0.44098,1 0.33992,0.55 0.81648,1 1.05902,1 0.24254,0 0.44098,-0.45 0.44098,-1 z m 66.78041,-9.34713 c 2.09698,-4.32247 4.68621,-14.51958 3.88917,-15.31663 -0.18703,-0.18702 -2.22769,1.45563 -4.53481,3.65033 -2.30711,2.19471 -5.30626,4.26935 -6.66476,4.61031 -2.30072,0.57745 -2.46567,1.04087 -2.40662,6.76153 0.0558,5.4095 0.1987,5.84358 1.19859,3.64159 l 1.13522,-2.5 0.37044,3.32613 c 0.35163,3.1573 0.48114,3.2551 2.5514,1.92672 1.19953,-0.76968 3.20714,-3.51467 4.46137,-6.09998 z m -115.17306,-2.37886 c -0.23959,-0.23959 -1.38756,-0.28675 -2.55104,-0.10481 -2.03369,0.31802 -2.04981,0.42389 -0.41711,2.74077 l 1.6983,2.40997 0.85273,-2.30515 c 0.46901,-1.26784 0.65671,-2.50119 0.41712,-2.74078 z m 135.79861,0.0478 c 1.9612,-5.75561 2.0079,-8.37356 0.1939,-10.85436 -1.2736,-1.74175 -1.4599,-1.37503 -2.0623,4.05887 -0.3642,3.2855 -0.8949,7.21113 -1.1793,8.72363 -0.8458,4.4975 1.3266,3.12316 3.0477,-1.92814 z m -2.5013,-15.478295 0.9315,-2.672133 -3.5576,2.414284 C 269.39146,100.91357 266.72826,102 265.43006,102 c -1.5762,0 -2.365,0.58145 -2.3741,1.75 -0.01,0.9625 -0.285,2.7625 -0.6167,4 -0.4904,1.8302 -0.1957,2.25 1.5794,2.25 3.1344,0 6.0381,1.79288 6.1304,3.78518 0.044,0.94315 0.7127,-1.20665 1.4866,-4.77733 0.7739,-3.57068 1.8263,-7.69461 2.3386,-9.164285 z M 232.0696,110.72566 c 1.925,-0.65757 4.85,-1.98817 6.5,-2.95689 2.97278,-1.74532 2.97732,-1.76129 0.5,-1.76085 -1.375,2.5e-4 -4.71377,1.12357 -7.41948,2.49627 -2.70571,1.37269 -6.41821,2.49581 -8.25,2.49581 -1.83179,0 -3.33052,0.50751 -3.33052,1.12781 0,1.28402 6.28697,0.54942 12,-1.40215 z m -106.54576,-4.16757 c 5.15075,-0.17886 5.18448,-1.15245 0.1,-2.88492 -3.34964,-1.14134 -4.59449,-1.23721 -4.70651,-0.36247 -0.0838,0.65411 -0.20306,1.69081 -0.26508,2.30376 -0.062,0.61296 -0.77322,1.96296 -1.58045,3 -1.40648,1.8069 -1.37428,1.80582 0.77196,-0.0257 1.2318,-1.05116 3.78786,-1.96498 5.68012,-2.03069 z m -7.9692,-7.575877 c 0.21994,-3.414681 -0.002,-5.781032 -0.51157,-5.465818 -1.50822,0.932133 -2.67844,6.758665 -2.1857,10.882695 0.65586,5.48942 2.19374,2.40094 2.69727,-5.416877 z m 17.07383,7.549587 c 1.06762,-0.8075 1.46464,-1.4825 0.88226,-1.5 -0.58238,-0.0175 -1.93238,0.62889 -3,1.4364 -1.06762,0.8075 -1.46464,1.4825 -0.88226,1.5 0.58238,0.0175 1.93238,-0.62889 3,-1.4364 z m 113.92667,-0.65577 c 1.97992,-1.16818 3.41805,-2.30577 3.19585,-2.52798 -0.70379,-0.70378 -5.20957,1.37851 -6.59493,3.04777 -1.78848,2.15499 -0.90547,2.01996 3.39908,-0.51979 z m -3.71137,-3.87977 c 3.64015,-2.219397 4.64839,-2.488994 3.72583,-0.99626 -0.89886,1.45439 0.73503,1.22411 3.10809,-0.43805 2.50683,-1.755852 10.85357,-12.433641 10.21687,-13.070283 -0.2516,-0.251605 -1.9159,-0.03918 -3.69849,0.472062 -1.78259,0.511239 -3.82056,0.707154 -4.52883,0.435367 -0.70826,-0.271788 -2.58461,1.21473 -4.16965,3.303372 -1.58504,2.088643 -4.63707,5.710032 -6.7823,8.047532 -4.17513,4.54934 -3.25009,5.52557 2.12848,2.24626 z M 279.98946,95 l -0.049,-5.5 -2.0655,5.240514 c -1.7101,4.338812 -1.8431,5.508386 -0.7734,6.797336 1.9315,2.32736 2.9475,0.0276 2.8884,-6.53785 z m -149.04662,0.613424 2.37324,-1.315705 -2.37324,-0.635205 c -1.30528,-0.349362 -3.40092,-0.641349 -4.65697,-0.648859 -1.54205,-0.0092 -2.95437,-1.15032 -4.34877,-3.513655 -1.13578,-1.925 -2.28516,-3.5 -2.55417,-3.5 -0.81697,0 0.84134,8.411502 1.92218,9.75 1.3077,1.619434 6.6057,1.544356 9.63773,-0.136576 z M 117.28836,84.469132 116.70069,81.5 115.98482,84 c -0.39372,1.375 -0.76072,3.612628 -0.81554,4.972506 -0.0969,2.403047 -0.0603,2.416226 1.30354,0.469132 0.85768,-1.224515 1.17474,-3.157694 0.81554,-4.972506 z m 115.69341,-9.424322 4.35522,-2.221868 -2.03364,-2.033632 c -1.97264,-1.972645 -2.1041,-1.979398 -4.38369,-0.225178 -1.29253,0.99465 -3.61009,3.27467 -5.15012,5.066711 l -2.80005,3.258257 2.82853,-0.811211 c 1.55569,-0.446166 4.78837,-1.811051 7.18375,-3.033079 z m 65.75449,7.288523 c -1.1629,-1.162901 -0.7229,-3.613755 0.9883,-5.504592 C 301.27766,75.112631 301.25116,75 299.29416,75 c -1.3794,0 -2.2187,0.761769 -2.4791,2.25 -0.3563,2.036624 -0.4705,2.077195 -1.2042,0.427814 -0.561,-1.260973 -0.1261,-2.748131 1.4121,-4.82861 2.5072,-3.391179 2.1945,-4.533871 -0.802,-2.930224 -3.2154,1.720841 -3.8666,1.193652 -1.2334,-0.99856 2.1923,-1.825144 2.5638,-1.8672 3.9805,-0.450565 1.2827,1.282774 1.3407,1.917606 0.3235,3.546311 -1.0216,1.63583 -0.9846,1.983834 0.2105,1.983834 2.3689,0 2.8854,1.991291 1.0442,4.025768 -0.9456,1.044858 -1.4538,2.591502 -1.1293,3.436987 0.6312,1.645019 0.3954,1.94666 -0.6807,0.870578 z m -8.0813,-16.504598 C 288.50066,63.312682 289.56876,60.5 292.67856,60.5 c 1.8508,0 1.9319,0.418266 1.212,6.25 -0.2226,1.803398 -1.1219,1.54735 -3.2356,-0.921265 z m 3.1293,-4.447426 c -0.9589,-0.958919 -3.8104,1.654724 -3.0853,2.827959 0.3612,0.584529 1.2442,0.345691 2.1794,-0.589497 0.8647,-0.864684 1.2723,-1.871992 0.9059,-2.238462 z m -6.3932,-1.800682 c -0.9314,-1.061473 -0.5642,-1.931949 1.75,-4.149054 3.3793,-3.237626 4.0017,-2.202841 0.7542,1.253976 -2.259,2.404626 -1.2994,3.257377 1.1978,1.064451 0.7829,-0.6875 0.5782,-0.2375 -0.455,1 -1.0331,1.2375 -1.9212,2.232883 -1.9735,2.211963 -0.052,-0.02092 -0.6253,-0.642522 -1.2735,-1.381336 z m -4.827,-4.589576 C 281.75276,53.67834 282.92606,50 284.15606,50 c 0.5234,0 0.6693,1.125 0.3242,2.5 -0.6213,2.475408 0.8387,3.52358 2.0893,1.5 0.34,-0.55 1.154,-0.985688 1.8091,-0.968197 1.5673,0.04185 -2.3182,2.968197 -3.9412,2.968197 -0.6874,0 -1.5304,-0.454027 -1.8734,-1.008949 z M 278.56956,45 c 0.9955,-1.1 2.035,-2 2.31,-2 0.275,0 -0.3145,0.9 -1.31,2 -0.9955,1.1 -2.0349,2 -2.3099,2 -0.275,0 0.3144,-0.9 1.3099,-2 z m -4.9043,-3.388659 c 0.8169,-2.128883 -0.2987,-4.912934 -1.6372,-4.085695 -0.727,0.44935 -0.6911,1.091567 0.1154,2.063382 1.8224,2.195866 -0.261,1.651415 -3.4521,-0.90215 -2.62,-2.096472 -2.7555,-2.499911 -1.5095,-4.495033 1.358,-2.174496 3.8877,-3.016936 3.8877,-1.294673 0,1.463553 5.3375,7.102828 6.7227,7.102828 1.6513,0 1.6776,1.651437 0.027,1.714224 -0.6875,0.02616 -2.0426,0.37626 -3.0113,0.778007 -1.3526,0.560948 -1.6179,0.356537 -1.143,-0.88089 z m -3.0957,-5.444674 c 0,-1.808656 -1.9573,-1.478465 -2.3455,0.39568 -0.216,1.042717 0.1589,1.499861 1,1.219487 0.7401,-0.246675 1.3455,-0.973501 1.3455,-1.615167 z m -8.7333,-3.011111 C 259.75373,31.030688 259.38071,30.088889 260.2696,29.2 c 1.66936,-1.669412 0.15428,-2.738916 -1.7,-1.2 -2.40065,1.992367 -2.77809,0.561645 -0.41581,-1.576189 1.98054,-1.792369 2.16666,-1.801245 3.36637,-0.160536 0.6985,0.955199 2.0078,1.736725 2.9097,1.736725 1.7695,0 2.3003,3.473737 0.6834,4.473008 -0.526,0.325073 -0.7028,1.251631 -0.393,2.059017 0.796,2.074257 0.2361,1.807045 -2.884,-1.376469 z m 3.0458,-3.093056 c 0.25,-0.75 -0.125,-1.125 -0.875,-0.875 -0.7218,0.240625 -1.5093,1.028125 -1.75,1.75 -0.25,0.75 0.125,1.125 0.875,0.875 0.7219,-0.240625 1.5094,-1.028125 1.75,-1.75 z M 252.0696,23.728961 c 0,-0.833241 -0.675,-1.774005 -1.5,-2.090587 C 248.86977,20.986086 248.50784,18 250.12862,18 c 0.58246,0 0.80012,0.418906 0.48369,0.930902 -0.31644,0.511996 -0.11799,1.213553 0.44098,1.559017 0.55897,0.345463 1.01631,-0.1 1.01631,-0.989919 0,-0.889919 0.43035,-1.352065 0.95633,-1.026992 0.52598,0.325073 0.70283,1.251631 0.39301,2.059017 C 253.07557,21.42683 253.45054,22 254.37928,22 c 2.01251,0 2.65719,-2.016898 1.43838,-4.5 -0.94244,-1.920045 -0.90774,-1.929289 0.86817,-0.231236 2.09159,1.999886 1.34129,4.019534 -2.42137,6.51785 -1.93526,1.284965 -2.19486,1.278146 -2.19486,-0.05765 z m -6.33333,-0.395628 C 244.63143,22.228496 244.9862,17.483397 246.2696,16.2 c 0.66,-0.66 1.88513,-1.2 2.72251,-1.2 1.03673,0 0.78296,0.517997 -0.79538,1.623506 -1.74639,1.223219 -2.21378,2.332723 -1.8957,4.5 0.45694,3.113274 0.43287,3.207457 -0.56476,2.209827 z"
     id="path5703"
     inkscape:connector-curvature="0" />
</svg>
