<?xml version="1.0" encoding="UTF-8" standalone="no"?>
<!-- Created with Inkscape (http://www.inkscape.org/) -->

<svg
   xmlns:dc="http://purl.org/dc/elements/1.1/"
   xmlns:cc="http://creativecommons.org/ns#"
   xmlns:rdf="http://www.w3.org/1999/02/22-rdf-syntax-ns#"
   xmlns:svg="http://www.w3.org/2000/svg"
   xmlns="http://www.w3.org/2000/svg"
   xmlns:sodipodi="http://sodipodi.sourceforge.net/DTD/sodipodi-0.dtd"
   xmlns:inkscape="http://www.inkscape.org/namespaces/inkscape"
   version="1.1"
   id="svg5693"
   width="300"
   height="640"
   viewBox="0 0 300 640"
   sodipodi:docname="port.svg"
   inkscape:version="0.92.4 (5da689c313, 2019-01-14)">
  <metadata
     id="metadata5699">
    <rdf:RDF>
      <cc:Work
         rdf:about="">
        <dc:format>image/svg+xml</dc:format>
        <dc:type
           rdf:resource="http://purl.org/dc/dcmitype/StillImage" />
        <dc:title></dc:title>
      </cc:Work>
    </rdf:RDF>
  </metadata>
  <defs
     id="defs5697" />
  <sodipodi:namedview
     pagecolor="#ffffff"
     bordercolor="#666666"
     borderopacity="1"
     objecttolerance="10"
     gridtolerance="10"
     guidetolerance="10"
     inkscape:pageopacity="0"
     inkscape:pageshadow="2"
     inkscape:window-width="1920"
     inkscape:window-height="1027"
     id="namedview5695"
     showgrid="false"
     inkscape:zoom="0.853125"
     inkscape:cx="528.39971"
     inkscape:cy="366.88645"
     inkscape:window-x="-8"
     inkscape:window-y="-8"
     inkscape:window-maximized="1"
     inkscape:current-layer="svg5693" />
  <path
     style="fill:#000000"
     d="m -167.61904,638.34433 c 0,-2.2 0.45,-4 1,-4 0.55,0 1,-0.47656 1,-1.05902 0,-0.58246 -0.45,-0.7809 -1,-0.44098 -0.66586,0.41152 -1,-104.82295 -1,-314.94098 V 2.3443244 h 11.88709 11.8871 l 0.6359,25.2500006 c 0.34974,13.8875 1.07956,46.849999 1.62183,73.249995 0.54226,26.40001 1.44495,64.87501 2.00597,85.50001 2.50957,92.25964 4.10152,203.34943 4.65377,324.75 l 0.59705,131.25 h -16.64436 -16.64435 z m 350,-40.81969 c 0,-0.53148 0.68734,-1.23009 1.52742,-1.55246 1.30023,-0.49894 1.14898,-1.33292 -1.01685,-5.60699 -1.39934,-2.76147 -2.12682,-5.02086 -1.61662,-5.02086 1.35058,0 5.32135,8.64352 4.92241,10.71505 -0.35295,1.83273 -3.81636,3.16249 -3.81636,1.46526 z m -63.2035,-2.86003 c -2.05081,-2.27531 -3.16897,-6.57136 -2.36757,-9.09635 0.79887,-2.51701 4.69428,-4.22393 9.63956,-4.22393 3.28802,0 4.17471,0.43967 5.13436,2.54586 1.01715,2.2324 0.84241,2.86342 -1.41917,5.125 -2.65116,2.65117 -7.09104,3.42178 -8.95802,1.5548 -1.33824,-1.33824 -0.18783,-4.87271 1.83916,-5.65053 1.80347,-0.69206 4.59748,1.19145 3.76515,2.53818 -0.91205,1.47572 1.23722,0.99263 2.53368,-0.56951 0.66469,-0.8009 0.91823,-1.9259 0.56342,-2.5 -1.00194,-1.62117 -8.18767,-1.24035 -9.95564,0.52763 -1.83115,1.83115 -1.89748,2.44078 -0.62871,5.7779 1.25839,3.30982 4.35636,4.14682 8.21809,2.22033 3.5369,-1.76443 4.83919,-1.96093 4.83919,-0.73018 0,1.10061 -3.96297,2.87535 -8.19233,3.66878 -2.55196,0.47875 -3.76893,0.19025 -5.01117,-1.18798 z m 23.58937,-0.75709 c -2.08758,-5.44017 2.9481,-8.4398 5.44006,-3.24051 0.88329,1.84292 1.8715,2.62367 2.84703,2.24932 0.91944,-0.35282 1.33433,-0.0923 1.07864,0.67732 -0.60679,1.82642 -8.68146,2.09703 -9.36573,0.31387 z m 3.61413,-2.00417 c 0,-0.79254 -0.45,-1.7191 -1,-2.05902 -0.55,-0.33992 -1,0.30852 -1,1.44098 0,1.13246 0.45,2.05902 1,2.05902 0.55,0 1,-0.64844 1,-1.44098 z m -11.77961,1.26137 c -1.46455,-1.46455 -1.63761,-6.82039 -0.22039,-6.82039 0.55,0 1,0.49814 1,1.10699 0,0.60884 0.66269,0.85269 1.47263,0.54188 0.85137,-0.32669 2.117,0.35486 3,1.61552 1.74624,2.49311 1.99597,4.73561 0.52737,4.73561 -0.55,0 -1,-0.64844 -1,-1.44098 0,-2.40248 -1.96516,-2.82741 -2.78807,-0.60288 -0.60695,1.64073 -1.03103,1.82476 -1.99154,0.86425 z m 20.34231,-0.40055 c -0.78091,-0.78091 -1.90199,-1.41984 -2.49127,-1.41984 -1.36658,0 -1.34836,-0.2376 0.25525,-3.32856 1.27424,-2.4561 1.38896,-2.48443 2.90247,-0.71678 1.11897,1.30686 1.26569,2.1505 0.50611,2.91008 -0.75959,0.75959 -0.5446,1.27119 0.7416,1.76475 1.29604,0.49734 2.36296,-0.0623 3.75062,-1.96721 2.33698,-3.20816 4.82275,-3.41275 6.61408,-0.54438 0.9779,1.56588 1.0301,2.41044 0.20027,3.24027 -1.70135,1.70135 -10.79451,1.74629 -12.47913,0.0617 z m 11.4373,-1.36082 c 0,-1.35037 -1.82294,-2.28649 -3.01631,-1.54894 -0.55897,0.34546 -0.75742,1.04702 -0.44098,1.55902 0.75067,1.21461 3.45729,1.20672 3.45729,-0.0101 z m 2.60029,-1.86507 c -1.32673,-2.56562 -1.28725,-2.90835 0.46076,-4 2.80325,-1.75066 4.72378,-1.46451 5.98479,0.8917 1.35026,2.52298 0.21415,4.13031 -1.17053,1.65602 -1.60083,-2.86051 -3.19064,-2.06833 -2.52531,1.25833 0.75603,3.78013 -0.83711,3.8925 -2.74971,0.19395 z m 9.58359,-1.68972 c -0.62755,-1.37733 -0.73097,-2.50423 -0.22983,-2.50423 0.98385,0 2.50598,3.8733 1.7997,4.57959 -0.23588,0.23587 -0.94232,-0.69804 -1.56987,-2.07536 z m 7.01612,1.29577 c -1.45314,-1.45314 -1.59259,-4.8 -0.2,-4.8 0.55,0 1,0.9 1,2 0,1.1 0.50888,2 1.13084,2 0.73391,0 0.93148,-1.22852 0.56287,-3.5 -0.65445,-4.03294 0.76782,-4.78156 1.73828,-0.91496 1.25312,4.99282 -1.30358,8.14337 -4.23199,5.21496 z m 8.37848,-1.55 c -1.14306,-1.13571 -3.57848,-7.28728 -3.57848,-9.03879 0,-2.36704 1.24029,-0.6066 3.18844,4.52562 1.74132,4.58734 1.86124,5.97491 0.39004,4.51317 z m 8.25306,-1.72039 c -2.14071,-4.69833 4.19357,-7.92156 6.93639,-3.52961 1.59107,2.54771 4.75081,2.75875 3.74312,0.25 -2.0321,-5.05913 -2.02999,-4.86715 -0.0357,-3.25 1.41039,1.14365 1.9498,1.20304 2.27056,0.25 0.68852,-2.04568 3.09298,-1.42546 4.84601,1.25 0.90093,1.375 2.10605,2.5 2.67804,2.5 0.57199,0 0.29523,-0.82293 -0.61501,-1.82874 -3.71452,-4.1045 -1.12354,-7.51739 4.70845,-6.20206 2.08725,0.47075 4.06093,1.12184 4.38596,1.44686 0.32502,0.32503 1.58779,-0.0622 2.80616,-0.8605 3.31371,-2.17123 3.81156,-0.6087 0.67668,2.12382 -1.51912,1.32415 -3.5364,2.1805 -4.54341,1.92871 -1.00433,-0.25111 -2.05948,0.19425 -2.36858,0.99972 -0.30657,0.79891 -1.74154,2.07995 -3.18882,2.84674 -2.43153,1.28826 -2.84713,1.19101 -5.47075,-1.28019 -1.84042,-1.73349 -2.76622,-2.14664 -2.63152,-1.17436 0.45342,3.2729 -0.18543,4.00135 -4.05132,4.61953 -2.21219,0.35375 -4.26375,1.03407 -4.55902,1.51182 -1.10001,1.77985 -4.48922,0.80825 -5.58728,-1.60174 z m 4.99178,-1.86248 c 0.18707,-0.96457 -0.31483,-1.66713 -1.19098,-1.66713 -1.85773,0 -2.97896,1.63015 -2.09972,3.05279 0.90454,1.46356 2.90118,0.62281 3.2907,-1.38566 z m 17.83161,-6.34553 c -0.28703,-0.28703 -1.02366,-0.21175 -1.63696,0.16729 -0.8004,0.49468 -0.74862,1.1313 0.18347,2.25586 1.16994,1.41152 1.33208,1.39495 1.63696,-0.16729 0.18612,-0.9537 0.10356,-1.96884 -0.18347,-2.25586 z m -28.19605,8.61187 c -1.07627,-1.74144 0.14952,-2.11024 1.52106,-0.45764 0.78875,0.95039 0.86462,1.52417 0.20152,1.52417 -0.58488,0 -1.36004,-0.47994 -1.72258,-1.06653 z M 118.88096,575.35307 C 99.193325,571.43846 82.316935,564.03358 66.781875,552.4935 c -2.87666,-2.1369 -3.34317,-2.20145 -6.5,-0.89931 -2.36136,0.97403 -5.32678,1.21392 -9.70139,0.78483 -4.56037,-0.44731 -6.59653,-0.26126 -7.37244,0.67366 -1.76087,2.12172 -4.31368,1.47734 -6.64625,-1.67763 -1.79198,-2.42378 -2.87084,-2.94388 -5.87247,-2.83103 -5.0648,0.1904 -9.23624,-4.73062 -12.23231,-14.4304 -2.39033,-7.73865 -3.77391,-22.23592 -2.67909,-28.07176 0.75997,-4.051 5.55863,-7.56953 16.60303,-12.17386 14.22744,-5.93131 12.6368,-4.35989 13.87066,-13.70309 0.60434,-4.57632 1.75381,-14.39558 2.55438,-21.82058 0.80057,-7.425 2.34437,-20.25 3.43067,-28.5 3.34708,-25.41968 6.35003,-55.54413 5.76806,-57.8629 -0.30448,-1.21313 -0.1485,-18.84025 0.34662,-39.17139 0.7526,-30.90398 1.23415,-38.56001 2.93659,-46.68811 3.70492,-17.68875 9.95617,-26.51716 24.61661,-34.76514 4.38702,-2.46815 14.453575,-9.35163 22.370105,-15.29662 7.91653,-5.94499 15.79153,-11.4402 17.5,-12.21157 6.61878,-2.98839 8.47266,-5.51367 9.55717,-13.01845 1.378,-9.53566 1.34817,-10.97663 -0.20086,-9.7027 -1.76794,1.45397 -9.30726,1.37414 -7.85,-0.0831 0.605,-0.605 1.1,-1.86338 1.1,-2.79641 0,-2.08284 -5.67595,-7.18746 -11.0278,-9.91777 -2.18471,-1.11458 -3.9722,-2.39234 -3.9722,-2.8395 0,-4.91855 14.13546,5.12787 15.93951,11.32861 l 0.88011,3.02505 0.0902,-3.12756 c 0.0496,-1.72015 -0.58482,-3.68775 -1.40982,-4.37244 -0.825,-0.68469 -1.5,-1.73814 -1.5,-2.341 0,-0.60286 -2.29403,-3.41899 -5.09784,-6.25807 -3.13245,-3.17185 -4.67458,-5.42355 -4,-5.84046 0.60381,-0.37318 1.09784,-0.21817 1.09784,0.34446 0,0.56263 1.55384,2.07883 3.45297,3.36932 4.51747,3.0697 11.54703,11.94793 11.54703,14.58373 0,1.13941 -0.93854,2.57394 -2.08565,3.18786 -1.1471,0.61391 -1.83615,1.3657 -1.5312,1.67064 0.30494,0.30494 1.69348,-0.19189 3.08564,-1.10407 5.18169,-3.39518 1.15195,-15.08006 -6.2642,-18.16407 -7.20622,-2.99672 -17.13883,-14.70286 -18.62305,-21.94834 -0.56061,-2.73669 0.88927,-10.04438 2.97101,-14.9745 0.79057,-1.8723 0.69189,-1.86294 -1.90637,0.18086 -1.50706,1.18544 -3.95647,2.4295 -5.44314,2.76455 -1.48667,0.33506 -4.805535,2.14514 -7.375245,4.0224 -4.3462,3.17505 -4.72108,3.80436 -5.37261,9.01908 l -0.70041,5.60586 -2.37739,-2.23344 c -1.30756,-1.22839 -2.37739,-3.28 -2.37739,-4.55912 0,-2.67967 -1.94407,-3.20992 -2.11069,-0.57569 -0.63402,10.02367 3.82379,16.37096 15.842285,22.55717 6.14874,3.16491 6.02988,3.14456 6.44509,1.10326 0.26086,-1.2825 0.80625,-1.09547 2.82332,0.96823 1.375,1.40678 3.46909,3.51549 4.65354,4.68602 l 2.15354,2.12824 -2.0557,2.0557 c -1.96189,1.96189 -2.11555,1.97384 -3.36747,0.26173 -0.72148,-0.98669 -1.44051,-2.12628 -1.59785,-2.53244 -0.15733,-0.40616 -4.78606,-3.20701 -10.286065,-6.22411 -8.82897,-4.84325 -10.29276,-6.04 -12.5,-10.21966 -1.375,-2.60371 -3.93597,-6.19252 -5.69106,-7.97514 -1.75508,-1.78261 -3.49341,-4.44579 -3.86295,-5.91818 -0.8274,-3.2966 0.36989,-13.64082 1.57885,-13.64082 0.48451,0 0.62287,2.3625 0.30746,5.25 l -0.57347,5.25 3.15192,-4.65504 c 1.73356,-2.56026 3.80256,-4.9047 4.59778,-5.20986 0.79523,-0.30516 0.10613,1.29463 -1.53133,3.55507 -2.41284,3.33083 -2.96472,5.07666 -2.91139,9.20987 l 0.0658,5.09996 1.45273,-5.40251 c 0.83071,-3.08934 2.53726,-6.40762 3.98571,-7.75 2.55685,-2.36961 4.85462,-3.37217 2.62994,-1.14749 -0.66,0.66 -1.18198,2.7975 -1.15996,4.75 l 0.04,3.55 1.44399,-2.65857 c 0.7942,-1.46222 3.11322,-3.69021 5.15338,-4.9511 l 3.70938,-2.29252 -3.19342,-0.8275 c -1.75632,-0.45512 -3.19336,-0.97131 -3.19336,-1.14709 0,-0.17578 2.60959,-0.32369 5.79908,-0.32869 6.772755,-0.0106 9.129945,-1.05077 15.096105,-6.66132 2.41734,-2.27327 4.15958,-3.45154 3.87163,-2.61838 -0.42173,1.2202 0.23198,1.44277 3.36109,1.14436 5.20309,-0.49619 5.71066,-1.78198 1.41241,-3.5779 -4.69977,-1.96369 -4.48913,-2.91739 0.45969,-2.08129 3.00744,0.5081 4.00339,0.34381 4.01365,-0.6621 0.008,-0.73585 0.27017,-2.2937 0.58369,-3.46191 0.50871,-1.89553 0.15764,-2.12359 -3.26366,-2.12014 -5.579,0.006 -17.46431,-1.98648 -18.59447,-3.11664 -0.62737,-0.62737 1.16128,-0.77722 5.05869,-0.42382 11.30487,1.02509 20.06521,-5.54378 23.11146,-17.32994 0.97878,-3.787 2.12346,-7.956378 2.54372,-9.265283 0.75285,-2.344769 0.69253,-2.369106 -4.09449,-1.651958 -2.67222,0.400328 -5.08359,1.067127 -5.35859,1.481775 -1.21569,1.833037 -13.2925,5.085766 -16.58749,4.467616 -4.7097,-0.88354 -4.27603,-1.906025 0.83749,-1.974601 2.3375,-0.03135 6.69053,-0.748856 9.6734,-1.594464 l 5.4234,-1.537468 -4.4234,-0.82845 c -4.08897,-0.765814 -3.68199,-0.882639 5.38291,-1.545176 5.39347,-0.3942 10.0438,-0.954224 10.33408,-1.244499 0.29027,-0.290275 0.7616,-2.271107 1.04739,-4.40185 0.37729,-2.8129 0.0803,-4.23865 -1.08408,-5.205033 -0.88203,-0.732025 -1.6037,-2.175854 -1.6037,-3.20851 0,-2.405498 -1.67977,-2.365827 -8.21298,0.193963 -6.24326,2.446183 -8.64341,4.321276 -3.72617,2.911031 5.0208,-1.439946 7.14201,-1.006973 2.40387,0.490667 -2.2194,0.701513 -6.36694,2.457022 -9.21676,3.901131 -2.84981,1.44411 -6.26075,2.625654 -7.57986,2.625654 -1.31911,0 -3.47157,0.834386 -4.78324,1.854191 -1.31167,1.019805 -3.73486,2.576788 -5.384865,3.459962 -6.30732,3.376037 0.99772,1.655905 10.000005,-2.35472 4.95,-2.205285 10.8,-4.22793 13,-4.494766 l 4,-0.485159 -3.17823,1.260247 c -7.47095,2.962413 -3.33387,3.843909 5.59536,1.192213 6.85918,-2.036957 7.76492,-1.151387 1.08995,1.065681 -2.96597,0.985135 -6.88741,1.518953 -9.31478,1.268003 -3.22613,-0.333527 -5.42208,0.212971 -9.52844,2.371314 -7.10394,3.733905 -11.264855,4.387226 -18.027135,2.830513 -6.77123,-1.55877 -9.13673,-2.64684 -9.13673,-4.202663 0,-0.866875 0.30694,-0.857875 1.2,0.03518 3.4175,3.417499 11.12936,0.0014 28.800005,-12.757449 15.14878,-10.93797 18.27479,-12.265461 29.24612,-12.419642 l 8.74612,-0.12291 0.004,-3.749999 c 0.005,-4.727707 1.14668,-4.770786 3.36123,-0.126816 l 1.72778,3.623184 5.20743,-0.863022 c 4.96252,-0.822432 19.81244,-1.097887 26.20744,-0.486128 1.65,0.157842 5.7,-0.0295 9,-0.416317 8.22199,-0.963758 13.95158,0.735381 18.78782,5.571626 3.08454,3.08454 3.66231,4.214174 2.87497,5.621074 -0.77842,1.390957 -0.17067,2.733817 2.8938,6.393988 6.66228,7.957362 7.34161,13.261486 2.33916,18.26393 l -2.47737,2.47737 2.51512,2.71385 c 3.94562,4.2574 7.25174,10.51074 8.9058,16.84482 0.83575,3.20045 2.29605,6.67702 3.24511,7.72572 1.63593,1.80768 1.63324,1.90672 -0.0519,1.90672 -1.46655,0 -1.5597,0.26235 -0.53254,1.5 1.01254,1.22004 0.96472,1.5 -0.25623,1.5 -0.82562,0 -1.95316,-1.2375 -2.50564,-2.75 -0.55248,-1.5125 -2.06957,-5.67195 -3.37132,-9.24321 -1.6726,-4.5887 -3.77748,-7.91984 -7.17633,-11.35714 -5.28396,-5.34373 -6.73101,-5.5625 -4.18143,-0.63215 0.91108,1.76184 2.63735,7.5768 3.83615,12.92212 1.62853,7.26147 2.53283,9.60104 3.57656,9.25313 1.0279,-0.34264 1.19026,0.0327 0.61458,1.4208 -0.4303,1.03755 -0.70449,6.16145 -0.60932,11.38645 0.18668,10.24924 -1.39734,19.56465 -5.52642,32.5 -3.43543,10.76231 -8.26535,19.16443 -14.21659,24.73111 -6.50925,6.08864 -11.16119,7.48731 -19.6812,5.91744 -3.54034,-0.65233 -7.1268,-1.45077 -7.9699,-1.77429 -1.23527,-0.47402 -1.52673,0.25775 -1.50111,3.76875 0.0175,2.39635 0.6925,5.2305 1.5,6.29812 0.80751,1.06762 1.4682,2.741 1.4682,3.71861 0,1.11857 0.5226,1.57695 1.40974,1.23652 1.67002,-0.64084 5.08753,1.03532 13.48981,6.61627 3.40396,2.26097 8.98159,5.36386 12.39473,6.89531 9.64672,4.3284 19.71715,11.22619 25.28189,17.31694 5.67307,6.20932 7.88516,11.89604 11.38783,29.27522 3.97119,19.70388 6.91584,33.16365 9.40765,43.00174 3.07071,12.12369 9.14056,41.06501 10.08829,48.10142 0.37804,2.80674 0.20978,8.53674 -0.37392,12.73334 -1.01676,7.31025 -2.02653,10.60061 -9.1034,29.6635 -1.73553,4.675 -4.1875,11.65 -5.44881,15.5 -3.39834,10.373 -5.87632,16.24661 -13.01624,30.85263 l -6.44666,13.18784 3.58099,7.47976 c 4.65125,9.71525 9.48073,24.58792 12.6576,38.97977 3.58373,16.23502 4.2457,22.62331 2.55667,24.6731 -2.13305,2.58865 -10.76598,7.73379 -17.36617,10.35005 -3.3,1.30809 -7.35,3.14125 -9,4.0737 -1.65,0.93244 -6.375,2.70164 -10.5,3.93154 -4.125,1.22991 -9.38906,2.83837 -11.69791,3.57435 -9.6901,3.08889 -25.79149,5.67005 -40.30209,6.46069 -21.81793,1.1888 -29.20953,0.99143 -39.5,-1.05469 z m 29.89096,-3.54256 c 1.15978,-1.15978 1.29936,-2.15051 0.57237,-4.06264 -1.40095,-3.68476 -4.66305,-22.62466 -5.49489,-31.90354 -0.87611,-9.77261 -1.99326,-12.10157 -7.8079,-16.27732 l -4.53665,-3.25798 -0.0869,23.58926 c -0.0478,12.97409 0.20731,25.80703 0.56689,28.51765 l 0.65377,4.92839 h 7.29974 c 5.22686,0 7.7353,-0.43555 8.83356,-1.53382 z m 11.2074,-9.21618 c -0.94244,-12.18639 -3.45253,-34.11841 -5.06436,-44.25 -0.74375,-4.675 -2.1647,-15.15465 -3.15767,-23.28811 -0.99297,-8.13346 -2.10937,-15.27995 -2.4809,-15.88109 -0.47184,-0.76345 -3.04528,-0.82733 -8.53547,-0.21189 l -7.85996,0.88109 -0.5,10.38051 c -0.275,5.70928 -0.34724,13.02763 -0.16052,16.26299 l 0.33947,5.88248 5.57392,2.72928 c 6.36843,3.11831 8.58623,6.8318 9.70181,16.24474 0.60531,5.10738 6.26001,35.94429 7.10575,38.75 0.20724,0.6875 1.57781,1.25 3.0457,1.25 h 2.66891 z m -52.68099,-29 c 0.0387,-18.5625 0.36211,-38.5875 0.71878,-44.5 l 0.6485,-10.75 -6.14232,-0.15 c -3.378285,-0.0825 -6.682645,-0.195 -7.343015,-0.25 -1.48569,-0.12374 -5.02419,16.1645 -7.2559,33.4 -2.40689,18.58845 -3.23944,45.44564 -1.44404,46.58327 1.02846,0.65166 13.37154,6.25645 20.574165,9.34238 0.0954,0.0409 0.20517,-15.11315 0.24383,-33.67565 z m 90.58263,30.44838 4,-1.41441 -0.31502,-7.89199 c -0.97428,-24.40793 -9.83976,-82.95895 -13.11909,-86.64345 -0.67298,-0.75614 -12.83578,2.85362 -14.41007,4.27672 -0.4643,0.41971 -0.12436,5.42323 0.75541,11.11893 4.89932,31.71838 9.60437,69.93922 9.59445,77.93915 -0.003,2.52084 0.23356,4.82258 0.52597,5.11499 0.68903,0.68903 7.85832,-0.69301 12.96835,-2.49994 z m 37.54885,-14.29339 6.84131,-3.59501 -0.52601,-6.15499 c -0.50649,-5.92664 -3.99053,-24.61471 -4.72608,-25.35026 -1.51504,-1.51504 -16.10266,-11.17348 -16.41066,-10.86547 -0.21597,0.21597 0.5299,5.26798 1.65748,11.2267 1.12759,5.95872 2.55456,14.65904 3.17105,19.33404 0.61649,4.675 1.2751,9.625 1.46357,11 0.18848,1.375 0.3737,3.7375 0.41159,5.25 0.0379,1.5125 0.34059,2.75 0.67267,2.75 0.33207,0 3.68236,-1.61775 7.44508,-3.59501 z M 41.710535,548.49664 c -0.35824,-1.36991 -1.14259,-1.71955 -3.04269,-1.35632 l -2.56003,0.48938 2.35861,1.7791 c 2.72903,2.05851 3.93247,1.72013 3.24411,-0.91216 z m 10.67042,0.87036 c 1.1458,-0.72316 1.5,-3.00055 1.5,-9.6445 0,-12.69358 -2.73529,-12.19572 -5.47394,0.99632 -0.88691,4.27218 -1.56613,5.63224 -2.6123,5.23079 -2.04833,-0.78602 -1.75598,2.09602 0.33624,3.31462 2.20299,1.28313 4.32452,1.31801 6.25,0.10277 z m 6.72967,0.16557 c 1.50242,-0.95441 2.66879,-16.10329 1.39098,-18.06636 -1.87274,-2.87705 -3.12065,0.12327 -3.12065,7.50288 0,4.1287 -0.46583,8.37714 -1.03518,9.44098 -1.11129,2.07645 0.33732,2.66457 2.76485,1.1225 z m -15.54055,-6.33169 c 1.01362,-0.51713 1.95953,-2.665 2.3653,-5.37087 0.3719,-2.48002 1.52968,-5.59417 2.57283,-6.92033 1.619,-2.05822 2.69448,-2.39251 7.34669,-2.28359 2.99752,0.0702 5.65325,-0.077 5.90163,-0.32708 0.24838,-0.25007 0.76082,-3.60468 1.13876,-7.45468 0.5627,-5.73211 0.45157,-6.77359 -0.61358,-5.75 -2.31465,2.22435 -7.58202,1.34072 -18.60344,-3.12082 -12.24931,-4.95861 -17.25767,-6.21379 -17.37382,-4.35418 -0.0421,0.67375 -0.26401,2.125 -0.49316,3.225 -1.28061,6.14714 3.87442,25.46589 8.86372,33.21725 0.81039,1.25902 5.65998,0.78976 8.89507,-0.8607 z m -22.27763,-19.44116 c -1.31958,-6.25719 -1.88944,-11.67977 -1.54457,-14.69765 0.33442,-2.92641 0.17522,-4.5528 -0.41021,-4.19098 -1.98093,1.22428 -0.88156,14.61119 2.11328,25.73317 2.02575,7.52304 1.92142,3.01805 -0.1585,-6.84454 z m 44.15622,-22.11539 c 0.86223,-4.84 1.86476,-10.2689 2.22784,-12.06422 l 0.66014,-3.26423 -2.72785,1.38437 c -1.50031,0.76141 -4.84738,1.69269 -7.43793,2.06951 -4.15145,0.60389 -10.2295,2.55005 -25.53991,8.17779 -2.3375,0.85921 -4.25,1.96218 -4.25,2.45105 0,1.00959 14.28907,8.00809 23.42094,11.47111 5.9922,2.27238 6.12193,2.27866 9.07906,0.43997 2.70223,-1.6802 3.15561,-2.73881 4.56771,-10.66535 z m 167.439645,-2.37278 c -0.80935,-2.98497 -2.19067,-8.46472 -3.0696,-12.17722 -0.87893,-3.7125 -1.92159,-6.75 -2.31702,-6.75 -1.07702,0 -2.94141,5.84686 -3.66701,11.5 l -0.64176,5 5.24631,4.26437 c 2.88547,2.34541 5.39803,4.11266 5.58346,3.92723 0.18544,-0.18543 -0.32504,-2.7794 -1.13438,-5.76438 z M 80.364225,488.84433 c 0.94556,-1.1 2.04903,-2.675 2.45216,-3.5 0.40313,-0.825 -0.6256,0.075 -2.28607,2 -3.32653,3.85647 -8.67061,12.37103 -9.72843,15.5 -0.37188,1.1 1.24069,-1.15 3.5835,-5 2.3428,-3.85 5.03328,-7.9 5.97884,-9 z m 140.849835,1.39193 c 0.0885,-2.25944 0.83486,-6.09297 1.65851,-8.51896 2.44449,-7.20008 19.45845,-51.14551 22.98691,-59.37297 6.12333,-14.27807 13.84909,-41.87276 13.26636,-47.38451 -0.93173,-8.81279 -10.72155,-54.66196 -15.39828,-72.11549 -1.32636,-4.95 -3.31183,-13.05 -4.41216,-18 -3.88633,-17.48342 -6.53459,-23.87365 -12.33726,-29.76977 -6.15607,-6.25522 -10.7967,-8.63946 -13.09808,-6.72948 -0.82451,0.68428 -1.4991,1.64394 -1.4991,2.13259 0,0.48865 -0.85776,2.79605 -1.90613,5.12756 -3.91468,8.70597 -7.91061,26.79946 -8.77635,39.7391 -0.44799,6.69586 -0.11287,8.6794 3.12558,18.5 8.87786,26.92207 14.84974,47.30094 17.18314,58.63695 l 1.77276,8.61232 2.80677,-3.87463 c 3.88957,-5.36939 5.20611,-4.85416 2.23675,0.87536 -1.87396,3.6159 -2.93357,8.45076 -4.43801,20.25 -2.77717,21.78131 -5.44109,34.77778 -10.04197,48.99181 -3.89201,12.02404 -9.0114,22.7112 -11.64401,24.30788 -0.72519,0.43983 -1.31853,1.22619 -1.31853,1.74746 0,1.15384 17.88913,20.95285 18.93167,20.95285 0.40725,0 0.8129,-1.84863 0.90143,-4.10807 z M 68.115385,484.82985 c 0.12894,-0.0666 0.9446,-3.55503 1.81257,-7.75211 1.07949,-5.21982 1.26975,-8.20729 0.60217,-9.45469 -1.37391,-2.56717 0.37579,-11.10927 3.00914,-14.69073 1.2781,-1.73826 3.03973,-7.17972 4.37052,-13.5 1.22616,-5.82339 3.3583,-15.76299 4.73808,-22.08799 3.38493,-15.51673 4.14993,-21.62434 2.8121,-22.45117 -0.59346,-0.36678 -1.07901,-3.51791 -1.07901,-7.00251 0,-3.48461 -0.87495,-9.19555 -1.94434,-12.69098 -5.00012,-16.34353 -9.22367,-35.00771 -9.69782,-42.85534 l -0.51356,-8.5 8.13609,-24 c 8.61976,-25.42676 15.45109,-48.40187 14.63444,-49.21852 -0.27,-0.27 -4.32841,2.06247 -9.01869,5.18328 -8.20805,5.46144 -13.26984,10.88513 -16.83187,18.03524 -3.65486,7.33646 -5.49754,29.13439 -6.29785,74.5 -0.32504,18.425 -0.77302,34.85 -0.99551,36.5 -0.22249,1.65 -0.89269,9.075 -1.48933,16.5 -3.14003,39.07679 -7.72963,77.57696 -9.94141,83.3944 -0.57208,1.50469 -1.04015,2.83652 -1.04015,2.95963 0,0.2022 18.17776,-2.58108 18.73443,-2.86851 z M 202.10838,466.09433 c 1.51862,-2.8875 2.92436,-5.61949 3.12388,-6.07108 0.19951,-0.45159 -1.93541,0.34349 -4.74427,1.76685 -2.80887,1.42335 -5.10703,2.84841 -5.10703,3.16678 0,0.67876 3.30571,6.38745 3.69876,6.38745 0.14715,0 1.51005,-2.3625 3.02866,-5.25 z m -66.16884,-9.75388 c 11.42668,-1.43279 32.57958,-6.36421 41.94142,-9.7779 12.06894,-4.4008 25.77658,-10.15305 27.79992,-11.66591 1.94846,-1.45686 1.90833,-1.68928 -3.80729,-22.05231 -0.92626,-3.3 -2.22765,-9.11434 -2.89196,-12.92076 l -1.20784,-6.92075 -5.44642,-2.1522 c -6.11801,-2.41758 -7.6188,-3.07369 -27.94641,-12.2174 -7.975,-3.5873 -15.06222,-6.9747 -15.74939,-7.52756 -1.67132,-1.34467 -0.94341,2.38 3.46662,17.73867 7.4656,26.00014 7.30611,25.10853 5.23885,29.28857 -1.00953,2.04129 -3.05208,7.76143 -4.539,12.71143 -3.12048,10.38818 -5.85575,15.5 -8.29382,15.5 -1.00591,0 -3.91815,-3.17104 -7.05155,-7.67821 -4.97812,-7.16065 -5.43155,-7.55017 -6.72688,-5.77869 -0.76393,1.04473 -1.09954,2.58742 -0.74581,3.42821 0.35373,0.84078 0.86307,3.58463 1.13188,6.09745 0.3673,3.43362 0.0687,4.98875 -1.20171,6.25919 -0.92973,0.92974 -2.14336,1.41051 -2.69694,1.06837 -0.66368,-0.41017 -0.63622,-0.99235 0.0806,-1.70919 0.59792,-0.59792 1.08689,-3.58463 1.08659,-6.63713 l -5.5e-4,-5.55 -4.74945,4.88844 c -5.78794,5.95732 -9.06902,8.21756 -10.17639,7.01021 -0.45331,-0.49426 -2.28619,-5.39865 -4.07305,-10.89865 -1.78686,-5.5 -3.57008,-10.35474 -3.96273,-10.78831 -0.39264,-0.43358 0.1365,-4.93358 1.17587,-10 1.22581,-5.97521 2.08571,-15.53589 2.44743,-27.21169 l 0.55766,-18 -4.97726,6.5 c -2.73749,3.575 -7.061595,8.72453 -9.609115,11.44341 -3.8137,4.07022 -4.63186,5.60847 -4.63186,8.70851 0,5.6265 -8.96363,48.0431 -10.9285,51.71447 -0.90793,1.69649 -0.42026,2.16252 4.20066,4.01424 2.87531,1.15221 7.02784,2.50522 9.22784,3.0067 5.52201,1.2587 33.327585,1.32895 43.058585,0.10879 z m 80.80263,-32.99612 c 0.9184,-4.675 2.51107,-13.90639 3.53927,-20.51419 1.71492,-11.02109 1.74489,-12.55032 0.36257,-18.5 -1.42411,-6.12954 -8.84727,-33.81829 -11.39015,-42.48581 l -1.17352,-4 -1.33802,7.5 c -0.73592,4.125 -1.8804,10.65 -2.5433,14.5 -0.66289,3.85 -1.21024,13.77895 -1.21631,22.06432 -0.0117,15.90643 0.0779,16.35529 10.0482,50.3529 0.77715,2.65002 2.03047,-0.3614 3.71126,-8.91722 z m -78.49392,-0.86302 c 3.06009,-6.63895 3.12945,-7.08787 2.1244,-13.75 -0.57143,-3.78784 -1.70619,-16.56198 -2.52168,-28.38698 -0.81549,-11.825 -2.09322,-28.7 -2.8394,-37.5 -0.74617,-8.8 -1.16264,-16.51698 -0.92547,-17.14885 0.23716,-0.63187 -0.10732,-1.48168 -0.76552,-1.88846 -1.36819,-0.84559 -0.65544,15.05449 1.5258,34.03731 0.69518,6.05 1.32148,15.95 1.39179,22 0.0703,6.05 0.65819,17.31348 1.30642,25.02995 l 1.17859,14.02995 -2.67111,4.55791 c -2.85342,4.869 -3.16677,5.88219 -1.81915,5.88219 0.46858,0 2.27548,-3.08836 4.01533,-6.86302 z m 43.15223,-43.38698 c 0.0107,-0.6875 0.69508,-6.2 1.52076,-12.25 0.82568,-6.05 2.15701,-16.4 2.95851,-23 3.72643,-30.68568 13.23562,-72.91536 20.89038,-92.77283 1.43596,-3.72505 2.61083,-7.00355 2.61083,-7.28554 0,-0.28199 -1.97543,-1.35947 -4.38983,-2.39441 -2.41441,-1.03493 -4.69097,-2.36894 -5.05902,-2.96446 -2.17407,-3.51772 -4.6597,1.50917 -9.60119,19.41724 -1.21412,4.4 -3.07521,10.925 -4.13575,14.5 -2.98978,10.0783 -7.81421,34.00746 -7.81421,38.75847 0,2.34945 -0.65202,6.85243 -1.44894,10.00663 -1.79465,7.10324 -5.42118,34.8775 -6.00551,45.99405 l -0.43413,8.25914 4.69429,2.44429 c 5.44138,2.8333 6.18726,2.98784 6.21381,1.28742 z m -71.7046,-34.17783 c 0.66974,-20.61549 2.19578,-30.83438 6.63188,-44.40938 2.72312,-8.33305 2.80261,-9.11004 1.86028,-18.1839 -1.45251,-13.98659 -0.46078,-33.74314 2.20764,-43.97889 1.21875,-4.675 2.66912,-9.0625 3.22304,-9.75 2.27803,-2.82738 -1.10835,-0.96148 -5.4446,3 l -4.65209,4.25 -2.68229,15 c -1.47526,8.25 -3.52092,18.15 -4.54591,22 -2.52605,9.48821 -5.82423,32.58088 -6.569885,46 -0.59208,10.65533 -0.0182,17.02079 3.857385,42.78361 l 1.1709,7.78361 2.16203,-2.71144 c 1.98756,-2.49263 2.21203,-4.25053 2.78162,-21.78361 z m 41.75918,3.19485 c 0.78659,-15.64245 3.37683,-31.36334 7.45837,-45.26702 0.80729,-2.75 2.82807,-9.82763 4.49063,-15.72806 1.66256,-5.90043 3.30318,-11.52543 3.64582,-12.5 0.34265,-0.97457 -1.1166,0.25306 -3.24277,2.72806 -2.12617,2.475 -6.86558,7.65 -10.53201,11.5 -6.34711,6.6649 -6.76417,7.40691 -8.71198,15.5 -1.12515,4.675 -2.3527,10.19383 -2.72788,12.26407 -0.37518,2.07024 -1.30003,4.10986 -2.05524,4.53249 -1.16165,0.65009 -1.14958,2.07236 0.0784,9.23593 0.79831,4.65713 2.32518,13.62662 3.39304,19.93219 1.56734,9.25494 2.37247,11.81361 4.17722,13.275 1.22961,0.99568 2.45401,1.59197 2.72089,1.32509 0.26689,-0.26688 0.85438,-7.82587 1.30554,-16.79775 z m -17.41182,-34.01702 c -0.27741,-0.6875 -0.50439,-0.125 -0.50439,1.25 0,1.375 0.22698,1.9375 0.50439,1.25 0.27741,-0.6875 0.27741,-1.8125 0,-2.5 z m 16.08536,-27.2001 c 10.38811,-10.95724 14.68954,-17.06774 20.24523,-28.75982 3.67194,-7.72768 8.00602,-20.93679 9.52324,-29.02424 0.5287,-2.81822 0.30596,-3.62014 -1.16194,-4.18343 -0.99881,-0.38328 -1.95687,-0.27432 -2.12902,0.24214 -0.77992,2.33975 -18.66386,23.8884 -30.4233,36.65752 -3.29958,3.58287 -5.07052,6.57753 -5.94902,10.05973 -0.68797,2.72701 -1.82486,5.65599 -2.52642,6.50885 -0.70156,0.85285 -1.35235,4.00285 -1.4462,7 -0.0938,2.99714 -0.5258,6.41356 -0.95987,7.59203 -0.43408,1.17847 -0.54484,3.07724 -0.24613,4.21949 0.50268,1.92226 0.74638,1.9717 3.27463,0.66429 1.50234,-0.77689 6.8118,-5.71635 11.7988,-10.97656 z m -25.35836,-10.11341 c -0.28187,-1.13493 0.59189,-4.99757 1.94169,-8.58365 2.28783,-6.07819 2.38912,-7.12451 1.49445,-15.43649 -0.52784,-4.90399 -0.69397,-12.40385 -0.36917,-16.66635 0.47715,-6.26184 0.32137,-7.75 -0.81128,-7.75 -3.06619,0 -4.97617,12.28679 -5.36302,34.5 l -0.36572,21 1.99277,-2.5 c 1.16828,-1.46565 1.78073,-3.35376 1.48028,-4.56351 z m 19.84346,-21.68649 c 4.88832,-4.82203 21.3792,-24.93064 26.57452,-32.40437 1.70515,-2.45295 2.19274,-4.5908 2.19274,-9.61414 v -6.45977 l -4.59296,-1.75407 c -5.53388,-2.11341 -17.89621,-10.25906 -21.52759,-14.18473 -1.4413,-1.55811 -3.45085,-4.18292 -4.46566,-5.83292 -1.5445,-2.51123 -1.0106,-2.23384 3.27703,1.7026 15.4214,14.15826 39.49743,23.51008 50.90982,19.77484 4.51688,-1.47836 9.83559,-5.57543 12.51647,-9.64159 2.09703,-3.18062 2.52055,-5.37351 0.68289,-3.53585 -1.6259,1.6259 -5.8723,1.45997 -8.227,-0.32147 -2.48846,-1.88264 -1.40638,-2.99491 1.43449,-1.47452 3.13056,1.67542 6.84228,0.44275 7.58569,-2.51924 0.343,-1.36662 1.05518,-2.48477 1.58262,-2.48477 0.52743,0 0.68216,1.0125 0.34384,2.25 -1.35111,4.94199 1.40687,-1.03537 4.50507,-9.76381 2.58473,-7.28186 3.27447,-10.97763 3.63668,-19.48619 0.39017,-9.16521 0.26718,-10.27754 -0.96744,-8.75 -0.77794,0.9625 -2.20542,1.75 -3.17217,1.75 -1.5261,0 -1.68932,-0.72114 -1.23853,-5.47216 0.28557,-3.00968 1.40522,-6.94718 2.48811,-8.75 1.90854,-3.17734 2.10192,-10.77784 0.27422,-10.77784 -2.97066,0 -9.50074,18.53542 -8.86535,25.16403 0.29863,3.11545 0.56435,3.33817 4.01964,3.36918 2.03493,0.0183 3.99228,0.32561 4.34967,0.68299 1.13779,1.1378 -1.57955,7.60442 -4.5167,10.74864 -4.30756,4.61126 -5.69419,3.62572 -1.61076,-1.14484 4.64034,-5.42119 4.79568,-8.01355 0.42785,-7.13999 -2.39927,0.47986 -3.47181,0.19001 -4.5,-1.21613 -3.59794,-4.92047 1.04428,-24.55854 7.39786,-31.29529 3.93369,-4.17093 3.8968,-5.75387 -0.35494,-15.22801 -2.44932,-5.45782 -2.75716,-5.75258 -5.08394,-4.86793 -4.22176,1.60511 -4.72646,-0.20622 -0.5753,-2.06475 3.57635,-1.60119 5.34093,-3.28718 9.0527,-8.649573 1.14323,-1.651618 1.21872,-1.524623 0.67868,1.141668 -0.3342,1.65 -1.78473,4.237495 -3.2234,5.749995 -3.14015,3.30129 -2.56469,3.46321 2.2378,0.62966 3.58042,-2.11249 6.52061,-6.341123 6.52061,-9.378032 0,-1.64337 -6.14127,-11.852865 -7.71477,-12.825339 -0.48439,-0.299376 -1.45645,-0.188502 -2.16011,0.246386 -1.0102,0.624339 -1.03826,1.686168 -0.13338,5.04664 1.09865,4.08009 0.55045,12.030016 -0.82964,12.031312 -0.36415,3.42e-4 -0.52258,-2.137158 -0.35206,-4.75 0.51835,-7.942461 -5.6321,-15.159635 -16.05194,-18.835971 -4.39171,-1.549483 -14.9683,-1.779071 -21.2581,-0.461453 -2.70002,0.565614 -0.75006,0.679666 6,0.350936 10.7224,-0.522185 16.1012,0.663811 21.19992,4.67446 3.29273,2.590065 2.40647,2.565986 -2.65487,-0.07213 -2.27033,-1.183363 -6.73994,-2.304842 -10.28079,-2.579574 l -6.26426,-0.486039 4.5,2.638209 c 4.33241,2.539956 7.93134,6.092314 7.97776,7.874531 0.0122,0.469476 -1.63584,-0.602222 -3.66238,-2.381551 -4.46755,-3.922554 -10.80033,-6.92034 -14.68196,-6.950079 -2.47896,-0.01899 -2.80545,0.297796 -2.41452,2.342797 0.48678,2.54644 -0.85793,5.026495 -3.13268,5.777605 -0.93007,0.307103 -0.222,1.169989 2.06953,2.522022 3.90012,2.301128 6.84425,7.564898 6.84425,12.23674 0,3.88173 2.08463,4.07804 4.92742,0.46402 2.70329,-3.436675 2.62419,-7.936613 -0.2389,-13.59194 -1.38524,-2.736211 -1.80436,-4.371154 -1.04595,-4.080122 2.48686,0.954298 5.63602,9.197826 5.01255,13.121332 -0.588,3.700311 -5.36398,9.21966 -7.9209,9.15378 -2.67575,-0.069 -4.31883,-2.54489 -4.29944,-6.478784 0.0349,-7.080993 -4.82964,-11.489412 -12.67818,-11.489412 h -4.14929 l 4.95193,2.467651 c 4.97194,2.477621 10.44076,9.065674 10.44076,12.577525 0,1.76452 -3.66965,5.61851 -4.5303,4.75787 -0.28492,-0.28492 0.16784,-1.08726 1.00613,-1.78299 2.17292,-1.80337 1.91764,-3.1768 -1.45611,-7.834141 -4.04556,-5.584722 -8.32399,-7.720081 -21.51972,-10.740447 -5.72379,-1.310115 -6.08056,-1.277827 -7.75,0.701382 -2.74595,3.255468 -2.11433,4.331617 2.70511,4.608959 2.44488,0.140694 5.50553,0.658928 6.80144,1.151631 3.4569,1.314314 8.59735,5.909355 10.30505,9.211676 2.05413,3.97225 0.0707,3.63996 -2.43063,-0.40721 -2.58853,-4.188318 -8.71271,-7.638654 -14.84294,-8.362444 l -4.78803,-0.565317 -3.56078,14.607931 c -1.95843,8.03436 -3.39934,14.60793 -3.20203,14.60793 0.19731,0 1.48931,-1.2375 2.87112,-2.75 2.4828,-2.71762 2.49878,-2.72056 1.35783,-0.25 -0.635,1.375 -2.17645,3.4 -3.42546,4.5 -2.23506,1.96843 -4.31154,7.50628 -2.80973,7.49341 1.62661,-0.0139 6.9095,-4.08331 10.00417,-7.70615 1.77932,-2.08299 3.24182,-3.24042 3.25,-2.57206 0.0248,2.02339 -5.98483,8.20032 -10.62227,10.91804 -2.39957,1.40624 -4.36285,2.75454 -4.36285,2.99622 0,0.24169 2.3625,0.13704 5.25,-0.23254 13.05486,-1.67094 20.69496,-10.26547 21.24314,-23.89692 0.25066,-6.23313 1.58326,-7.67031 2.5824,-2.78506 0.92333,4.51461 -1.39453,13.70343 -4.47563,17.74296 -3.0943,4.05683 -10.13617,9.5421 -12.24995,9.5421 -2.09842,0 -1.63786,2.55676 2.21617,12.30296 1.96137,4.95998 3.81672,11.13395 4.12299,13.71993 0.58548,4.94351 -0.88708,11.06659 -3.10391,12.90639 -1.04651,0.86853 -1.31248,0.26985 -1.31248,-2.95423 0,-2.91136 -1.57813,-7.20379 -5.63637,-15.33065 -3.1,-6.20794 -5.63636,-11.76506 -5.63636,-12.34915 0,-1.33139 -3.37161,-2.26383 -8.25,-2.2816 -4.35255,-0.0158 -6.92169,2.11101 -9.3173,7.7133 -2.672,6.24863 -2.02213,11.51607 2.28163,18.49349 5.77785,9.36725 14.40962,13.92433 20.35141,10.74438 1.87342,-1.00263 1.93426,-0.55085 1.93426,14.36351 0,17.77457 -1.09444,25.08011 -4.26166,28.44714 -2.02868,2.15667 -2.26975,3.55981 -2.57368,14.97999 -0.42148,15.83706 1.13794,24.24454 4.4969,24.24454 1.37058,0 4.32774,-2.05055 7.57118,-5.25 z m 51.76726,-67.28038 c 0,-1.58969 7.28017,-9.56314 10.03,-10.98514 5.53684,-2.8632 9.83403,-0.99439 8.15433,3.54626 -0.79886,2.15952 -2.64126,3.01358 -16.43433,7.6183 -0.9625,0.32132 -1.75,0.24058 -1.75,-0.17942 z m 15.62577,-5.85878 c 0.0692,-0.061 0.437,-1.12334 0.81739,-2.36084 1.03577,-3.36963 -2.64565,-2.95437 -6.67738,0.75319 l -3.26578,3.0032 4.5,-0.64236 c 2.475,-0.35329 4.5566,-0.69223 4.62577,-0.75319 z m -79.50486,-17.6016 c -1.58159,-5.27891 -2.75135,-5.73748 -6.20217,-2.43139 -2.20013,2.10786 -2.91874,2.39854 -2.91874,1.18067 0,-1.75259 2.5719,-4.75852 4.07143,-4.75852 1.86864,0 0.8521,-2.69908 -2.07143,-5.5 -3.8315,-3.67081 -3.83771,-4.98456 -0.0142,-3.00736 3.76612,1.94754 10.01423,11.10985 10.01423,14.68499 0,4.24238 -1.58537,4.14965 -2.87909,-0.16839 z m 51.38389,-13.25924 c -0.35976,-1.7875 -0.85726,-3.97896 -1.10556,-4.86992 -0.24829,-0.89095 0.60345,-2.63522 1.89277,-3.87614 2.29457,-2.20845 11.68128,-6.36398 12.50794,-5.53732 0.58354,0.58353 -3.75099,6.53338 -4.75964,6.53338 -0.45292,0 -1.1272,1.21005 -1.49839,2.68901 -0.77079,3.07105 -4.25771,8.31099 -5.53056,8.31099 -0.46885,0 -1.1468,-1.4625 -1.50656,-3.25 z m -5.10884,-20.33948 c 0.33222,-0.86575 0.60404,-1.78299 0.60404,-2.03831 0,-0.25532 2.3625,-1.56412 5.25,-2.90845 6.38889,-2.97445 11.281,-3.20861 12.67355,-0.60662 0.89691,1.6759 0.5736,1.85715 -3.3129,1.85715 -2.52999,0 -6.68151,1.08717 -10.06277,2.63516 -4.48246,2.05214 -5.62231,2.2869 -5.15192,1.06107 z m -14.5374,-29.41894 c -1.45279,-2.74537 -2.25651,-4.991585 -1.78605,-4.991585 1.11561,0 5.92749,7.088665 5.92749,8.732125 0,2.54584 -1.56084,1.13608 -4.14144,-3.74054 z m 31.14144,4.60974 c 0,-0.31597 1.67103,-1.27269 3.7134,-2.12605 6.33625,-2.64745 7.52958,-4.294842 6.84696,-9.452219 -0.57562,-4.349003 -0.54156,-4.426853 0.88506,-2.023056 3.53905,5.963176 0.12993,12.364425 -7.19542,13.510735 -2.3375,0.36579 -4.25,0.40655 -4.25,0.0906 z m -2.00399,-4.56343 c 2.056,-1.57958 2.52519,-2.853736 2.66151,-7.227764 0.20844,-6.688398 0.18438,-6.602166 1.34248,-4.810131 2.75818,4.267986 -0.61113,14.033585 -4.82258,13.977755 -1.29384,-0.0172 -1.10666,-0.46074 0.81859,-1.93986 z m -56.99601,83.96211 c 0,-2.30952 -0.44961,-3 -1.95349,-3 -1.88231,0 -1.89142,0.10908 -0.25,2.99368 0.93692,1.64652 1.81599,2.99652 1.95349,3 0.1375,0.003 0.25,-1.34368 0.25,-2.99368 z m 6.04435,-36.203 c -1.67439,-5.22712 -3.04435,-10.26753 -3.04435,-11.20091 0,-1.42407 -0.80725,-1.63233 -5.01851,-1.29473 -5.83625,0.46788 -6.75355,1.06344 -4.96226,3.22181 0.97271,1.17205 1.49346,1.26531 2.04871,0.36689 0.47157,-0.76301 1.89394,0.9609 3.88008,4.70267 5.15896,9.71918 9.53296,16.38454 9.84633,15.00444 0.1619,-0.71298 -1.0756,-5.57305 -2.75,-10.80017 z m -13.14218,-26.94622 c 1.62913,-4.6733 1.35108,-5.43116 -1.15217,-3.14046 -1.2375,1.13242 -4.05,2.99098 -6.25,4.13012 l -4,2.07117 5.15217,0.0442 c 4.89509,0.042 5.20696,-0.11295 6.25,-3.10502 z m -8.34854,-41.350786 c 4.69265,-2.475 9.75031,-4.514312 11.23923,-4.531803 1.48893,-0.01749 3.60495,-0.710261 4.70227,-1.539485 1.71147,-1.293329 1.78256,-1.642065 0.5,-2.452884 -1.0706,-0.676818 -0.21738,-0.953898 3.00487,-0.975828 2.475,-0.01684 5.175,-0.506489 6,-1.0881 1.09163,-0.76958 -0.46326,-0.938639 -5.71129,-0.620977 -8.73677,0.528835 -15.22358,3.464912 -23.61968,10.690803 -3.20703,2.760051 -5.56468,5.018274 -5.23923,5.018274 0.32545,0 4.43118,-2.025 9.12383,-4.5 z m 39.28103,0.624449 c 0.18407,-1.295315 -0.15343,-2.843218 -0.75,-3.439784 -0.59656,-0.596566 -1.08466,-1.894665 -1.08466,-2.884665 0,-0.99 -0.39752,-1.8 -0.88337,-1.8 -1.29122,0 -2.009,3.556109 -1.03567,5.130994 0.4597,0.743815 0.56958,2.413173 0.24418,3.709685 -0.48188,1.91996 -0.24226,2.290653 1.29161,1.998091 1.07593,-0.205217 2.02672,-1.368803 2.21791,-2.714321 z m 46.57811,-9.109084 c -1.12523,-2.348627 -2.61936,-3.997143 -3.62894,-4.003892 -1.42044,-0.0095 -1.18619,0.773802 1.35946,4.545736 3.65142,5.410381 4.97034,5.095487 2.26948,-0.541844 z m -27.64058,-1.602854 c 3.99971,-0.371418 7.49971,-1.04344 7.77779,-1.493382 0.89418,-1.446809 -6.58908,-2.2109 -13.9243,-1.421764 -3.91913,0.421626 -8.58818,0.819702 -10.37568,0.884614 -1.7875,0.06491 -3.25,0.252244 -3.25,0.416295 0,1.08073 7.03585,3.110028 9.5,2.740015 1.65,-0.24776 6.27249,-0.754361 10.27219,-1.125778 z M 111.70397,179.60083 c -4.26738,-2.94272 -10.29776,-9.35045 -12.178695,-12.94076 -0.62938,-1.20134 -1.13459,-3.67634 -1.1227,-5.5 0.0215,-3.2891 0.0435,-3.27352 2.750005,1.9405 1.50061,2.89093 5.61654,8.17777 9.14652,11.74852 3.52998,3.57076 6.18956,6.72088 5.91017,7.00027 -0.27939,0.27939 -2.30678,-0.73245 -4.5053,-2.24853 z m -13.923015,-4.6565 c -1.94612,-1.94612 -3.39737,-4.40489 -3.39384,-5.75 0.006,-2.18561 0.11318,-2.14015 1.53608,0.65 0.84145,1.65 2.97618,4.22539 4.743845,5.7231 1.76765,1.4977 2.60642,2.7352 1.86392,2.75 -0.7425,0.0148 -2.880005,-1.5031 -4.750005,-3.3731 z M 470.51468,141.42498 c -0.66677,-4.35564 -0.93323,-9.19314 -0.59213,-10.75 0.39678,-1.81099 0.29443,-2.37198 -0.28412,-1.55735 -0.87787,1.23608 -3.28862,-10.47827 -3.86344,-18.7733 -0.25657,-3.70237 -0.41632,-4.84872 -2.82018,-20.237014 -0.83658,-5.355356 -1.26548,-10.530356 -0.95312,-11.500001 0.48706,-1.511939 0.40076,-1.54939 -0.60605,-0.262991 -0.93381,1.193116 -1.07486,0.630448 -0.68946,-2.750226 0.27455,-2.408353 0.0924,-4.007873 -0.42035,-3.690983 -0.49768,0.307584 -0.90487,0.140811 -0.90487,-0.370605 0,-1.450071 -5.69506,-40.271842 -7.94927,-54.188185 -1.11364,-6.875001 -2.03063,-13.0625006 -2.03776,-13.7500006 -0.01,-0.928387 2.94996,-1.25 11.50291,-1.25 h 11.51588 l -0.0512,73.4999996 c -0.0281,40.425006 -0.18242,73.500006 -0.34286,73.500006 -0.16044,0 -0.83725,-3.56371 -1.50403,-7.91935 z m -2.45061,-25.26815 c -0.31922,-0.79773 -0.55618,-0.56078 -0.60416,0.60417 -0.0434,1.05416 0.19293,1.64479 0.52522,1.3125 0.33229,-0.3323 0.36781,-1.1948 0.0789,-1.91667 z m -390.683115,24.0625 c 0,-1.03125 0.225,-1.875 0.5,-1.875 0.275,0 1.34375,0.84375 2.375,1.875 1.83333,1.83333 1.82222,1.875 -0.5,1.875 -1.65556,0 -2.375,-0.56798 -2.375,-1.875 z m 16.79918,-0.42887 c -2.58545,-0.81289 -4.97451,-1.92081 -5.30902,-2.46205 -0.79225,-1.28188 -0.67639,-1.26687 4.90777,0.63584 3.03718,1.03487 6.581965,1.4443 9.815035,1.13364 2.78345,-0.26746 4.43672,-0.13752 3.67393,0.28875 -2.9459,1.64623 -8.582885,1.82016 -13.087715,0.40382 z m -12.89951,-1.43743 c -3.8303,-2.02445 -6.89967,-5.85514 -6.89967,-8.61102 0,-1.08523 1.08407,-0.30737 3.08672,2.21482 1.69769,2.13812 4.39769,4.71919 6,5.7357 5.01344,3.18055 3.46544,3.64805 -2.18705,0.6605 z m 12.28043,-7.01307 c -4.01194,-1.82068 -10.18692,-5.99563 -8.86787,-5.99563 0.32007,0 2.74325,1.15674 5.38486,2.57053 2.6416,1.41379 7.05291,3.18417 9.80291,3.93419 4.725245,1.28872 4.807675,1.36607 1.500005,1.40751 -1.925005,0.0241 -5.443955,-0.83835 -7.819905,-1.9166 z m -16.88626,-3.14157 c -2.77063,-3.33841 -2.78347,-10.15834 -0.0245,-13.03413 0.69646,-0.72596 1.79033,-2.44493 2.43082,-3.81993 l 1.16453,-2.5 0.0677,2.79775 c 0.14095,5.82667 8.37305,10.21858 17.91926,9.56011 4.344325,-0.29965 4.909895,-0.15455 3.477175,0.89214 -4.194335,3.06422 -18.169905,0.4187 -23.560775,-4.45997 -1.66054,-1.50278 -1.76798,-1.3739 -1.76798,2.12072 0,2.0464 0.47918,4.6161 1.06485,5.71043 1.35829,2.53799 0.77706,4.59819 -0.77101,2.73288 z m 9.20985,-12.28147 c -4.02473,-4.26746 -4.93629,-7.28548 -2.63464,-8.72288 1.22178,-0.76302 1.60858,-2.09565 1.36622,-4.70704 -0.32678,-3.521004 -0.28229,-3.575872 1.33206,-1.64268 1.6253,1.94631 1.65245,1.92393 1.01132,-0.83378 -0.43079,-1.852991 -0.29883,-2.611311 0.38127,-2.190987 0.57204,0.353543 1.04008,1.188719 1.04008,1.855945 0,2.255062 6.16473,8.710822 9.74772,10.207892 4.363045,1.82299 3.864355,2.78366 -0.757,1.45828 -1.85725,-0.53265 -5.08995,-2.64128 -7.18377,-4.68585 -3.80836,-3.71878 -5.2602,-3.58288 -2.02368,0.18943 3.50964,4.09062 9.91265,8.357 13.261295,8.8361 1.90049,0.2719 0.15619,0.36477 -3.876235,0.20635 -5.70285,-0.22403 -7.99884,-0.78128 -10.33473,-2.50828 -2.93034,-2.16648 -2.97608,-2.16983 -1.88869,-0.13802 0.61291,1.14522 2.45104,2.77344 4.08473,3.61826 3.33739,1.72583 3.74616,2.48467 1.33844,2.48467 -0.89756,0 -3.08653,-1.54233 -4.86439,-3.42741 z m 5.99631,-3.41427 c -1.65,-1.00881 -3.6176,-2.58213 -4.37244,-3.49626 -1.97332,-2.38972 -3.37495,-2.05009 -1.88603,0.45701 0.69216,1.16549 2.60847,2.72288 4.25847,3.46086 4.35273,1.94681 5.48378,1.70838 2,-0.42161 z m 18.392465,0.48748 c -5.81696,-2.39288 -10.640215,-5.43201 -12.853725,-8.09913 -1.61819,-1.9498 -1.13677,-1.94116 2.857165,0.0513 1.76175,0.87887 6.66839,1.82124 10.90364,2.09413 6.94922,0.44776 8.18825,0.23613 12.70046,-2.16933 l 5,-2.66547 -3,3.05128 c -2.23382,2.27201 -4.66006,3.39865 -9.5,4.41139 l -6.5,1.36009 5.37341,1.64273 c 2.95537,0.9035 5.76787,1.39893 6.25,1.10096 0.48212,-0.29797 0.87659,-0.0652 0.87659,0.51725 0,1.79419 -6.21315,1.12955 -12.10754,-1.29518 z"
     id="path5716"
     inkscape:connector-curvature="0" />
</svg>
